<svg width="280" height="81" viewBox="0 0 280 81" fill="none" xmlns="http://www.w3.org/2000/svg">
<path d="M64.1848 21.9343L65.6309 19.4742L63.4836 20.1377C63.3928 19.9217 63.2989 19.7089 63.2019 19.493C58.0277 8.00313 46.4741 0 33.0518 0C12.3392 0 0 12.3725 0 38.482V46.9546C0 65.205 14.7965 80 33.0518 80C54.4217 80 66.1004 67.9405 66.1004 39.615V33.0454C66.1004 31.0955 65.9314 29.1862 65.609 27.3302C65.2835 25.4742 64.8045 23.6714 64.1848 21.9343Z" fill="white"/>
<path d="M36.1674 45.439L39.6826 39.5235C40.0144 40.4468 40.5184 41.2449 41.1538 41.8427C41.7924 42.4405 42.5624 42.8412 43.4232 42.9663C46.1496 43.367 48.779 40.8818 49.3956 37.3795C50.6352 38.7316 51.449 40.5751 51.7589 42.6596L36.1674 45.439ZM45.9148 34.3591C45.8648 34.1776 45.8022 33.9992 45.7333 33.8271C45.6582 33.8239 45.5799 33.8208 45.5017 33.8208C45.0666 33.8208 44.6064 33.8803 44.1431 34.0117C43.4889 34.1964 42.913 34.4969 42.4528 34.8662L44.7723 30.9632C44.8443 30.957 44.9194 30.9538 44.9946 30.9538C45.1229 30.9538 45.2481 30.9632 45.3764 30.9851C47.1544 31.2919 48.2374 33.6299 47.793 36.212C47.4956 37.9523 46.5784 39.3576 45.4672 39.9961L45.4704 39.9992C44.2652 40.5563 42.9818 40.3842 42.4935 39.5516C41.9614 38.6408 42.578 37.2919 43.8708 36.5344C44.6221 36.0931 45.4359 35.9523 46.0901 36.0868C46.1371 35.5454 46.0839 34.9538 45.9148 34.3591ZM49.3894 34.3623C48.9417 31.9961 47.4549 30.1651 45.4547 29.8208L48.4566 24.7692L63.4847 20.1369C63.3939 19.921 63.3 19.7081 63.2029 19.4922L53.8342 21.0008L51.0609 21.4483C51.424 20.957 51.712 20.4061 51.9092 19.8177C52.1095 19.2261 52.2159 18.5939 52.2159 17.9366C52.2159 16.6534 51.8059 15.4609 51.111 14.4906C50.7103 13.971 50.1969 13.5454 49.6053 13.248C49.0169 12.9507 48.347 12.7848 47.6427 12.7848C47.0292 12.7848 46.4501 12.91 45.9211 13.1354C46.0056 13.0227 46.0557 12.885 46.0557 12.7347C46.0557 12.6252 46.0307 12.525 45.9837 12.4343C45.5705 11.7645 44.8913 10.9382 44.2683 10.4624C44.2433 10.6878 44.2308 10.9131 44.2308 11.1448C44.2308 12.0994 44.4405 13.0039 44.8193 13.8145C44.4499 14.1275 44.1306 14.5031 43.8802 14.9225L43.6423 21.4483L44.7379 22.8099L45.6613 22.3028C46.0432 22.0931 46.2435 21.658 46.159 21.2324L45.8616 19.7519C45.8522 19.7081 45.846 19.6612 45.846 19.6142C45.846 19.2887 46.1089 19.0258 46.4344 19.0258C46.4532 19.0258 46.4751 19.0289 46.4939 19.0289H46.5565C47.5582 19.0289 48.372 18.2152 48.372 17.2136C48.372 16.212 47.5582 15.3983 46.5565 15.3983C46.472 15.3983 46.3906 15.4045 46.3124 15.4139C46.591 15.2449 46.9165 15.1479 47.264 15.1479C48.2844 15.1479 49.1108 15.9773 49.1108 16.9945V17.1385C49.1108 17.971 48.8948 18.7535 48.5192 19.4327L32.7023 46.0587L24.1192 47.8897C23.5746 47.0665 22.6105 46.5188 21.5118 46.5188C20.9577 46.5188 20.435 46.6596 19.9843 46.9037C21.2489 47.3357 22.1128 48.2746 22.1128 49.2042C22.1128 49.3263 22.0971 49.4483 22.0658 49.5673C22.0439 49.6549 22.0158 49.7394 21.9751 49.8208C21.5619 50.8944 20.723 51.608 19.9404 51.608C19.8027 51.608 19.665 51.5861 19.5335 51.5391C18.7353 51.2543 18.3753 50.1651 18.6414 48.9976C19.3613 45.5892 20.964 42.3028 23.3117 39.4421C25.6593 36.5845 28.7519 34.1526 32.4518 32.4624C35.4349 31.1009 38.5213 30.3498 41.542 30.1588C41.542 30.1588 42.2869 28.7566 42.2963 28.7347C42.2963 28.7347 40.6123 28.453 39.7296 28.453C38.6402 28.453 37.5885 28.6033 36.5868 28.8787C36.9218 28.0462 37.1127 27.1009 37.1127 26.0962C37.1127 22.7473 34.9967 20.0336 32.3892 20.0336C31.5472 20.0336 30.7553 20.3153 30.0698 20.8098L30.0729 20.813C29.0243 21.5141 28.3106 22.9194 28.3106 24.5407C28.3106 26.8599 29.7724 28.741 31.5785 28.741C31.9729 28.741 32.3517 28.6502 32.7054 28.4843C33.3784 28.115 33.851 27.2543 33.851 26.2527C33.851 25.3795 33.4911 24.6158 32.9527 24.187C33.0497 24.4343 33.1029 24.716 33.1029 25.0164C33.1029 25.9836 32.5457 26.766 31.8571 26.766C31.7037 26.766 31.5566 26.7253 31.422 26.6534C31.0839 26.4843 30.796 26.1901 30.5925 25.8145C30.3859 25.439 30.267 24.982 30.267 24.4906C30.267 23.2512 31.0245 22.2371 31.9792 22.1745V22.1713C32.07 22.162 32.1639 22.1557 32.2546 22.1557C34.0232 22.1557 35.4568 23.9961 35.4568 26.2684C35.4568 28.4468 34.1359 30.2308 32.4644 30.3685C32.2265 30.403 31.9823 30.4186 31.7319 30.4186C30.9306 30.4186 30.1856 30.2402 29.5533 29.9335C27.3183 28.8631 25.4339 27.1854 24.1036 25.1134C22.7733 23.0415 22.0032 20.5814 22.0032 17.9366C22.0032 17.7019 22.0095 17.4671 22.022 17.2355C22.0596 16.7379 22.4728 16.3466 22.9799 16.3466C23.1552 16.3466 23.3179 16.3936 23.4588 16.4749C25.4089 17.5078 27.6313 18.0931 29.9915 18.0931C33.1436 18.0931 36.0484 17.0477 38.3867 15.2887C38.634 15.1166 38.9376 15.0164 39.2632 15.0164C40.052 15.0164 40.6999 15.608 40.7907 16.3717C40.8408 16.7347 40.8658 17.1041 40.8658 17.4796C40.8658 19.921 39.7984 22.115 38.1081 23.6174C40.919 22.4593 42.8973 19.6925 42.8973 16.4656C42.8973 15.5673 42.7439 14.7066 42.4654 13.9053C42.096 12.9444 41.1663 12.259 40.0739 12.259C39.3477 12.259 38.6935 12.5595 38.2271 13.0446C36.133 14.9726 33.3408 16.1463 30.2701 16.1463C28.1384 16.1463 26.1351 15.5798 24.4104 14.5845C23.969 14.3185 23.4494 14.162 22.8953 14.162C21.4335 14.162 20.219 15.2324 19.9968 16.6314C19.9436 17.1447 19.9123 17.7238 19.9123 18.2496C19.9123 24.3028 23.5057 29.5203 28.6768 31.8803C22.9799 34.9069 18.7384 39.5203 16.4409 44.6627C16.3 44.957 16.1748 45.2668 16.0652 45.5923C15.0291 44.8411 13.7113 44.3904 12.2714 44.3904C8.94404 44.3904 6.24268 46.8005 6.24268 49.7739C6.24268 49.8959 6.24894 50.0149 6.25833 50.1369C6.26146 50.2433 6.26459 50.3529 6.27085 50.4593C6.41171 53.4139 7.09409 56.356 8.37747 59.1604C13.0289 69.3325 24.1537 74.7191 35.6697 73.3983C24.473 73.367 14.0306 66.3247 10.193 55.1541C10.1805 55.1197 10.1679 55.0853 10.1554 55.0508C9.93005 54.3936 9.73285 53.73 9.56382 53.0665C9.25706 51.6987 9.41044 50.2653 10.1053 49.0008C11.1821 47.0383 13.2888 45.9554 15.5582 45.9554C15.6896 45.9554 15.818 45.9585 15.9494 45.9679C15.8273 46.3811 15.7334 46.8161 15.6708 47.2668C15.1731 50.7817 16.7069 53.9084 19.0953 54.2465C19.809 54.3466 20.5164 54.187 21.1737 53.8208L17.2892 60.5282L16.876 61.2386C16.0465 62.669 17.1671 64.4437 18.8167 64.3091L25.4058 63.7707L35.2784 62.9663C36.518 62.8631 37.6042 62.1056 38.1206 60.9757C39.4541 58.0712 41.3291 53.9648 42.6751 50.9789C42.7596 50.766 42.8003 50.5282 42.7878 50.284C42.7408 49.3826 41.9457 48.6565 41.0474 48.6878C40.9879 48.6909 40.9284 48.694 40.8721 48.7034C37.6542 49.3858 33.322 50.3028 29.8663 51.0196C29.0086 51.198 28.2762 51.7457 27.863 52.5156C26.9427 54.2308 25.9035 56.1557 24.9362 57.946C24.7109 58.3685 25.0395 58.8724 25.5153 58.8349C27.7346 58.6596 30.6457 58.4311 32.8682 58.259C33.6914 58.1933 34.4113 57.6893 34.7525 56.9382C35.3692 55.5861 36.0046 54.1964 36.5931 52.9006C36.5931 52.8975 36.5931 52.8975 36.5931 52.8975L34.4364 53.367C33.9074 53.4828 33.4629 53.8396 33.2375 54.3341C33.0716 54.7003 32.9026 55.0696 32.7304 55.4421C32.4988 55.9523 32.023 56.3091 31.469 56.3873L28.6455 56.7879C28.3826 56.8255 28.1916 56.5469 28.3169 56.3153C28.7895 55.439 29.2653 54.5532 29.7254 53.6987C30.0447 53.1041 30.6113 52.6815 31.2718 52.5438C33.7728 52.0211 36.5618 51.4327 39.0002 50.9163C39.4197 50.8255 39.7577 51.2512 39.5824 51.6393C38.5589 53.9053 37.3193 56.6252 36.2519 58.957C35.9358 59.6455 35.269 60.1088 34.5115 60.1588L22.2192 61.0039C21.5713 61.0477 21.1268 60.3591 21.4367 59.7864C23.0268 56.8505 25.0082 53.1761 26.398 50.5657C26.7267 49.9523 27.3089 49.5172 27.9882 49.3795C33.1217 48.3372 45.4703 45.8928 54.6857 43.7645C56.426 43.3607 59.2244 42.3936 60.5235 41.0947L54.4133 42.1839C54.0189 38.6127 52.2378 35.6361 49.3894 34.3623Z" fill="#231F20"/>
<path d="M11.971 30.2029C13.2387 30.2029 14.2623 31.2295 14.2623 32.494C14.2623 33.7616 13.2387 34.7882 11.971 34.7882C10.7064 34.7882 9.67971 33.7616 9.67971 32.494C9.67971 31.2295 10.7064 30.2029 11.971 30.2029ZM11.971 36.9009C14.544 36.9009 16.6256 34.8164 16.6256 32.2467C16.6256 29.6771 14.544 27.5926 11.971 27.5926C9.40112 27.5926 7.31641 29.6771 7.31641 32.2467C7.31641 34.8164 9.40112 36.9009 11.971 36.9009Z" fill="#231F20"/>
<path d="M29.7599 10.0274C30.0667 9.0759 30.5487 8.2058 31.1716 7.4515C31.7946 8.20267 32.2797 9.0759 32.5865 10.0274C32.6366 10.1776 32.6647 10.3404 32.6647 10.5063C32.6647 11.3294 31.998 11.9961 31.1748 11.9961C30.3515 11.9961 29.6817 11.3294 29.6817 10.5063C29.6817 10.3404 29.7098 10.1776 29.7599 10.0274ZM31.1748 13.6831C32.9152 13.6831 34.33 12.2684 34.33 10.5282C34.33 10.4718 34.3269 10.4186 34.3238 10.3654C34.1579 8.02426 32.9559 5.96793 31.1716 4.6565C29.3999 5.96167 28.1979 8.00548 28.0227 10.3341C28.0195 10.3967 28.0195 10.4624 28.0195 10.5282C28.0195 12.2684 29.4312 13.6831 31.1748 13.6831Z" fill="#231F20"/>
<path d="M50.8408 50.1275C49.2413 54.2684 46.1768 57.2449 42.9214 58.2559C47.0846 58.1025 51.3792 54.6627 53.4013 49.4264C53.9522 48.0023 54.2871 46.5626 54.4217 45.1604L51.8299 45.9929C51.6985 47.3482 51.3761 48.7441 50.8408 50.1275Z" fill="#231F20"/>
<path d="M100.72 38.6803C100.011 38.6803 99.436 39.255 99.436 39.9639V54.4365H89.9136V12.8722H99.436V29.4206C99.436 30.1295 100.011 30.7044 100.72 30.7044H121.62C122.329 30.7044 122.904 30.1295 122.904 29.4206V12.8722H132.427V54.4365H122.904V39.9639C122.904 39.255 122.329 38.6803 121.62 38.6803H100.72Z" fill="white"/>
<path d="M201.39 12.8726C204.276 8.97616 208.908 6.45034 214.129 6.45034H222.859C219.973 10.3461 215.342 12.8713 210.121 12.8713L201.39 12.8726Z" fill="white"/>
<path d="M187.952 33.7559V12.8726H197.474V27.0745L187.952 33.7559Z" fill="white"/>
<path d="M216.805 16.5173C217.536 16.066 218.334 15.655 219.188 15.2995C221.162 14.4772 223.139 14.0744 224.879 14.0632L226.037 14.0644C228.147 14.0644 229.971 15.7793 229.971 17.8895V54.4375H220.449V28.2375H220.45C220.45 26.6519 219.165 25.3674 217.58 25.3674C216.918 25.3674 216.307 25.5921 215.821 25.9693L197.474 38.9567V54.4375H187.952V45.5818V45.5821C186.178 46.6522 184.301 47.5965 182.376 48.3946L184.109 54.4375H174.202L173.212 50.988C171.693 51.2165 170.197 51.3358 168.752 51.3355C161.474 51.3351 154.928 48.3577 150.388 43.6134L150.388 43.6131L147.284 54.4375H137.377L146.486 22.6754C148.201 17.0021 153.469 12.8713 159.703 12.8713H161.827C167.744 12.8713 172.792 16.5924 174.756 21.8228L179.726 39.153V39.1533C177.068 40.8519 174.03 42.0068 170.767 42.4613L165.316 23.4616C164.833 21.3818 162.968 19.8328 160.741 19.8328C158.685 19.8328 156.937 21.1542 156.301 22.9946V22.9949L151.492 39.7627C156.117 42.2725 161.417 43.6982 167.049 43.6982C175.079 43.6982 182.431 40.8006 188.118 35.9934L197.641 29.4422L216.805 16.5173Z" fill="white"/>
<path d="M268.453 24.1395C268.453 24.0954 268.453 24.0487 268.449 24.0046C268.302 31.2318 262.396 37.0503 255.13 37.0503L255.346 37.0594C251.384 37.0594 247.665 36.0206 244.444 34.199V27.5792C244.444 23.8606 247.458 20.8468 251.177 20.8468H265.16C266.922 20.8468 268.359 22.2303 268.449 23.9705C268.453 23.8891 268.453 23.8109 268.453 23.7295V24.1395ZM277.975 22.4963C277.975 17.1908 273.674 12.8907 268.365 12.8907L247.552 12.8719C240.578 12.8719 234.922 18.5273 234.922 25.5007V54.4365H244.444V43.5511C246.92 44.5054 249.612 45.0284 252.426 45.0284H255.813C268.068 45.0284 278 35.0969 278 22.8434L277.975 22.4963Z" fill="white"/>
<path d="M91.1138 65.8613H95.9365C95.7697 64.496 94.7182 63.419 92.8492 63.419C91.948 63.419 91.1138 63.6315 90.5463 63.8437L90.0458 62.1295C90.73 61.8566 91.8312 61.5533 93.0495 61.5533C96.9879 61.5533 98.6732 64.0105 98.6732 66.8472C98.6732 70.291 96.1033 72.1113 92.7991 72.1113C91.6309 72.1113 90.4962 71.8684 89.9121 71.6259L90.3629 69.8509C90.93 70.0634 91.7981 70.2149 92.5988 70.2149C94.5182 70.2149 95.7362 69.153 95.9199 67.6666H91.1138V65.8613Z" fill="white"/>
<path d="M107.418 61.7202V65.6492H111.606V61.7202H114.143V71.9443H111.606V67.6667H107.418V71.9443H104.881V61.7202H107.418Z" fill="white"/>
<path d="M123.054 63.662H120.017V61.7202H128.661V63.662H125.591V71.9443H123.054V63.662Z" fill="white"/>
<path d="M141.21 67.621H137.072V70.0482H141.694V71.9443H134.535V61.7202H141.46V63.6163H137.072V65.74H141.21V67.621Z" fill="white"/>
<path d="M150.455 66.4986C150.672 66.544 150.922 66.5594 151.306 66.5594C152.658 66.5594 153.492 65.9374 153.492 64.9058C153.492 63.9653 152.775 63.4041 151.49 63.4041C150.989 63.4041 150.639 63.4342 150.455 63.4799V66.4986ZM147.935 61.8567C148.719 61.7353 149.821 61.6442 151.373 61.6442C152.942 61.6442 154.06 61.9174 154.811 62.4636C155.545 62.9794 156.012 63.8288 156.012 64.8298C156.012 65.831 155.662 66.6958 154.977 67.257C154.11 67.9853 152.825 68.334 151.323 68.334C150.989 68.334 150.689 68.319 150.455 68.2733V71.9443H147.935V61.8567Z" fill="white"/>
<path d="M164.473 63.662H161.436V61.7202H170.08V63.662H167.009V71.9443H164.473V63.662Z" fill="white"/>
<path d="M180.159 67.5907L179.458 65.4216C179.258 64.8148 179.058 64.0564 178.891 63.4495H178.858C178.691 64.0564 178.524 64.8298 178.34 65.4216L177.673 67.5907H180.159ZM177.306 69.3202L176.505 71.9443H173.885L177.306 61.7202H180.643L184.148 71.9443H181.394L180.526 69.3202H177.306Z" fill="white"/>
<path d="M194.027 59.3841C194.06 59.9756 194.244 60.3093 194.778 60.3093C195.278 60.3093 195.495 59.9756 195.545 59.3841H197.264C197.164 60.6733 196.213 61.2498 194.728 61.2498C193.276 61.2498 192.442 60.6583 192.308 59.3841H194.027ZM192.475 61.7202V64.754C192.475 66.3925 192.425 68.0154 192.341 69.3806H192.391C192.992 68.1825 193.743 66.8323 194.41 65.74L196.83 61.7202H199.434V71.9443H197.097V68.9256C197.097 67.3481 197.131 65.9525 197.281 64.6176H197.231C196.714 65.831 195.979 67.1813 195.312 68.2583L193.026 71.9443H190.139V61.7202H192.475Z" fill="white"/>
<path d="M208.712 61.7202V65.6492H212.901V61.7202H215.437V71.9443H212.901V67.6667H208.712V71.9443H206.176V61.7202H208.712Z" fill="white"/>
<path d="M231.674 68.0307C231.624 66.8019 231.574 65.3152 231.574 63.8288H231.541C231.174 65.1334 230.706 66.5897 230.273 67.7882L228.904 71.7775H226.919L225.717 67.8335C225.35 66.6198 224.983 65.1637 224.699 63.8288H224.665C224.615 65.2091 224.549 66.7869 224.482 68.0611L224.265 71.9443H221.912L222.63 61.7202H226.017L227.119 65.1334C227.486 66.3165 227.819 67.5907 228.07 68.7891H228.137C228.437 67.606 228.821 66.2558 229.205 65.118L230.39 61.7202H233.727L234.328 71.9443H231.858L231.674 68.0307Z" fill="white"/>
<path d="M247.478 67.621H243.339V70.0482H247.962V71.9443H240.803V61.7202H247.728V63.6163H243.339V65.74H247.478V67.621Z" fill="white"/>
<path d="M256.756 61.7202V65.6492H260.945V61.7202H263.481V71.9443H260.945V67.6667H256.756V71.9443H254.22V61.7202H256.756Z" fill="white"/>
<path d="M272.394 63.662H269.355V61.7202H278V63.662H274.929V71.9443H272.394V63.662Z" fill="white"/>
</svg>
