<svg width="280" height="81" viewBox="0 0 280 81" fill="none" xmlns="http://www.w3.org/2000/svg">
<path d="M64.1851 21.9343L65.6313 19.4742L63.4839 20.1377C63.3932 19.9217 63.2993 19.7089 63.2022 19.493C58.028 8.00313 46.4743 0 33.052 0C12.3393 0 0 12.3725 0 38.482V46.9546C0 65.205 14.7965 80 33.052 80C54.422 80 66.1008 67.9405 66.1008 39.615V33.0454C66.1008 31.0955 65.9318 29.1862 65.6094 27.3302C65.2838 25.4742 64.8049 23.6714 64.1851 21.9343Z" fill="#231F20"/>
<path d="M36.1676 45.439L39.6828 39.5235C40.0146 40.4468 40.5186 41.2449 41.154 41.8427C41.7926 42.4405 42.5626 42.8412 43.4234 42.9663C46.1498 43.367 48.7792 40.8818 49.3959 37.3795C50.6354 38.7316 51.4493 40.5751 51.7592 42.6596L36.1676 45.439ZM45.9151 34.3592C45.865 34.1776 45.8024 33.9992 45.7335 33.8271C45.6584 33.8239 45.5801 33.8208 45.5019 33.8208C45.0668 33.8208 44.6066 33.8803 44.1433 34.0117C43.4891 34.1964 42.9132 34.4969 42.453 34.8662L44.7725 30.9632C44.8445 30.957 44.9196 30.9538 44.9948 30.9538C45.1231 30.9538 45.2483 30.9632 45.3767 30.9851C47.1546 31.2919 48.2377 33.6299 47.7932 36.212C47.4958 37.9523 46.5787 39.3576 45.4674 39.9961L45.4706 39.9992C44.2654 40.5563 42.982 40.3842 42.4937 39.5516C41.9616 38.6408 42.5782 37.2919 43.871 36.5344C44.6223 36.0931 45.4361 35.9523 46.0903 36.0868C46.1373 35.5454 46.0841 34.9538 45.9151 34.3592ZM49.3896 34.3623C48.942 31.9961 47.4551 30.1651 45.4549 29.8208L48.4568 24.7692L63.485 20.1369C63.3942 19.921 63.3003 19.7081 63.2032 19.4922L53.8345 21.0008L51.0611 21.4484C51.4242 20.957 51.7122 20.4061 51.9094 19.8177C52.1098 19.2261 52.2162 18.5939 52.2162 17.9366C52.2162 16.6534 51.8061 15.4609 51.1112 14.4906C50.7105 13.971 50.1972 13.5454 49.6056 13.248C49.0171 12.9507 48.3472 12.7848 47.6429 12.7848C47.0294 12.7848 46.4503 12.91 45.9213 13.1354C46.0058 13.0227 46.0559 12.885 46.0559 12.7347C46.0559 12.6252 46.0309 12.525 45.9839 12.4343C45.5707 11.7645 44.8915 10.9382 44.2686 10.4624C44.2435 10.6878 44.231 10.9131 44.231 11.1448C44.231 12.0994 44.4407 13.0039 44.8195 13.8145C44.4501 14.1275 44.1308 14.5031 43.8804 14.9225L43.6425 21.4484L44.7381 22.8099L45.6615 22.3028C46.0434 22.0931 46.2437 21.6581 46.1592 21.2324L45.8618 19.752C45.8525 19.7081 45.8462 19.6612 45.8462 19.6142C45.8462 19.2887 46.1091 19.0258 46.4347 19.0258C46.4534 19.0258 46.4754 19.0289 46.4941 19.0289H46.5568C47.5584 19.0289 48.3723 18.2152 48.3723 17.2136C48.3723 16.212 47.5584 15.3983 46.5568 15.3983C46.4722 15.3983 46.3908 15.4045 46.3126 15.4139C46.5912 15.2449 46.9167 15.1479 47.2642 15.1479C48.2846 15.1479 49.111 15.9773 49.111 16.9945V17.1385C49.111 17.9711 48.895 18.7535 48.5194 19.4327L32.7024 46.0587L24.1193 47.8897C23.5747 47.0665 22.6106 46.5188 21.5119 46.5188C20.9578 46.5188 20.4351 46.6596 19.9843 46.9038C21.2489 47.3357 22.1129 48.2746 22.1129 49.2042C22.1129 49.3263 22.0972 49.4483 22.0659 49.5673C22.044 49.6549 22.0158 49.7394 21.9751 49.8208C21.562 50.8944 20.7231 51.608 19.9405 51.608C19.8028 51.608 19.665 51.5861 19.5336 51.5391C18.7354 51.2543 18.3754 50.1651 18.6415 48.9976C19.3614 45.5892 20.9641 42.3028 23.3118 39.4421C25.6594 36.5845 28.7521 34.1526 32.452 32.4624C35.4351 31.1009 38.5215 30.3498 41.5421 30.1588C41.5421 30.1588 42.2871 28.7567 42.2965 28.7347C42.2965 28.7347 40.6125 28.4531 39.7297 28.4531C38.6404 28.4531 37.5887 28.6033 36.587 28.8787C36.9219 28.0462 37.1129 27.1009 37.1129 26.0962C37.1129 22.7473 34.9969 20.0336 32.3894 20.0336C31.5474 20.0336 30.7554 20.3153 30.0699 20.8099L30.073 20.813C29.0244 21.5141 28.3107 22.9194 28.3107 24.5407C28.3107 26.8599 29.7725 28.741 31.5787 28.741C31.9731 28.741 32.3518 28.6502 32.7055 28.4844C33.3785 28.115 33.8512 27.2543 33.8512 26.2527C33.8512 25.3795 33.4912 24.6158 32.9528 24.187C33.0499 24.4343 33.1031 24.716 33.1031 25.0164C33.1031 25.9836 32.5459 26.766 31.8572 26.766C31.7039 26.766 31.5567 26.7254 31.4221 26.6534C31.0841 26.4844 30.7961 26.1901 30.5926 25.8146C30.386 25.439 30.2671 24.982 30.2671 24.4906C30.2671 23.2512 31.0246 22.2371 31.9793 22.1745V22.1714C32.0701 22.162 32.164 22.1557 32.2548 22.1557C34.0234 22.1557 35.457 23.9961 35.457 26.2684C35.457 28.4468 34.136 30.2308 32.4645 30.3685C32.2266 30.403 31.9825 30.4186 31.732 30.4186C30.9307 30.4186 30.1857 30.2402 29.5534 29.9335C27.3184 28.8631 25.434 27.1854 24.1037 25.1135C22.7734 23.0415 22.0033 20.5814 22.0033 17.9366C22.0033 17.7019 22.0096 17.4671 22.0221 17.2355C22.0597 16.7379 22.4729 16.3466 22.98 16.3466C23.1552 16.3466 23.318 16.3936 23.4589 16.475C25.409 17.5078 27.6315 18.0931 29.9916 18.0931C33.1438 18.0931 36.0486 17.0477 38.3869 15.2887C38.6342 15.1166 38.9378 15.0164 39.2633 15.0164C40.0522 15.0164 40.7001 15.608 40.7909 16.3717C40.841 16.7347 40.866 17.1041 40.866 17.4797C40.866 19.921 39.7986 22.115 38.1083 23.6174C40.9192 22.4593 42.8975 19.6925 42.8975 16.4656C42.8975 15.5673 42.7441 14.7066 42.4656 13.9053C42.0962 12.9444 41.1665 12.259 40.0741 12.259C39.3479 12.259 38.6936 12.5595 38.2272 13.0446C36.1331 14.9726 33.341 16.1463 30.2702 16.1463C28.1385 16.1463 26.1352 15.5798 24.4105 14.5845C23.9691 14.3185 23.4495 14.162 22.8954 14.162C21.4336 14.162 20.2191 15.2324 19.9969 16.6315C19.9436 17.1448 19.9123 17.7238 19.9123 18.2496C19.9123 24.3028 23.5058 29.5203 28.6769 31.8803C22.98 34.9069 18.7385 39.5203 16.4409 44.6627C16.3001 44.957 16.1749 45.2668 16.0653 45.5923C15.0292 44.8412 13.7114 44.3904 12.2715 44.3904C8.94405 44.3904 6.24268 46.8005 6.24268 49.7739C6.24268 49.8959 6.24894 50.0149 6.25833 50.1369C6.26146 50.2433 6.26459 50.3529 6.27085 50.4593C6.41171 53.4139 7.09409 56.356 8.37748 59.1604C13.029 69.3325 24.1538 74.7191 35.6699 73.3983C24.4731 73.367 14.0307 66.3247 10.193 55.1541C10.1805 55.1197 10.168 55.0853 10.1554 55.0508C9.93007 54.3936 9.73287 53.73 9.56384 53.0665C9.25707 51.6987 9.41046 50.2653 10.1054 49.0008C11.1822 47.0383 13.2888 45.9554 15.5582 45.9554C15.6897 45.9554 15.818 45.9585 15.9495 45.9679C15.8274 46.3811 15.7335 46.8161 15.6709 47.2668C15.1732 50.7817 16.707 53.9084 19.0953 54.2465C19.809 54.3466 20.5165 54.187 21.1738 53.8208L17.2892 60.5282L16.876 61.2386C16.0465 62.669 17.1671 64.4437 18.8168 64.3091L25.4059 63.7707L35.2786 62.9663C36.5181 62.8631 37.6043 62.1056 38.1208 60.9757C39.4543 58.0712 41.3293 53.9648 42.6753 50.9789C42.7598 50.766 42.8005 50.5282 42.788 50.284C42.741 49.3826 41.9459 48.6565 41.0476 48.6878C40.9881 48.6909 40.9286 48.694 40.8723 48.7034C37.6544 49.3858 33.3222 50.3028 29.8664 51.0196C29.0088 51.198 28.2763 51.7457 27.8631 52.5156C26.9428 54.2308 25.9036 56.1557 24.9363 57.946C24.711 58.3685 25.0396 58.8725 25.5154 58.8349C27.7348 58.6596 30.6459 58.4311 32.8683 58.259C33.6916 58.1933 34.4115 57.6893 34.7527 56.9382C35.3693 55.5861 36.0048 54.1964 36.5933 52.9006C36.5933 52.8975 36.5933 52.8975 36.5933 52.8975L34.4365 53.367C33.9075 53.4828 33.463 53.8396 33.2377 54.3341C33.0718 54.7003 32.9027 55.0696 32.7306 55.4421C32.4989 55.9523 32.0231 56.3091 31.4691 56.3873L28.6456 56.7879C28.3827 56.8255 28.1918 56.5469 28.317 56.3153C28.7896 55.439 29.2654 54.5532 29.7256 53.6987C30.0449 53.1041 30.6114 52.6815 31.2719 52.5438C33.7729 52.0211 36.562 51.4327 39.0004 50.9163C39.4198 50.8255 39.7579 51.2512 39.5826 51.6393C38.559 53.9053 37.3195 56.6252 36.2521 58.957C35.9359 59.6455 35.2692 60.1088 34.5117 60.1588L22.2193 61.0039C21.5714 61.0477 21.1269 60.3591 21.4368 59.7864C23.0269 56.8505 25.0083 53.1761 26.3981 50.5657C26.7268 49.9523 27.309 49.5172 27.9883 49.3795C33.1219 48.3372 45.4706 45.8928 54.6859 43.7645C56.4263 43.3607 59.2247 42.3936 60.5238 41.0947L54.4136 42.1839C54.0192 38.6127 52.2381 35.6361 49.3896 34.3623Z" fill="white"/>
<path d="M11.971 30.2027C13.2388 30.2027 14.2624 31.2293 14.2624 32.4937C14.2624 33.7614 13.2388 34.788 11.971 34.788C10.7064 34.788 9.67972 33.7614 9.67972 32.4937C9.67972 31.2293 10.7064 30.2027 11.971 30.2027ZM11.971 36.9006C14.5441 36.9006 16.6257 34.8161 16.6257 32.2465C16.6257 29.6768 14.5441 27.5923 11.971 27.5923C9.40113 27.5923 7.31641 29.6768 7.31641 32.2465C7.31641 34.8161 9.40113 36.9006 11.971 36.9006Z" fill="white"/>
<path d="M29.7599 10.0274C30.0667 9.0759 30.5487 8.2058 31.1717 7.4515C31.7946 8.20267 32.2798 9.0759 32.5865 10.0274C32.6366 10.1776 32.6648 10.3404 32.6648 10.5063C32.6648 11.3294 31.998 11.9961 31.1748 11.9961C30.3515 11.9961 29.6817 11.3294 29.6817 10.5063C29.6817 10.3404 29.7098 10.1776 29.7599 10.0274ZM31.1748 13.6831C32.9152 13.6831 34.33 12.2684 34.33 10.5282C34.33 10.4718 34.3269 10.4186 34.3238 10.3654C34.1579 8.02426 32.9559 5.96793 31.1717 4.6565C29.4 5.96167 28.1979 8.00548 28.0227 10.3341C28.0195 10.3967 28.0195 10.4624 28.0195 10.5282C28.0195 12.2684 29.4313 13.6831 31.1748 13.6831Z" fill="white"/>
<path d="M50.8408 50.1275C49.2413 54.2684 46.1768 57.2449 42.9214 58.2559C47.0846 58.1025 51.3792 54.6627 53.4014 49.4264C53.9523 48.0023 54.2872 46.5626 54.4218 45.1604L51.83 45.9929C51.6985 47.3482 51.3761 48.7441 50.8408 50.1275Z" fill="white"/>
<path d="M100.721 38.6799C100.012 38.6799 99.4365 39.2545 99.4365 39.9637V54.436H89.9141V12.8717H99.4365V29.4201C99.4365 30.129 100.012 30.704 100.721 30.704H121.621C122.33 30.704 122.905 30.129 122.905 29.4201V12.8717H132.427V54.436H122.905V39.9637C122.905 39.2545 122.33 38.6799 121.621 38.6799H100.721Z" fill="#231F20"/>
<path d="M201.391 12.8721C204.277 8.97567 208.909 6.44954 214.13 6.44954H222.86C219.974 10.3456 215.343 12.8708 210.122 12.8708L201.391 12.8721Z" fill="#231F20"/>
<path d="M187.953 33.7554V12.8721H197.475V27.074L187.953 33.7554Z" fill="#231F20"/>
<path d="M216.807 16.5165C217.537 16.0655 218.335 15.6545 219.189 15.299C221.164 14.4768 223.14 14.0739 224.88 14.0627L226.039 14.0639C228.149 14.0639 229.973 15.7788 229.973 17.889V54.437H220.451V28.237H220.452C220.452 26.6514 219.167 25.3669 217.582 25.3669C216.919 25.3669 216.309 25.5916 215.823 25.9688L197.475 38.9563V54.437H187.953V45.5816C186.18 46.6514 184.303 47.596 182.377 48.3941L184.111 54.437H174.203L173.214 50.9876C171.694 51.216 170.198 51.3353 168.753 51.335C161.475 51.3347 154.929 48.3572 150.389 43.6129L150.389 43.6126L147.285 54.437H137.378L146.487 22.6749C148.202 17.0016 153.47 12.8708 159.704 12.8708H161.828C167.745 12.8708 172.793 16.5919 174.757 21.8223L179.727 39.1525V39.1528C177.069 40.8514 174.031 42.0063 170.768 42.4608L165.318 23.4611C164.834 21.3813 162.969 19.8323 160.742 19.8323C158.686 19.8323 156.938 21.1538 156.302 22.9941V22.9944L151.493 39.7622C156.118 42.2721 161.418 43.6977 167.05 43.6977C175.08 43.6977 182.433 40.8001 188.12 35.9929L197.642 29.4417L216.807 16.5165Z" fill="#231F20"/>
<path d="M268.454 24.1392C268.454 24.0954 268.454 24.0484 268.451 24.0046C268.304 31.2315 262.397 37.05 255.132 37.05L255.348 37.0594C251.385 37.0594 247.666 36.0202 244.445 34.1986V27.5789C244.445 23.8606 247.46 20.8465 251.179 20.8465H265.161C266.924 20.8465 268.36 22.23 268.451 23.9702C268.454 23.8888 268.454 23.8105 268.454 23.7292V24.1392ZM277.975 22.496C277.975 17.1908 273.674 12.8904 268.367 12.8904L247.554 12.8716C240.58 12.8716 234.923 18.5273 234.923 25.5007V54.4365H244.445V43.5508C246.921 44.5054 249.613 45.0281 252.428 45.0281H255.814C268.069 45.0281 278 35.0966 278 22.8434L277.975 22.496Z" fill="#231F20"/>
<path d="M91.1143 65.8611H95.937C95.7702 64.4958 94.7187 63.4188 92.8497 63.4188C91.9485 63.4188 91.1143 63.6313 90.5468 63.8435L90.0463 62.1293C90.7305 61.8564 91.8317 61.5531 93.05 61.5531C96.9885 61.5531 98.6738 64.0104 98.6738 66.847C98.6738 70.2908 96.1039 72.1108 92.7996 72.1108C91.6314 72.1108 90.4967 71.8683 89.9126 71.6257L90.3633 69.8507C90.9305 70.0633 91.7986 70.2148 92.5993 70.2148C94.5187 70.2148 95.7367 69.1528 95.9204 67.6664H91.1143V65.8611Z" fill="#231F20"/>
<path d="M107.418 61.72V65.6489H111.607V61.72H114.143V71.9441H111.607V67.6665H107.418V71.9441H104.881V61.72H107.418Z" fill="#231F20"/>
<path d="M123.054 63.6615H120.017V61.72H128.662V63.6615H125.591V71.9441H123.054V63.6615Z" fill="#231F20"/>
<path d="M141.211 67.6211H137.072V70.048H141.695V71.9441H134.536V61.72H141.461V63.6161H137.072V65.7397H141.211V67.6211Z" fill="#231F20"/>
<path d="M150.456 66.4984C150.673 66.5438 150.923 66.5588 151.307 66.5588C152.659 66.5588 153.493 65.9372 153.493 64.9056C153.493 63.9651 152.776 63.4039 151.491 63.4039C150.99 63.4039 150.64 63.4339 150.456 63.4796V66.4984ZM147.936 61.8565C148.72 61.735 149.822 61.6439 151.374 61.6439C152.943 61.6439 154.061 61.9172 154.812 62.4633C155.546 62.9788 156.013 63.8286 156.013 64.8295C156.013 65.8308 155.663 66.6956 154.978 67.2568C154.111 67.9851 152.826 68.3338 151.324 68.3338C150.99 68.3338 150.69 68.3187 150.456 68.273V71.9441H147.936V61.8565Z" fill="#231F20"/>
<path d="M164.474 63.6615H161.437V61.72H170.081V63.6615H167.01V71.9441H164.474V63.6615Z" fill="#231F20"/>
<path d="M180.16 67.5904L179.459 65.4214C179.259 64.8145 179.059 64.0561 178.892 63.4493H178.859C178.692 64.0561 178.525 64.8295 178.341 65.4214L177.674 67.5904H180.16ZM177.307 69.32L176.506 71.9441H173.886L177.307 61.72H180.644L184.149 71.9441H181.395L180.527 69.32H177.307Z" fill="#231F20"/>
<path d="M194.028 59.3838C194.061 59.9754 194.245 60.309 194.779 60.309C195.279 60.309 195.496 59.9754 195.546 59.3838H197.265C197.165 60.6734 196.214 61.2496 194.729 61.2496C193.277 61.2496 192.443 60.658 192.309 59.3838H194.028ZM192.476 61.72V64.7538C192.476 66.3923 192.426 68.0155 192.342 69.3804H192.392C192.993 68.1823 193.744 66.832 194.411 65.7397L196.831 61.72H199.435V71.9441H197.098V68.9253C197.098 67.3478 197.132 65.9522 197.282 64.6173H197.232C196.715 65.8308 195.98 67.181 195.313 68.258L193.027 71.9441H190.14V61.72H192.476Z" fill="#231F20"/>
<path d="M208.713 61.72V65.6489H212.902V61.72H215.438V71.9441H212.902V67.6665H208.713V71.9441H206.177V61.72H208.713Z" fill="#231F20"/>
<path d="M231.675 68.0305C231.626 66.8017 231.575 65.315 231.575 63.8286H231.542C231.175 65.1331 230.707 66.5895 230.274 67.7876L228.905 71.7773H226.92L225.718 67.8333C225.351 66.6195 224.984 65.1635 224.7 63.8286H224.666C224.616 65.2089 224.55 66.7867 224.483 68.0608L224.266 71.9441H221.913L222.631 61.72H226.018L227.12 65.1331C227.487 66.3162 227.82 67.5904 228.071 68.7888H228.138C228.438 67.6057 228.822 66.2555 229.206 65.1178L230.391 61.72H233.728L234.329 71.9441H231.859L231.675 68.0305Z" fill="#231F20"/>
<path d="M247.479 67.6211H243.34V70.048H247.963V71.9441H240.804V61.72H247.729V63.6161H243.34V65.7397H247.479V67.6211Z" fill="#231F20"/>
<path d="M256.757 61.72V65.6489H260.946V61.72H263.482V71.9441H260.946V67.6665H256.757V71.9441H254.221V61.72H256.757Z" fill="#231F20"/>
<path d="M272.394 63.6615H269.357V61.72H278V63.6615H274.929V71.9441H272.394V63.6615Z" fill="#231F20"/>
</svg>
