<svg width="170" height="198" viewBox="0 0 170 198" fill="none" xmlns="http://www.w3.org/2000/svg">
<path d="M89.7568 268.514C89.9944 270.089 90.5187 270.758 90.8053 272.654C90.8612 273.03 90.9171 273.49 90.8276 274.09C90.734 274.703 90.5201 275.191 90.3551 275.498C90.4082 276.306 90.4614 277.115 90.5145 277.923C90.5522 278.105 90.5788 278.397 90.4404 278.69C90.3299 278.913 90.0587 279.234 89.2366 279.429C83.3745 280.753 77.448 279.359 77.448 279.359C72.5896 278.216 71.4949 277.115 71.1873 276.181C70.9357 275.4 70.9287 274.592 70.9287 274.592C70.9189 273.393 71.3341 273.072 71.4222 271.72C71.4404 271.441 71.3998 270.884 71.3187 269.782C71.2418 268.765 71.1719 267.928 71.123 267.343C70.8364 267.524 68.4164 269.002 66.5835 267.97C66.3723 267.859 66.1459 267.691 65.925 267.454C65.437 268.625 64.3926 270.675 62.2857 272.501C60.2557 274.243 58.2439 274.912 57.0918 275.275C55.0912 275.902 52.8584 275.888 48.4754 275.818C44.3315 275.749 41.0334 275.484 40.5832 274.271C40.3008 273.504 40.5245 272.849 40.5245 272.849C40.6685 272.417 40.9411 272.124 41.1131 271.971C40.9453 271.623 39.9723 269.518 40.9481 267.594C41.8387 265.837 43.9917 264.945 45.2724 264.889C45.5143 264.889 46.2385 264.889 47.1878 264.652C47.6897 264.541 48.0895 264.388 48.3496 264.276C48.8389 263.649 49.5743 262.534 49.9909 260.972C50.3628 259.578 50.3349 258.393 50.258 257.641C46.5726 256.999 42.0065 255.87 37.0083 253.821C31.0497 251.368 26.401 248.398 23.0596 245.889C21.8321 245.582 18.7605 244.634 17.5889 242.014C17.094 240.912 17.1135 239.895 17.1778 238.696C17.4994 232.744 18.2726 229.746 18.2726 229.746C18.7661 227.837 20.3487 221.41 20.7346 215.611C21.0072 211.513 20.6311 208.488 20.111 204.32C19.2135 197.099 17.8671 194.896 17.9985 189.474C18.081 186.058 18.6892 183.27 19.1841 181.472C19.6664 180.928 20.399 180.092 21.2812 179.06C24.7555 175.018 26.5255 173.01 27.3909 171.421C29.3929 167.755 28.5695 167.058 30.3996 164.744C31.4565 163.406 32.6952 162.43 35.6424 160.785C38.2848 159.321 42.0638 157.453 46.9487 155.78C47.3919 155.042 48.0588 153.954 48.9088 152.644C50.3405 150.469 51.0409 149.354 51.4981 148.936C53.879 146.747 59.3372 148.796 62.0844 150.009C64.6974 145.925 67.3118 141.826 69.9262 137.742C63.6195 132.723 57.3127 127.705 51.006 122.701C47.6645 123.314 43.0802 123.802 37.6934 123.286C30.5631 122.589 24.9959 120.414 21.463 118.7C20.3026 118.783 18.3788 118.756 16.3124 117.877C13.7553 116.79 12.3139 114.964 10.5677 112.733C9.63377 111.549 8.38527 109.764 7.24023 107.38C6.80124 106.391 5.7387 103.617 6.6922 100.466C7.01236 99.4067 7.48212 98.5564 7.92392 97.9151C6.58455 96.786 6.45313 94.8901 7.39824 93.8028C8.12524 92.9525 9.42686 92.6737 10.6138 93.1198C9.71487 92.7016 8.61178 92.0882 7.46814 91.196C6.02951 90.0668 5.02985 88.868 4.36716 87.948C3.72264 87.5158 3.05018 87.0279 2.36093 86.4843C1.55423 85.857 0.824436 85.2296 0.167336 84.6302C0.130985 84.5605 -0.109488 84.1702 0.0596801 83.8078C0.200887 83.5011 0.550398 83.4174 0.712576 83.3756C1.85202 83.0829 3.64435 85.0345 3.84288 85.2575C4.85369 85.5921 6.06165 86.0939 7.35069 86.8328C8.94451 87.7668 10.165 88.7704 11.0458 89.6208C11.0752 89.105 11.2192 88.1431 11.935 87.4879C13.1108 86.4145 15.4428 86.5261 17.361 88.1292C17.4743 87.9758 17.663 87.7667 17.9482 87.6413C18.5564 87.3764 19.2778 87.6134 20.3697 88.2407C21.6671 88.9796 22.4095 89.6626 22.7953 89.9414C25.6656 92.1021 29.8179 88.631 32.9301 90.736C33.3649 91.0287 33.9912 91.5863 34.5029 92.6458C36.7357 91.0845 39.1362 90.973 40.2742 92.0743C40.5021 92.2973 40.8936 92.7712 41.0222 93.6913C41.9953 93.1337 43.1865 92.5482 44.5915 92.0464C46.9585 91.2239 49.0878 90.9451 50.6872 90.8754C50.8773 90.2202 51.231 89.2444 51.9105 88.1849C53.8678 85.1599 56.3382 84.9787 61.3546 82.2325C65.4999 79.9743 68.3548 78.4129 70.5176 75.374C71.0615 74.6073 71.8836 73.3109 73.4354 71.5544C74.3973 70.4671 75.485 69.2404 77.083 68.0973C79.0376 66.7033 80.7782 66.1317 82.6447 65.5044C85.2912 64.6402 86.1426 64.7656 90.2363 63.6086C91.4819 63.2601 92.49 62.9395 93.1303 62.7304C92.2048 61.657 91.2163 60.3327 90.3048 58.7435C88.272 55.1748 87.4975 51.7735 87.1815 49.4176C86.8879 49.1527 86.5146 48.7484 86.2098 48.1908C85.5834 47.0199 85.6436 45.9047 85.6995 45.4168C84.6411 45.5562 74.0884 46.769 70.6785 41.0117C70.0857 40.008 69.7557 38.8789 69.6522 37.2897C69.0888 28.6748 76.0974 20.1573 78.6545 17.2718C78.6531 17.0487 78.6755 16.742 78.7775 16.3935C78.9034 15.9613 79.0991 15.6407 79.2473 15.4316C79.1663 15.4316 78.9999 15.4177 78.8349 15.3062C78.5357 15.111 78.4979 14.7625 78.4938 14.7068C78.4155 14.7068 78.1847 14.6928 77.968 14.5255C77.7863 14.3861 77.7108 14.2049 77.6828 14.1352C77.4004 14.2189 76.8132 14.3582 76.2148 14.1073C75.239 13.6891 74.8811 12.5182 74.937 11.6818C74.9664 11.2635 75.0978 10.929 75.1984 10.7339C74.8251 10.7199 74.6322 10.5666 74.5567 10.4969C74.1541 10.1344 74.1303 9.3259 74.6197 8.5592C74.9776 8.15494 75.5354 8.01553 75.9968 8.19675C76.5309 8.4198 76.6762 8.97739 76.6916 9.03314C76.872 8.89374 77.2131 8.65677 77.6954 8.5592C77.7695 8.54526 79.0041 8.32224 79.7548 9.20047C80.1141 9.61865 80.1966 10.0926 80.219 10.3435C80.3476 10.3575 80.5574 10.4132 80.7503 10.5666C81.248 10.9708 81.1655 11.6678 81.1585 11.7236C81.2522 11.6957 81.4954 11.6539 81.7373 11.7794C82.0532 11.9467 82.2392 12.323 82.2015 12.7273C82.523 12.6855 82.8446 12.6297 83.1661 12.5739C83.7967 11.9187 92.7892 2.71829 102 5.12991C102.976 5.39478 105.537 6.0918 107.81 8.3501C111.663 12.1697 111.582 17.3693 111.538 18.5124C112.938 19.4464 115.121 21.1889 116.871 24.0327C119.704 28.6329 119.602 33.2192 119.47 34.9757C119.623 35.0732 119.859 35.2266 120.123 35.4496C122.359 37.3594 122.485 40.5796 122.547 42.1688C122.601 43.521 122.433 44.3852 122.24 45.375C122.053 46.3368 121.854 46.8944 121.454 47.4241C121.123 47.8563 120.755 48.1351 120.496 48.3024C120.758 49.1806 121.021 50.0588 121.282 50.9231C121.795 51.0764 122.308 51.2298 122.822 51.3692C123.635 49.9752 124.921 47.7727 126.821 44.5943C128.327 42.0572 129.481 40.1753 131.785 38.614C132.207 38.3352 132.572 38.1261 132.816 37.9867C132.323 37.6382 131.829 37.2897 131.334 36.9412C131.845 35.4496 132.828 33.2889 134.764 31.2397C135.512 30.459 136.267 29.8318 136.96 29.3439C136.602 29.3299 129.201 29.1766 128.397 26.6953C127.997 25.4685 128.491 24.7297 128.491 24.7297C128.871 24.1721 129.553 24.0188 129.759 23.963C131.67 23.5727 132.822 25.6637 135.78 26.6813C136.605 26.9741 137.665 27.211 138.976 27.1971C138.972 26.9322 139.003 26.528 139.194 26.1237C139.757 24.9109 141.132 24.7715 143.393 23.963C145.318 23.266 147.35 22.5271 148.854 20.7986C149.462 20.1155 149.833 19.4324 150.052 18.9724C149.835 18.5124 149.497 17.8712 148.988 17.1881C148.632 16.7002 147.594 15.2922 147.103 15.4874C146.888 15.585 146.862 15.9474 146.821 16.505C146.73 17.7318 147.11 18.0106 146.962 19.0143C146.877 19.5858 146.684 19.9482 146.448 20.3804C146.291 20.6731 146.17 20.8264 145.971 20.938C145.599 21.1192 145.121 21.0216 145.096 20.8962C145.075 20.7986 145.366 20.7428 145.482 20.478C145.543 20.3246 145.515 20.1852 145.457 19.9064C145.382 19.5719 145.305 19.2094 145.004 18.9306C144.904 18.847 144.776 18.7355 144.619 18.7494C144.408 18.7773 144.284 19.0282 144.221 19.1676C144.039 19.544 144.078 19.8506 144.065 20.241C144.049 20.8404 144.03 21.4398 143.706 21.7326C143.608 21.8162 143.277 22.0532 142.437 21.8023C142.307 21.8441 141.606 22.0392 140.908 21.6489C140.008 21.1331 139.933 20.1016 139.928 20.0319C139.613 19.3906 139.463 18.8191 139.389 18.373C139.014 16.1565 140.126 14.8741 140.201 12.1139C140.222 11.3333 140.236 10.8315 140.035 10.1763C139.828 9.50714 139.587 9.31195 139.596 8.75436C139.604 8.14099 139.906 7.68097 140.156 7.3046C140.51 6.76093 140.936 6.38452 141.296 6.14752C141.243 5.67355 141.19 5.19965 141.136 4.73962C140.944 4.53052 140.306 3.79172 140.225 2.64862C140.14 1.43582 140.724 0.585449 140.886 0.376343C141.273 0.627258 141.715 0.975769 142.163 1.42184C142.48 1.72855 142.743 2.03522 142.961 2.32797C143.712 2.09097 144.338 2.00732 144.784 1.97946C145.638 1.92371 146.125 2.04913 146.539 1.68671C146.807 1.46365 146.76 1.26849 147.087 0.850281C147.414 0.418152 147.803 0.167297 148.089 0C148.523 0.613373 148.956 1.21274 149.388 1.82611C150.176 1.95157 155.298 2.8298 158.369 7.63913C161.111 11.9327 160.292 16.3377 160.103 17.2299C160.493 17.6481 160.982 18.2754 161.196 19.1397C161.852 21.7883 159.384 24.2697 158.462 25.1897C156.392 27.2668 153.962 27.9917 152.626 28.2844C155.997 29.5669 159.63 30.7658 163.521 31.7834C164.381 32.0064 165.232 32.2155 166.074 32.4107C166.222 32.7592 166.498 33.5398 166.324 34.4878C166.134 35.5333 165.417 36.7042 164.388 37.0109C163.428 37.2897 162.675 36.6903 161.014 35.7842C160.813 35.6726 158.996 34.892 155.361 33.3307C154.113 32.787 152.267 32.0343 149.936 31.2397C149.282 31.1142 148.629 30.9888 147.976 30.8773C147.541 31.421 146.903 32.2992 146.288 33.4562C145.11 35.7006 145.114 36.8994 144.121 38.7534C143.654 39.6177 142.856 40.8445 141.457 42.0991C140.966 42.2385 140.205 42.4894 139.336 42.9215C136.96 44.0925 134.887 46.0441 130.719 53.279C129.781 54.91 128.566 57.0985 127.232 59.7611C131.375 61.183 137.208 63.525 143.713 67.3306C148.04 69.8677 151.105 71.652 154.649 74.9697C156.861 77.0468 165.512 85.132 166.99 95.7823C167.167 97.0648 167.204 98.0963 167.647 101.358C168.483 107.478 169.094 109.221 169.494 112.329C169.978 116.093 170.587 120.847 168.81 126.241C167.517 130.172 165.348 132.724 161.014 137.826C159.049 140.154 157.652 141.45 155.544 141.994C153.077 142.621 150.853 141.882 149.662 141.38C147.702 158.68 145.742 175.98 143.782 193.293C144.815 204.961 146.14 217.075 147.815 229.607C149.5 242.209 151.414 254.309 153.491 265.879C151.85 265.837 150.209 265.796 148.569 265.754C148.704 265.377 148.841 265.015 148.978 264.652C146.859 253.5 144.738 242.334 142.618 231.182C142.368 226.61 142.116 222.038 141.866 217.465C137.869 218.539 133.873 219.612 129.876 220.672C129.724 237.121 129.573 253.57 129.42 270.019C129.602 270.284 129.785 270.535 129.967 270.786C129.646 271.093 128.309 272.264 126.32 272.25C125.159 272.236 124.28 271.818 123.831 271.567C124.213 255.285 124.594 239.003 124.976 222.721C122.445 222.623 119.915 222.526 117.384 222.428C114.907 229.133 111.258 237.274 105.828 245.959C100.379 254.657 94.6276 261.53 89.6658 266.702C89.6295 267.51 89.698 268.137 89.7568 268.514Z" fill="white"/>
<path d="M74.7989 8.532C74.4955 8.85262 74.392 9.75874 74.6507 10.0794C75.565 10.8042 76.9603 9.49388 76.0208 8.61565C75.6517 8.23927 74.9317 8.2811 74.5584 8.769C74.8044 8.2114 75.6531 7.96047 76.1927 8.40655C76.7674 8.81081 76.7813 9.73084 76.2892 10.2048C75.7901 10.6788 74.9778 10.7624 74.4466 10.2606C74.1194 9.74477 74.3795 8.86656 74.7989 8.532Z" fill="#06090C"/>
<path d="M75.5909 10.5112C74.6122 12.0307 75.8538 14.6793 77.8097 13.7732C77.4672 14.0938 76.9373 14.2332 76.4452 14.1217C74.9129 13.7314 74.4976 11.5846 75.5909 10.5112Z" fill="#06090C"/>
<path d="M76.6318 9.28434C77.5084 8.01579 80.3005 8.62919 79.9062 10.3717C79.7189 8.83829 77.7349 8.58733 76.6318 9.28434Z" fill="#06090C"/>
<path d="M79.9687 10.3707C80.1351 11.7508 79.0208 12.8381 78.0352 13.6327C78.6713 12.4896 79.643 11.6811 79.9687 10.3707Z" fill="#06090C"/>
<path d="M77.8014 13.9826C77.8392 14.6657 78.6375 14.3729 78.9772 14.0941C79.7448 13.6062 81.9174 10.7485 80.0524 10.5533C80.3082 10.4557 80.6354 10.5534 80.8269 10.7903C81.3666 11.571 80.6983 12.491 80.3166 13.1602C79.8441 13.8153 79.1786 14.5263 78.2978 14.5681C77.9916 14.5681 77.698 14.2614 77.8014 13.9826Z" fill="#06090C"/>
<path d="M78.7336 14.5266C78.9545 14.9587 78.9461 15.0982 79.469 15.1957C79.0468 15.7394 78.3072 15.0145 78.7336 14.5266Z" fill="#06090C"/>
<path d="M80.9466 11.9464C81.345 11.6397 81.9434 11.9325 82.0063 12.4343C82.0986 13.3544 81.5478 14.1769 80.8459 14.7066C80.4922 14.9575 80.0741 15.1248 79.6533 15.1805C80.4139 14.8181 81.0416 14.2744 81.4093 13.5635C81.7994 12.9919 82.0203 11.6955 80.9466 11.9464Z" fill="#06090C"/>
<path d="M79.437 15.2361C78.6764 16.2398 78.8414 17.5502 79.3475 18.5957C80.3947 20.7285 82.1618 22.5825 82.6484 24.9941C82.9378 26.1791 82.9756 27.4197 82.7043 28.6046C82.977 26.193 82.187 23.8371 80.9176 21.8437C79.7739 19.9896 77.6405 17.341 79.437 15.2361Z" fill="#06090C"/>
<path d="M82.8837 28.2856C82.2909 31.464 81.4465 34.6423 82.1819 37.8346C80.9641 34.7538 81.8351 31.2967 82.8837 28.2856Z" fill="#06090C"/>
<path d="M79.6584 15.2369C79.5339 18.4291 82.4923 20.3668 83.696 23.0851C84.9445 25.7198 85.7009 28.9958 88.5809 30.3201C85.5625 29.2606 84.6229 25.8313 83.3814 23.2385C82.2322 20.5898 79.2319 18.4152 79.6584 15.2369Z" fill="#06090C"/>
<path d="M80.9886 14.555C81.1746 17.9425 84.6432 19.3504 86.6201 21.6366C88.453 23.9088 90.4201 27.4635 88.7144 30.2794C90.1307 27.4217 88.1594 24.09 86.3573 21.8736C84.4489 19.6432 80.8614 17.9564 80.9886 14.555Z" fill="#06090C"/>
<path d="M81.9199 12.9229C85.1607 12.3931 87.8185 14.9023 90.117 16.8121C87.4886 15.2787 85.1565 12.895 81.9199 12.9229Z" fill="#06090C"/>
<path d="M81.4688 14.1223C88.2998 15.0423 87.0891 23.2531 95.6328 21.7336C87.0793 23.8525 88.0551 15.5163 81.4688 14.1223Z" fill="#06090C"/>
<path d="M93.8975 19.0154C94.8538 19.5311 95.5528 20.5069 95.7136 21.5803C95.1012 20.6882 94.5392 19.8936 93.8975 19.0154Z" fill="#06090C"/>
<path d="M95.0508 17.5784C99.1066 16.0311 104.569 16.059 107.385 19.8507C104.2 16.4493 99.273 16.5329 95.0508 17.5784Z" fill="#06090C"/>
<path d="M94.9451 17.6069C93.4394 18.276 91.317 18.2202 90.1748 16.8959C91.6148 17.802 93.2856 17.7881 94.9451 17.6069Z" fill="#06090C"/>
<path d="M90.4697 17.0351C91.1478 17.3976 91.7728 17.8018 92.4425 18.1364C93.0227 18.4849 93.9622 18.8334 94.2977 19.4607C93.0283 18.6382 91.4414 18.2897 90.4697 17.0351Z" fill="#06090C"/>
<path d="M83.4014 12.6301C88.5086 7.36077 97.7737 2.42598 104.833 6.63589C97.5248 2.91389 88.921 7.6814 83.4014 12.6301Z" fill="#06090C"/>
<path d="M78.8696 17.2451C74.372 22.5702 70.3328 28.676 69.9232 35.8273C69.8785 28.6481 74.0406 22.2496 78.8696 17.2451Z" fill="#06090C"/>
<path d="M86.415 13.8577C90.819 8.76953 99.3138 6.06513 105.27 9.99623C99.1195 6.56697 91.1769 9.1738 86.415 13.8577Z" fill="#06090C"/>
<path d="M105.257 10.009C106.837 10.8314 107.966 12.5321 108.096 14.3025C107.48 12.6436 106.543 11.2218 105.257 10.009Z" fill="#06090C"/>
<path d="M104.693 6.5383C107.53 8.28081 108.144 11.9749 108.216 15.0417C107.635 11.9889 107.2 8.67113 104.693 6.5383Z" fill="#06090C"/>
<path d="M80.1221 20.4501C76.125 25.8171 70.1523 34.5296 75.0316 40.9281C69.6909 34.7387 75.7447 25.5104 80.1221 20.4501Z" fill="#06090C"/>
<path d="M108.394 15.7956C107.019 30.5163 91.4837 37.3191 78.8926 40.7344C82.1375 39.6331 85.3853 38.5458 88.545 37.2354C97.8241 33.4855 107.191 26.3761 108.394 15.7956Z" fill="#06090C"/>
<path d="M105.773 24.0743C102.407 29.1903 96.7137 32.048 91.4541 34.8639C86.0589 37.5264 80.4358 40.0218 74.4395 40.9139C80.3701 39.7569 85.9485 37.3034 91.2948 34.5573C96.6033 31.825 102.187 29.0091 105.773 24.0743Z" fill="#06090C"/>
<path d="M78.9473 40.7065C76.351 41.9054 72.9243 41.7381 70.6846 39.8701C73.2025 41.292 76.1735 41.4314 78.9473 40.7065Z" fill="#06090C"/>
<path d="M69.922 35.7003C70.21 37.1361 70.1708 38.5302 70.5931 39.9381C69.7276 38.7253 69.7305 37.1222 69.922 35.7003Z" fill="#06090C"/>
<path d="M105.49 33.136C109.826 27.4066 112.581 20.3808 110.255 13.2714C113.05 20.2275 110.186 27.7412 105.49 33.136Z" fill="#06090C"/>
<path d="M104.848 6.5946C107.48 7.82133 109.547 10.3166 110.261 13.1185C109.078 10.4839 107.227 8.25347 104.848 6.5946Z" fill="#06090C"/>
<path d="M70.2295 39.5904C72.2777 43.5076 77.027 44.6367 81.1318 44.7203C82.548 44.79 83.9628 44.8737 85.3805 44.9852C83.9587 45.0131 82.5354 45.0131 81.1122 44.9852C76.9836 45.0549 71.9477 43.7585 70.2295 39.5904Z" fill="#06090C"/>
<path d="M85.6504 44.9714C89.7957 43.9399 93.9047 42.6016 97.4195 40.1621C98.7603 39.2142 102.162 36.4819 103.475 35.4225C98.6036 40.3573 92.6534 44.1072 85.6504 44.9714Z" fill="#06090C"/>
<path d="M103.011 35.8684C103.659 34.6696 104.732 33.7913 105.582 32.7876C105.132 34.0283 103.999 35.0041 103.011 35.8684Z" fill="#06090C"/>
<path d="M100.04 46.1982C100.606 45.5709 101.877 45.6126 102.649 45.4593C103.521 45.3338 104.436 45.0272 104.898 44.3163L105.184 44.5114C104.633 45.2502 103.95 46.0866 102.972 46.24C102.006 46.4212 101.1 46.1424 100.177 46.1145C101.098 46.0169 102.052 46.1982 102.913 45.9751C103.788 45.7799 104.377 45.0411 104.904 44.3023L105.191 44.4974C104.605 45.3478 103.588 45.6406 102.684 45.7242C101.912 45.8357 100.671 45.6684 100.04 46.1982Z" fill="#06090C"/>
<path d="M100.565 45.989C101.688 45.6963 102.763 45.6405 103.904 45.4314C102.937 46.0866 101.691 46.1702 100.565 45.989Z" fill="#06090C"/>
<path d="M101.794 45.9323C102.181 45.5838 102.595 45.4723 103.103 45.5838C102.75 45.9184 102.269 46.0438 101.794 45.9323Z" fill="#06090C"/>
<path d="M96.7446 43.4929C96.5097 43.4511 96.5028 43.0886 96.6803 42.9492C96.8453 42.7959 97.034 42.7122 97.2088 42.6007L98.2909 41.9873C99.6121 41.3182 101.36 40.2309 102.78 39.8127C103.602 39.5757 104.489 39.6036 105.274 39.8824C104.456 39.729 103.62 39.7988 102.86 40.0636C101.547 40.5655 99.7211 41.6389 98.4139 42.2244L97.2856 42.7541C96.9892 42.8656 96.2805 43.1444 96.7446 43.4929Z" fill="#06090C"/>
<path d="M96.6484 43.6467C97.4174 43.7303 98.0787 43.1031 98.7428 42.7825C100.669 41.6533 102.758 40.0641 105.064 39.8829C102.395 40.5659 100.338 42.5176 97.7976 43.4934C97.4439 43.6328 97.0259 43.8 96.6484 43.6467Z" fill="#06090C"/>
<path d="M86.5406 47.3971C87.5137 45.6407 89.8708 45.9613 91.5793 45.8219C91.8058 45.8079 92.2601 45.8219 92.4027 46.2401C92.4656 46.4631 92.3189 46.6722 92.1777 46.7559C91.308 47.1601 90.2945 46.9929 89.3773 46.965C88.3623 46.9232 87.2746 46.9231 86.4092 47.5504C87.8548 46.24 89.9547 46.951 91.6827 46.5886C91.9232 46.5467 92.1147 46.4074 92.0644 46.3237C92.0015 46.0449 91.2619 46.1843 90.8005 46.1704C89.3773 46.2261 87.4521 46.0449 86.5406 47.3971Z" fill="#06090C"/>
<path d="M92.2031 46.7272C94.3883 47.1733 95.4425 49.5849 95.4942 51.6202C95.5879 53.0978 95.0189 54.8682 96.1905 55.9834C96.5652 56.304 97.0797 56.4574 97.5914 56.5271C97.0769 56.5132 96.5358 56.4295 96.0842 56.1089C94.7378 55.0495 95.2509 53.0699 95.1461 51.6341C95.1041 49.6546 94.2304 47.4242 92.2031 46.7272Z" fill="#06090C"/>
<path d="M97.7871 56.5545C98.4652 56.4429 99.0454 56.0666 99.3935 55.509C99.6451 55.0908 100.344 54.4495 100.867 54.9653C101.018 55.1326 101.094 55.4532 100.836 55.6623L100.727 55.3556C101.245 55.3556 101.73 54.9235 101.842 54.4077C101.945 53.8919 101.665 53.2646 101.123 52.9997C102.608 53.4319 102.295 55.6065 100.741 55.7041L99.7346 55.7738L100.632 55.3975C100.664 55.3835 100.671 55.2581 100.607 55.1884C100.263 54.9235 99.8563 55.3835 99.6102 55.6902C99.202 56.2339 98.4792 56.5963 97.7871 56.5545Z" fill="#06090C"/>
<path d="M98.8721 56.4714C99.381 56.6386 99.5068 57.7399 99.4397 58.2139C98.9671 57.6423 99.0608 57.0429 98.8721 56.4714Z" fill="#06090C"/>
<path d="M95.1656 54.8693C95.0579 55.399 95.1264 55.9148 95.4075 56.2773C95.6955 56.6537 96.333 56.5003 96.7762 56.6258C96.2379 56.7652 95.578 57.0022 95.1334 56.4864C94.7769 55.9845 94.7881 55.2875 95.1656 54.8693Z" fill="#06090C"/>
<path d="M97.6775 61.0858C97.8859 60.7512 98.0648 60.4027 98.2997 60.0682C98.5416 59.6778 99.0617 59.9427 99.4252 59.7894C100.869 59.2457 102.438 58.7299 104.036 58.7578C104.613 58.7021 105.206 58.6462 105.759 58.4929C105.928 58.465 105.94 58.3257 105.922 58.3257L106.181 58.2838C105.547 59.5942 103.982 60.11 102.642 59.9009C101.353 59.9845 100.425 61.5737 98.9666 61.1137C98.5248 61.0022 98.1585 61.1555 97.7335 61.3367C97.356 61.5458 96.6066 61.3925 96.6654 60.8209L96.6723 60.7652C96.9058 61.03 97.2386 61.2113 97.6007 61.2531C97.4105 61.3088 96.5549 60.9185 96.7297 60.8349C96.6905 61.044 96.8821 61.2113 97.0764 61.267C97.7223 61.4064 98.2913 60.6815 98.996 60.9324C99.8698 61.1276 100.654 60.6536 101.349 60.1239C102.031 59.4548 103.105 59.7057 103.934 59.5803C104.844 59.3851 105.612 58.7439 106.014 57.9214L106.151 58.0886C106.427 58.4511 106.056 58.7717 105.852 58.7996C104.495 59.1342 103.064 58.953 101.712 59.2318C100.77 59.399 99.8726 60.0681 98.845 59.9706C98.2116 59.859 98.0424 60.7094 97.6775 61.0858Z" fill="#06090C"/>
<path d="M99.4862 58.1306C99.7309 58.6464 99.7672 59.2179 99.6526 59.7616H99.5114L99.5883 59.5664L99.6526 59.7616H99.5114C99.3338 59.2179 99.3044 58.7022 99.4862 58.1306Z" fill="#06090C"/>
<path d="M97.8887 61.5741C99.3049 62.9124 101.391 62.8148 102.99 61.8529C103.439 61.6856 103.958 61.2814 104.432 61.6857C104.844 62.2015 104.369 62.8845 103.856 62.9542C103.348 63.0657 102.892 62.996 102.428 63.01C101.964 63.01 101.472 62.9263 101.244 63.2191C100.377 64.627 100.802 66.9829 102.351 67.889C104.007 68.8369 105.999 68.0005 107.52 67.1223C105.195 68.9206 101.445 69.3108 100.611 65.8119C100.312 64.4597 100.471 62.2572 102.437 62.6893C103.094 62.7172 104.634 62.8845 104.239 61.8669C104.004 61.6159 103.484 61.9087 103.087 62.062C101.478 63.0239 99.2141 63.0378 97.8887 61.5741Z" fill="#06090C"/>
<path d="M107.031 67.3313C108.071 66.704 109.25 66.2579 110.454 66.0627C109.381 66.7179 108.267 67.1222 107.031 67.3313Z" fill="#06090C"/>
<path d="M105.791 33.0809C106.175 32.9694 106.415 33.4155 106.458 33.7361C106.54 34.224 106.251 34.7677 106.573 35.1859C106.775 35.395 107.692 35.5344 107.983 35.618C109.316 35.9108 110.746 36.1756 111.906 37.0678C113.511 38.5315 114.121 40.5528 115.555 42.1002C116.369 43.1039 116.245 41.891 116.274 41.2776C116.238 41.6819 116.584 42.7693 115.854 42.5462C114.048 41.2358 113.325 38.7406 111.69 37.3326C110.641 36.4962 109.248 36.2314 107.922 35.8829C107.56 35.7574 106.683 35.6041 106.423 35.3113C106.052 34.8374 106.41 34.2379 106.374 33.75C106.354 33.4433 106.175 32.9973 105.791 33.0809Z" fill="#06090C"/>
<path d="M116.244 41.4031C115.818 39.2703 115.696 35.0603 118.762 35.0882C122.322 36.4683 122.681 41.3474 122.148 44.5954C121.944 45.5851 121.81 46.6306 121.185 47.5089C120.623 48.3592 119.024 48.5823 118.582 47.5228C118.787 47.9968 119.352 48.1919 119.836 48.1501C121.489 47.9131 121.656 45.8918 121.918 44.5535C122.351 41.4449 121.972 36.761 118.718 35.3531C115.903 35.2973 116.014 39.4097 116.244 41.4031Z" fill="#06090C"/>
<path d="M120.024 48.3859C121.052 49.5987 121.053 51.3971 121.192 52.9026C120.568 51.4389 120.64 49.8357 120.024 48.3859Z" fill="#06090C"/>
<path d="M88.7695 50.199C88.8912 49.3904 89.9537 49.6414 90.5018 49.4462C91.2526 49.2371 91.9459 48.7631 92.61 48.3171C92.4954 48.8189 92.3766 49.3626 91.9851 49.739C91.1001 50.6311 89.86 49.7529 88.8506 49.9481C89.5245 49.6693 90.2753 49.9341 90.9212 49.8784C91.6202 49.8505 92.0383 49.3068 92.1683 48.6656L92.4297 48.8608C91.602 49.4044 90.5661 49.8784 89.5357 49.739C89.2295 49.725 88.8576 49.8505 88.7695 50.199Z" fill="#06090C"/>
<path d="M90.5342 49.7531C90.8767 49.3628 91.2527 49.1676 91.7714 49.1258L91.819 49.2095L91.7086 49.2234L91.7742 49.1258L91.8204 49.2095C91.4946 49.558 91.0165 49.7671 90.5342 49.7531Z" fill="#06090C"/>
<path d="M91.0166 49.6978C91.2137 49.3493 91.4347 49.2238 91.7954 49.1959L91.7828 49.2935C91.7967 49.2795 91.7828 49.2377 91.7436 49.2238C91.7716 49.1959 91.8317 49.182 91.8904 49.2099L91.9282 49.2377C91.7422 49.5444 91.4011 49.7535 91.0166 49.6978Z" fill="#06090C"/>
<path d="M88.8584 50.101C88.8989 49.7246 89.4022 49.5712 89.6427 49.8779C89.3267 50.0731 89.2331 50.101 88.8584 50.101Z" fill="#06090C"/>
<path d="M87.0526 49.1799C86.5493 48.0368 85.4365 46.2246 86.0978 45.0397C85.944 46.4616 86.9771 47.7441 87.0526 49.1799Z" fill="#06090C"/>
<path d="M117.538 41.1799C117.413 40.9011 117.266 40.5804 117.394 40.2598C117.529 39.9392 117.859 39.7858 118.086 39.6046C118.651 39.2282 118.339 38.5731 118.164 37.9736C117.889 37.1791 118.663 36.4402 119.447 36.8863C120.07 37.2627 120.359 37.9318 120.423 38.6009C120.566 39.2282 119.987 39.8973 120.112 40.3852C120.386 40.901 120.985 41.5423 120.535 42.1975C120.201 42.8108 119.564 43.0897 119.133 43.4939C118.677 43.8424 118.453 44.6788 119.024 45.0552C118.405 44.7485 118.543 43.8006 119.011 43.3824C119.459 42.9084 120.051 42.6157 120.296 42.072C120.641 41.4168 120.075 41.0823 119.812 40.4829C119.603 39.7719 120.222 39.3258 120.075 38.6288C120.04 38.0572 119.762 37.4439 119.295 37.1651C118.74 36.8445 118.262 37.3185 118.427 37.9179C118.474 38.2106 118.604 38.5173 118.625 38.8518C118.755 39.6882 117.801 39.7859 117.471 40.2877C117.332 40.5665 117.436 40.9011 117.538 41.1799Z" fill="#06090C"/>
<path d="M107.861 30.4038C111.759 30.4874 116.208 31.6027 118.52 34.9901C115.815 31.9372 111.749 30.9893 107.861 30.4038Z" fill="#06090C"/>
<path d="M111.519 18.9731C117.265 22.3048 119.096 29.0797 119.18 35.3109C118.524 28.9682 117.042 22.8485 111.519 18.9731Z" fill="#06090C"/>
<path d="M87.2197 49.056C88.3004 53.3774 89.5434 57.88 92.6485 61.1978C94.912 63.6512 97.6411 65.7701 100.448 67.5823C101.403 68.1539 102.508 68.5581 103.644 68.4327C102.516 68.6139 101.364 68.2654 100.366 67.7357C97.4803 65.9513 94.7443 63.9021 92.3885 61.4347C89.3281 58.0055 88.0362 53.461 87.2197 49.056Z" fill="#06090C"/>
<path d="M87.3507 49.3351C86.5007 48.0944 86.0085 46.6028 85.9609 45.0973C86.4782 46.5192 86.9257 47.8853 87.3507 49.3351Z" fill="#06090C"/>
<path d="M121.63 52.9865C119.855 57.1406 117.1 60.8487 113.814 63.9713C110.525 66.8848 106.297 69.617 105.573 74.2312L105.741 73.5481L105.607 74.2312C105.854 69.5613 110.441 66.6477 113.58 63.7203C116.926 60.7093 119.596 57.0012 121.63 52.9865Z" fill="#06090C"/>
<path d="M99.458 67.1356C101.347 69.4497 103.046 71.8892 104.546 74.4681C102.655 72.1541 100.961 69.7146 99.458 67.1356Z" fill="#06090C"/>
<path d="M97.0234 65.3247C97.3268 67.4157 98.2776 69.1303 99.9371 70.4547C101.394 71.8905 102.873 73.2984 104.527 74.5112C102.708 73.5354 101.174 72.1135 99.6938 70.7055C98.051 69.3673 97.0388 67.4714 97.0234 65.3247Z" fill="#06090C"/>
<path d="M123.05 52.6249C122.429 52.0394 121.818 51.7188 121.042 51.3563C121.881 51.203 122.857 51.7606 123.05 52.6249Z" fill="#06090C"/>
<path d="M106.485 73.9536C107.76 68.6564 113.2 66.1192 117.425 63.4427C113.441 66.5514 108.222 68.8376 106.485 73.9536Z" fill="#06090C"/>
<path d="M98.1835 69.2826C97.8801 69.2548 97.553 69.659 97.6145 69.5056C99.0993 72.0427 101.705 73.5762 103.607 75.8345C101.424 73.9247 98.7288 72.3076 97.5264 69.5614C97.4873 69.422 98.0311 69.2408 98.1835 69.2826Z" fill="#06090C"/>
<path d="M105.875 74.2034C105.175 74.315 104.625 74.8029 104.271 75.3744C103.895 75.9459 103.579 76.5872 103.075 77.103C101.727 78.2182 99.8772 77.6745 98.317 77.6885C95.1643 77.1727 92.034 76.3781 88.8184 76.5733C92.0242 76.0854 95.2411 76.8521 98.3742 77.3539C99.7597 77.34 101.64 77.8836 102.919 76.9078C103.358 76.5035 103.74 75.8344 104.147 75.2907C104.551 74.7192 105.17 74.2592 105.875 74.2034Z" fill="#06090C"/>
<path d="M87.8984 79.836C93.3132 79.8638 99.2425 82.0106 104.323 79.4457C104.722 79.2645 104.891 78.916 104.867 78.4838L104.95 75.9049C104.922 76.4346 105.17 78.6929 104.934 79.1529C103.238 80.8675 100.442 81.0069 98.1562 81.0209C94.7057 80.8257 91.314 80.296 87.8984 79.836Z" fill="#06090C"/>
<path d="M113.817 70.9287C111.495 72.3925 108.898 73.3543 106.271 74.1071C108.401 73.0476 111.591 71.8488 113.817 70.9287Z" fill="#06090C"/>
<path d="M105.192 75.891L104.987 76.0722L104.966 76.0304C107.034 75.0127 110.261 74.3157 112.496 73.7023C110.377 74.7339 107.118 75.4588 104.836 76.114C104.91 76.0722 105.116 75.9328 105.192 75.891Z" fill="#06090C"/>
<path d="M87.3086 75.1646C86.2586 75.7362 86.8961 77.3393 87.9922 76.9629C88.4285 76.8095 88.7165 76.3077 88.5711 75.8477C88.4536 75.4016 87.9237 75.0253 87.3841 75.1228C87.893 74.8998 88.6018 75.1647 88.8255 75.7501C89.0758 76.3496 88.7039 77.0605 88.1167 77.2835C86.6585 77.7715 85.8685 75.6386 87.3086 75.1646Z" fill="#06090C"/>
<path d="M87.0964 77.2841C86.663 80.8945 84.8455 84.2541 84.7267 87.9203C84.7406 88.1294 84.8818 88.3106 84.9126 88.2549C85.0691 88.1573 85.2244 87.2791 85.3222 87.0282C85.8954 85.0069 86.7441 82.0097 87.3215 79.9884C87.6025 79.0544 87.9171 78.1205 87.9898 77.1447C87.6472 80.4485 86.3708 83.8638 85.6312 87.1118L85.4452 87.8228C85.3474 88.0319 85.4327 88.3386 85.0398 88.5755C82.8462 88.7707 87.0782 78.8314 87.0964 77.2841Z" fill="#06090C"/>
<path d="M85.2218 75.3756C85.0457 74.8459 84.2711 74.9992 83.9496 75.2919C83.1135 76.0447 84.0866 77.3272 85.0401 76.7278C85.4203 76.4769 85.5993 75.8635 85.335 75.3895C85.7125 75.7938 85.6888 76.5466 85.2008 76.9508C83.9369 77.8709 82.5487 76.0447 83.786 75.0828C84.2082 74.7622 85.1422 74.7343 85.2218 75.3756Z" fill="#06090C"/>
<path d="M84.2309 77.2852C83.2634 80.5193 81.7939 83.614 81.4249 87.0153C81.3102 87.4893 81.355 88.0051 81.7171 87.8657C82.0722 87.7821 82.1183 87.2384 82.1994 86.7645C82.4413 85.3704 82.6846 83.837 83.1361 82.4988C83.7122 80.6169 84.9956 79.0416 85.1843 77.0761C85.1312 79.0695 83.8981 80.7423 83.3571 82.5685C82.9404 83.8928 82.7265 85.4401 82.5168 86.8202C82.4301 87.322 82.4301 88.0051 81.8205 88.2003C80.4085 88.3954 81.327 86.2766 81.3857 85.5238C81.8988 82.6382 83.2466 80.0175 84.2309 77.2852Z" fill="#06090C"/>
<path d="M84.0059 77.4521C83.8843 78.4697 83.5599 79.3619 82.9951 80.2123C83.1028 79.2365 83.4565 78.2746 84.0059 77.4521Z" fill="#06090C"/>
<path d="M85.3496 76.9365C85.7313 76.6159 86.2919 76.6299 86.661 76.9505C86.1829 77.0899 85.8236 77.0899 85.3496 76.9365Z" fill="#06090C"/>
<path d="M103.791 75.8473C104.252 76.391 104.844 76.0007 104.749 75.4152C104.704 74.7322 104.82 74.7042 105.014 75.3734C105.374 76.2795 103.976 76.8928 103.791 75.8473Z" fill="#06090C"/>
<path d="M85.7646 75.5278C87.8296 72.8095 89.5828 69.8681 90.8607 66.7177L91.185 66.8432C90.1491 69.8403 88.8615 72.7538 87.2425 75.4721C88.6182 72.6283 89.8611 69.7148 90.8579 66.7316L91.1809 66.8571C89.8681 70.0075 88.0645 72.9907 85.7646 75.5278Z" fill="#06090C"/>
<path d="M88.8779 75.3057C90.5584 72.211 92.0837 69.0884 93.4972 65.8683C92.5339 69.2418 90.9541 72.4758 88.8779 75.3057Z" fill="#06090C"/>
<path d="M81.3248 88.0312C79.9673 94.36 77.6968 100.522 74.6182 106.209C77.2717 100.299 79.5073 94.2485 81.3248 88.0312Z" fill="#06090C"/>
<path d="M85.8457 79.5575C83.5906 89.441 80.0548 99.0597 75.3643 108.051C79.6634 98.8645 83.1669 89.3434 85.8457 79.5575Z" fill="#06090C"/>
<path d="M85.9414 79.4302C86.1301 79.1932 86.3427 79.1932 86.5314 79.4302C86.3427 79.6672 86.1301 79.6672 85.9414 79.4302Z" fill="#06090C"/>
<path d="M74.6287 106.112C74.5406 107.032 74.7266 107.785 75.2229 108.566C74.3435 108.175 74.0275 106.865 74.6287 106.112Z" fill="#06090C"/>
<path d="M74.572 106.085C74.3721 101.275 74.0225 96.466 73.3249 91.7125C73.0858 90.1233 72.9614 88.4923 72.1575 87.1262H72.4078C70.7063 90.4997 72.2876 94.3611 73.9471 97.4557C73.0299 95.8805 72.1323 94.2495 71.7143 92.4373C71.2669 90.5693 71.3298 88.5063 72.2679 86.7637L72.4036 86.9868C73.262 88.4226 73.4395 90.0815 73.6604 91.6567C74.2644 96.4382 74.6363 101.261 74.572 106.085Z" fill="#06090C"/>
<path d="M75.2269 108.007C76.2489 117.138 71.3863 125.781 72.1595 134.912C70.9445 125.781 75.8099 117.124 75.2269 108.007Z" fill="#06090C"/>
<path d="M51.0664 91.2108C51.332 86.4572 56.9845 85.0633 60.3707 82.9304C64.1637 80.8394 67.8365 78.4138 70.8102 75.2773C72.3355 73.73 73.5141 71.9038 74.9667 70.2589C79.5539 65.4217 86.8393 64.7804 93.0314 63.4003C90.8965 63.8186 88.7756 64.3065 86.6785 64.892C82.5891 66.049 78.0411 67.0805 75.1848 70.454C73.7714 72.085 72.5984 73.939 71.0633 75.5143C68.0224 78.6647 64.3035 81.0624 60.4825 83.1395C57.0838 85.2724 51.4691 86.4991 51.0664 91.2108Z" fill="#06090C"/>
<path d="M93.0107 63.3434C93.1687 63.0506 93.4036 62.8555 93.6608 62.7021C93.858 62.9949 93.988 63.0227 93.2149 63.1621C93.686 62.5488 93.6539 62.6742 93.8468 62.967C93.6091 63.1621 93.3491 63.3016 93.0107 63.3434Z" fill="#06090C"/>
<path d="M56.2455 88.5903C56.1168 88.423 55.8778 88.4787 55.7422 88.6042C53.6828 92.5353 55.4905 97.4004 56.6118 101.415C57.0704 102.893 57.5079 104.37 57.9287 105.862C56.1182 100.551 53.1711 94.6403 55.3269 89.0085C55.4779 88.7158 55.9435 88.2279 56.2455 88.5903Z" fill="#06090C"/>
<path d="M51.7483 94.7084C53.5616 101.888 55.4979 109.373 54.3557 116.803C54.1725 117.654 53.3393 118.644 52.39 118.142C50.9052 117.013 51.6895 114.866 51.7497 113.305C52.1621 110.015 53.0247 106.781 54.3026 103.714C53.1533 106.822 52.376 110.056 51.9803 113.332C51.9398 114.754 51.245 116.887 52.5242 117.877C53.3113 118.267 53.8845 117.417 54.0467 116.72C55.147 109.346 53.2945 101.915 51.7483 94.7084Z" fill="#06090C"/>
<path d="M41.166 93.9979C44.2614 92.2694 47.7901 91.2378 51.3343 91.0426C47.8419 91.7117 44.4725 92.6876 41.166 93.9979Z" fill="#06090C"/>
<path d="M53.3721 120.416C56.5038 116.554 59.3698 115.118 64.3652 115.871C66.4288 116.108 68.5329 115.857 70.3057 114.714C72.0757 113.641 73.5423 112.121 74.9963 110.63C73.6429 112.219 72.2323 113.794 70.4274 114.909C66.7937 117.641 62.0976 114.965 58.2291 116.596C56.3374 117.432 54.8401 118.952 53.3721 120.416Z" fill="#06090C"/>
<path d="M34.1113 93.2173C35.5178 92.7294 37.3018 91.5863 38.8411 91.6839C39.7932 91.7536 40.2224 92.7294 40.5747 93.4543C42.4425 97.1066 45.3673 100.145 48.9031 102.278C45.1884 100.438 42.1154 97.3157 40.2909 93.5937C39.5303 91.4608 38.2539 91.7257 36.4615 92.4227L34.1113 93.2173Z" fill="#06090C"/>
<path d="M100.804 68.7665C102.925 70.8575 106.157 69.5751 108.1 67.8744C108.823 67.3168 109.56 66.7731 110.311 66.2434C109.641 66.8707 108.957 67.498 108.26 68.0974C106.396 69.9654 102.705 71.2339 100.804 68.7665Z" fill="#06090C"/>
<path d="M3.05677 86.2056C2.34374 86.0243 -0.483189 84.5746 0.505259 83.6964C0.893927 83.4315 1.32175 83.6545 1.56502 83.8078C2.3829 84.2957 3.12806 84.9091 3.75021 85.6201C3.0274 85.0625 2.19414 84.5327 1.40562 84.0866C1.13998 83.9333 0.874345 83.8358 0.706575 83.9752C0.52762 84.0727 0.628298 84.2818 0.863177 84.5048C1.5035 85.1879 2.23469 85.7455 3.05677 86.2056Z" fill="#06090C"/>
<path d="M3.92805 87.1667C3.3744 87.2225 2.98713 86.4139 3.39816 85.9121C3.8134 85.4242 4.55997 85.4939 4.96681 85.8981L5.05351 85.9818C4.79906 86.4558 4.42855 86.8739 3.98535 87.1527C4.28315 86.7624 4.52642 86.3582 4.72775 85.94L4.7585 86.1212C4.44533 85.8563 3.90286 85.8284 3.63024 86.1072C3.37578 86.3582 3.42473 87.0273 3.92805 87.1667Z" fill="#06090C"/>
<path d="M4.16797 87.2095C6.9935 89.0217 9.75894 90.8757 12.5062 92.7994C9.51567 91.28 6.70969 89.398 4.16797 87.2095Z" fill="#06090C"/>
<path d="M4.96875 86.0384C5.6622 85.9547 6.24241 86.4427 6.78486 86.7633C8.28082 87.767 9.62438 88.9658 11.1581 89.9138C11.2238 89.9695 11.4377 90.0531 11.4559 90.1367C11.4685 90.2065 11.3496 90.1925 11.379 90.1507C11.3874 90.2343 11.5174 90.1368 11.3496 90.081C10.1836 89.6628 9.15324 88.924 8.17039 88.1991L6.6283 86.9863C6.10122 86.61 5.63843 86.0941 4.96875 86.0384Z" fill="#06090C"/>
<path d="M4.24219 87.2934C6.30576 89.5098 8.6098 91.3918 11.1921 92.981C8.3973 91.8239 5.92409 89.8026 4.24219 87.2934Z" fill="#06090C"/>
<path d="M11.7687 88.0603C12.0008 89.287 10.8753 90.7507 11.7505 91.8381C12.6159 92.6745 14.5033 91.9496 14.9074 90.8344C14.8081 91.5314 14.2083 92.0611 13.5582 92.312C11.8134 93.0508 10.6642 91.6848 11.243 89.9841C11.4374 89.3289 11.7547 88.7294 11.7687 88.0603Z" fill="#06090C"/>
<path d="M11.8916 88.1444C12.4061 86.6249 14.0978 87.1128 15.2233 87.5171C16.3962 87.9074 17.5902 88.3396 18.6178 89.0645C17.4588 88.6044 16.3012 88.2001 15.1156 87.8377C14.0139 87.4474 12.6326 86.8619 11.8916 88.1444Z" fill="#06090C"/>
<path d="M11.5462 90.6248C11.7252 90.3041 12.0397 90.0393 12.4172 89.9139C12.8171 89.8163 13.1652 89.8023 13.0534 89.5654C12.8087 88.8962 11.8762 89.2029 11.5225 89.7048C11.6469 89.3702 11.9083 89.0217 12.3236 88.9102C13.0044 88.6592 13.9537 89.7326 13.0352 90.0951C12.462 90.1926 12.0006 90.2066 11.5462 90.6248Z" fill="#06090C"/>
<path d="M14.9212 90.9187C14.7507 90.4587 14.815 90.0126 15.11 89.6223C15.2819 90.0823 15.2148 90.5284 14.9212 90.9187Z" fill="#06090C"/>
<path d="M14.0557 91.9636C14.5296 92.0055 14.8917 92.2424 15.1056 92.6606C14.6303 92.6328 14.271 92.3958 14.0557 91.9636Z" fill="#06090C"/>
<path d="M14.1436 91.9634C14.549 91.9355 14.8552 92.1168 15.0216 92.4792C14.6147 92.521 14.3113 92.3398 14.1436 91.9634Z" fill="#06090C"/>
<path d="M7.72016 97.0242C6.86174 96.0344 7.27279 94.3198 8.5031 93.818C9.51252 93.344 11.0602 93.2882 12.1423 93.0651C13.8885 92.9815 16.0654 91.9639 17.5893 93.2464C18.0325 93.7204 18.1835 94.4174 17.9905 95.0029C18.1289 94.4034 17.9067 93.7622 17.4705 93.3718C15.9507 92.2845 13.9123 93.3161 12.1954 93.4136C10.9945 93.6227 9.71525 93.6506 8.61636 94.0688C7.4881 94.4592 7.00294 95.9926 7.72016 97.0242Z" fill="#06090C"/>
<path d="M7.67188 96.9403C8.17519 97.1633 8.50932 97.4421 8.8141 97.8882C8.27025 97.8464 7.81308 97.47 7.67188 96.9403Z" fill="#06090C"/>
<path d="M8.26953 100.245C8.29609 99.6313 8.32685 99.004 8.61765 98.4324C8.90846 97.833 9.57812 97.5403 10.1388 97.3591L13.6438 96.2439C15.2376 95.9929 17.701 94.2365 18.8293 96.1463C19.1117 96.7317 18.9537 97.4566 18.5133 97.8888C18.9132 97.4287 18.9761 96.7178 18.6783 96.2299C17.5822 94.571 15.2502 96.3414 13.7458 96.5784L10.2269 97.61C8.8763 97.8191 8.35062 99.004 8.26953 100.245Z" fill="#06090C"/>
<path d="M8.2534 100.159C8.37783 101.163 9.12302 101.93 9.8724 102.515C10.1478 102.752 10.2513 103.143 10.3491 103.435C10.6315 104.634 11.4816 106.014 12.8978 105.749C11.4662 106.335 10.2918 104.774 10.015 103.533C9.92134 103.226 9.85562 102.92 9.62913 102.71C8.85879 102.125 8.1807 101.177 8.2534 100.159Z" fill="#06090C"/>
<path d="M18.2617 98.0971C19.1746 97.5674 20.4245 98.2086 20.5559 99.268C20.7139 100.341 19.8261 101.15 19.0977 101.763C17.5948 102.962 15.9283 103.994 14.1191 104.649C15.8024 103.729 17.4172 102.711 18.8754 101.485C19.5996 100.927 20.3644 100.216 20.2903 99.3099C20.2386 98.4038 19.1858 97.7068 18.2617 98.0971Z" fill="#06090C"/>
<path d="M12.9102 105.721C13.0667 106.32 13.577 106.739 14.1251 106.92C17.1729 107.533 19.5637 104.578 21.2623 102.459C21.5867 101.985 21.7684 101.386 21.5713 100.842C21.4217 100.298 20.6793 99.9358 20.162 100.312C20.6388 99.88 21.4874 100.159 21.7307 100.772C22.2857 102.668 20.204 104.104 19.1135 105.372C17.6371 106.864 13.8329 108.579 12.9102 105.721Z" fill="#06090C"/>
<path d="M11.2354 101.944C13.4122 100.299 15.856 99.0022 18.4397 98.1101C16.0462 99.4344 13.6666 100.703 11.2354 101.944Z" fill="#06090C"/>
<path d="M18.4219 89.0219C18.9881 89.231 19.3684 89.7747 19.5893 90.3184C20.2282 91.9772 20.3722 93.8452 19.8899 95.5459C19.8675 93.4549 20.0451 90.5414 18.4219 89.0219Z" fill="#06090C"/>
<path d="M8.3075 101.303C7.70213 104.37 9.01912 107.799 11.8307 109.304C15.3692 111.256 17.7236 109.458 18.6393 105.833C17.9962 109.709 15.3566 111.605 11.6601 109.597C8.76467 108.036 7.40713 104.398 8.3075 101.303Z" fill="#06090C"/>
<path d="M8.42838 97.6088C5.25332 103.728 7.21066 109.514 14.4849 110.42C13.0253 110.28 11.5447 110.002 10.2067 109.332C5.74684 107.2 5.96635 101.191 8.42838 97.6088Z" fill="#06090C"/>
<path d="M14.3867 110.307C17.7407 110.879 19.1668 107.227 19.8672 104.578C19.7344 107.338 17.7659 111.451 14.3867 110.307Z" fill="#06090C"/>
<path d="M17.3994 88.2966C17.6692 87.9063 18.2732 88.0456 18.5934 88.3244C21.1393 90.2063 21.4203 93.8308 20.7031 96.6606C20.8149 94.96 20.8862 93.2453 20.4011 91.6283C20.0684 90.4294 19.4308 89.2864 18.4885 88.4499C18.2173 88.1711 17.7238 87.962 17.3994 88.2966Z" fill="#06090C"/>
<path d="M17.6816 88.1984C17.876 87.836 18.3527 87.7663 18.7316 87.8221C20.6735 88.1845 22.0073 89.9967 23.7717 90.6519C26.7357 91.1398 30.1973 89.3555 32.9753 91.0422C33.6171 91.5022 34.1176 92.2271 34.1232 93.0217C34.0574 92.2271 33.5192 91.5719 32.8803 91.1816C29.4298 89.2579 24.6679 92.8963 21.6732 89.6761C20.77 88.993 19.8151 88.2403 18.7162 87.9057C18.3569 87.822 17.9039 87.8499 17.6816 88.1984Z" fill="#06090C"/>
<path d="M7.39453 106.335C8.55774 110.001 11.1847 112.914 13.9194 115.521C16.5967 118.393 20.9336 118.588 24.4624 117.305C20.9797 118.881 16.4485 118.63 13.6789 115.772C11.0072 113.096 8.2949 110.112 7.39453 106.335Z" fill="#06090C"/>
<path d="M32.0635 104.453C33.4462 100.452 35.0973 96.1864 33.7496 91.9486C35.5783 96.047 33.8936 100.661 32.0635 104.453Z" fill="#06090C"/>
<path d="M24.6982 117.195C27.1826 114.031 29.1623 110.574 30.9924 107.005C29.6055 110.755 27.5364 114.352 24.6982 117.195Z" fill="#06090C"/>
<path d="M24.6998 117.223C24.6481 116.944 24.7753 116.819 25.0521 116.874C25.1052 117.153 24.9752 117.279 24.6998 117.223Z" fill="#06090C"/>
<path d="M21.5234 118.31C25.9596 121.029 31.2471 121.433 36.2774 122.2C41.2588 122.952 46.6135 124.123 51.3893 121.907C46.7169 124.388 41.2043 123.203 36.2257 122.534C31.2234 121.67 25.8198 121.266 21.5234 118.31Z" fill="#06090C"/>
<path d="M142.007 5.73055C141.538 6.19057 141.108 6.69244 140.725 7.22216C140.369 7.75189 139.847 8.30948 140.061 8.88102C140.3 9.43862 140.632 10.0938 140.692 10.7629C141.149 13.997 138.498 17.3566 140.416 20.3816C138.186 17.5239 140.735 13.9553 140.377 10.8048C140.325 10.1496 140.044 9.61984 139.804 8.95072C139.607 7.62641 141.169 6.58089 142.007 5.73055Z" fill="#06090C"/>
<path d="M142.031 18.4847C142.286 15.2088 142.006 8.2667 147.224 9.88375H147.148C147.442 9.80011 147.734 9.68859 147.914 9.46555C148.444 8.64308 147.576 7.66725 147.069 6.99812C147.67 7.63937 148.689 8.64307 148.089 9.59099C147.854 9.88374 147.491 10.1068 147.147 10.1486C142.228 8.79641 142.695 15.3761 142.031 18.4847Z" fill="#06090C"/>
<path d="M145.79 10.5396C144.125 12.7979 143.464 15.5998 143.85 18.36C142.958 15.6974 143.728 12.4773 145.79 10.5396Z" fill="#06090C"/>
<path d="M140.088 20.1015C140.37 21.2306 141.387 21.5095 142.433 21.5373C141.465 22.1089 139.789 21.3561 140.088 20.1015Z" fill="#06090C"/>
<path d="M149.405 5.98069C148.529 5.38127 146.71 5.72975 147.089 7.06799C146.907 6.83101 146.784 6.48255 146.91 6.13405C147.31 5.18612 148.873 5.14429 149.405 5.98069Z" fill="#06090C"/>
<path d="M146.073 20.5347C146.56 20.1025 146.68 19.4473 146.648 18.834C146.402 16.966 146.256 14.9587 147.269 13.244C148.4 11.153 150.705 9.07589 149.777 6.49697C151.008 8.97831 148.671 11.3621 147.576 13.4113C146.974 14.4847 146.69 15.7253 146.723 16.952C146.742 18.123 147.162 19.6983 146.073 20.5347Z" fill="#06090C"/>
<path d="M145.923 10.4269C146.313 9.68806 146.643 9.0886 147.054 8.37766C147.121 9.20013 146.657 10.0366 145.923 10.4269Z" fill="#06090C"/>
<path d="M18.2451 94.9609C38.9662 109.668 59.5432 126.689 80.8501 140.517C58.9588 126.8 39.0207 110.253 18.2451 94.9609Z" fill="#06090C"/>
<path d="M85.3809 148.268C86.9593 149.034 88.4077 149.982 89.7261 151.139C88.1519 150.387 86.6965 149.425 85.3809 148.268Z" fill="#06090C"/>
<path d="M19.623 99.0723C40.3119 111.869 59.3469 129.225 78.8586 143.708C59.0519 129.545 40.1092 112.26 19.623 99.0723Z" fill="#06090C"/>
<path d="M88.0469 145.855C89.1192 147.194 90.425 148.922 90.3523 150.706C90.2642 150.846 90.1901 150.86 90.0308 150.874C90.3327 150.86 90.2963 150.539 90.225 150.344C90.0363 149.675 89.684 149.034 89.3611 148.42L88.0469 145.855Z" fill="#06090C"/>
<path d="M86.084 146.233C87.4807 147.25 88.6299 148.658 89.2828 150.261C88.2133 148.895 87.1563 147.599 86.084 146.233Z" fill="#06090C"/>
<path d="M20.8535 98.7942C41.9479 111.089 59.087 129.114 80.0639 141.646C58.8437 129.476 41.7228 111.452 20.8535 98.7942Z" fill="#06090C"/>
<path d="M89.355 150.233C89.7003 150.275 89.7842 150.735 89.4724 150.888C89.2865 150.61 89.2809 150.568 89.355 150.233Z" fill="#06090C"/>
<path d="M89.4456 150.232C89.6846 150.399 89.6944 150.58 89.4665 150.761C89.2247 150.608 89.2191 150.413 89.4456 150.232Z" fill="#06090C"/>
<path d="M85.876 147.166C86.8057 147.472 87.6138 147.974 88.2933 148.685C87.3663 148.378 86.5527 147.877 85.876 147.166Z" fill="#06090C"/>
<path d="M69.835 135.33C73.182 137.644 76.3612 140.125 79.4175 142.802C76.0858 140.502 72.8758 138.006 69.835 135.33Z" fill="#06090C"/>
<path d="M19.6504 97.8459C20.6444 98.2223 21.5183 98.7938 22.2522 99.5605C21.2568 99.1842 20.3844 98.6126 19.6504 97.8459Z" fill="#06090C"/>
<path d="M18.8721 97.3152C19.6284 97.594 20.252 98.068 20.7217 98.7231C19.964 98.4443 19.3418 97.9704 18.8721 97.3152Z" fill="#06090C"/>
<path d="M141.44 6.02246C140.785 3.94539 143.101 1.63135 145.18 2.27259C143.142 2.21683 141.369 3.98721 141.44 6.02246Z" fill="#06090C"/>
<path d="M141.495 5.42265C143.061 5.29719 144.697 5.99416 145.715 7.193L145.656 7.17912C145.796 7.16518 145.94 7.09548 146.036 6.97002C145.975 7.12336 145.833 7.24881 145.66 7.30457C144.426 6.35664 143.037 5.74328 141.495 5.42265Z" fill="#06090C"/>
<path d="M145.167 2.27259C145.352 1.97985 145.736 2.00772 145.873 2.32834C145.563 2.46774 145.449 2.45381 145.167 2.27259Z" fill="#06090C"/>
<path d="M146.1 2.13319C145.605 3.3878 145.594 4.79578 146.122 5.99462C146.613 7.22135 147.878 8.1274 148.106 9.49353C147.607 8.21104 146.381 7.45833 145.801 6.13402C145.267 4.8376 145.334 3.29022 146.1 2.13319Z" fill="#06090C"/>
<path d="M147.175 8.36438C146.941 8.16922 146.94 7.94612 147.175 7.75096C147.41 7.94612 147.408 8.16922 147.175 8.36438Z" fill="#06090C"/>
<path d="M147.051 8.54626C146.75 8.2814 146.729 7.86321 147.008 7.58441C147.203 7.91897 147.213 8.18382 147.051 8.54626Z" fill="#06090C"/>
<path d="M149.036 2.84485C149.365 2.41271 150.005 2.2454 150.492 2.53814C149.973 2.7333 149.598 2.83091 149.036 2.84485Z" fill="#06090C"/>
<path d="M146.872 6.63708C146.254 5.99584 146.619 4.85275 147.302 4.40667C147.031 5.20126 146.746 5.81462 146.872 6.63708Z" fill="#06090C"/>
<path d="M146 2.10533C147.588 1.4362 149.425 1.91022 150.93 2.57935C149.249 2.3563 147.679 1.91017 146 2.10533Z" fill="#06090C"/>
<path d="M149.974 6.97069C150.775 6.49673 151.674 7.22158 152.226 7.77919C154.07 9.56352 155.389 11.9473 155.682 14.5262C156.497 22.2908 147.779 25.1625 143.099 29.5118C140.609 31.7979 138.491 34.6139 137.513 37.8898C138.359 34.572 140.436 31.6586 142.941 29.3445C147.512 24.8976 156.109 22.1793 155.453 14.5541C155.196 12.0309 153.904 9.66108 152.166 7.83493C151.635 7.26339 150.786 6.53855 149.974 6.97069Z" fill="#06090C"/>
<path d="M127.218 100.369C120.852 96.7446 111.235 90.3182 103.748 93.2177C102.477 93.7196 101.111 95.6154 102.602 96.6052C103.252 96.9537 104.065 96.8003 104.83 96.7864C106.404 96.7585 107.96 97.4834 108.934 98.6823C107.916 97.5252 106.355 96.87 104.836 96.9676C101.238 97.6228 100.657 94.542 103.625 92.9947C111.136 89.8581 120.996 96.4519 127.218 100.369Z" fill="#06090C"/>
<path d="M109.26 98.3617C109.065 98.8775 108.511 99.1424 108.009 99.3097C106.452 99.7836 104.813 99.937 103.19 99.8394C101.617 99.923 100.005 98.9193 98.4994 99.3375C95.9605 101.205 101.337 103.464 102.924 103.631C105.026 104.035 107.194 103.966 109.343 103.924C107.202 104.105 105.026 104.244 102.881 103.854C100.943 103.408 98.0855 102.697 97.5193 100.509C97.4214 99.9091 97.8003 99.2539 98.3735 99.0448C99.9981 98.5709 101.561 99.6581 103.205 99.6163C104.803 99.7278 106.425 99.5885 107.985 99.226C108.487 99.0866 109.037 98.8636 109.26 98.3617Z" fill="#06090C"/>
<path d="M102.222 104.036C101.438 104.245 100.632 104.399 99.8159 104.469C99.0372 104.58 98.0683 104.301 97.5832 104.859C97.1065 105.486 97.435 106.35 98.039 106.783C101.547 109.111 106.169 106.267 109.815 108.288C106.001 106.573 101.445 109.543 97.8419 107.033C97.1372 106.518 96.7444 105.416 97.3791 104.692C97.6951 104.329 98.1927 104.273 98.5926 104.287C99.8131 104.343 101.022 104.287 102.222 104.036Z" fill="#06090C"/>
<path d="M104.642 112.525C106.379 112.441 108.049 112.218 109.789 112.218C108.128 112.678 106.344 112.901 104.642 112.525Z" fill="#06090C"/>
<path d="M109.708 108.538C107.34 109.96 104.516 109.584 101.924 109.319C100.885 109.263 100.015 110.448 100.916 111.228C101.281 111.591 101.767 111.828 102.252 112.037C101.748 111.884 101.236 111.702 100.801 111.354C99.6686 110.448 100.657 108.97 101.9 108.998C104.533 109.179 107.175 109.667 109.708 108.538Z" fill="#06090C"/>
<path d="M114.046 112.846C117.872 113.487 121.977 111.117 125.563 112.985C121.847 111.591 117.861 113.975 114.046 112.846Z" fill="#06090C"/>
<path d="M109.626 112.149C111.018 112.121 112.38 112.344 113.699 112.79C112.306 112.804 110.944 112.595 109.626 112.149Z" fill="#06090C"/>
<path d="M125.541 113.306C124.596 115.118 123.009 116.651 121.097 117.418C122.773 116.219 124.193 114.853 125.541 113.306Z" fill="#06090C"/>
<path d="M125.784 99.2962C131.277 99.8677 128.017 110.128 125.836 112.86C127.522 109.974 130.872 100.174 125.784 99.2962Z" fill="#06090C"/>
<path d="M115.389 113.236C114.82 113.919 114.646 114.923 114.613 115.773C114.627 116.637 115.426 117.278 116.269 117.446C118.027 117.752 119.917 117.487 121.691 117.223C120.815 117.501 119.907 117.697 118.987 117.808C117.324 118.017 114.441 118.087 114.346 115.773C114.432 114.853 114.702 113.877 115.389 113.236Z" fill="#06090C"/>
<path d="M151.165 2.71978C159.893 4.78291 162.401 15.5725 157.526 22.4589C156.086 24.7451 154.129 26.6967 151.83 28.1046C154.052 26.5851 155.92 24.5917 157.329 22.3334C161.96 15.5028 159.608 5.07565 151.165 2.71978Z" fill="#06090C"/>
<path d="M159.03 20.8266C158.974 21.1333 158.619 21.3981 158.219 21.2727C157.818 21.1193 157.848 20.3945 158.293 20.4502C158.157 20.5339 158.184 20.6733 158.206 20.7569C158.339 21.1194 158.662 20.98 159.03 20.8266Z" fill="#06090C"/>
<path d="M159.336 17.5364C160.728 17.9128 161.113 19.6554 160.857 20.91C159.818 24.8829 155.389 26.9181 151.812 28.1169C153.044 27.6151 154.231 27.0435 155.361 26.3605C157.497 25.0222 159.966 23.447 160.594 20.8541C160.879 19.6553 160.636 18.0243 159.336 17.5364Z" fill="#06090C"/>
<path d="M146.729 15.0282C148.677 15.1955 149.794 17.2307 150.246 18.9175C149.304 17.398 148.524 15.6834 146.729 15.0282Z" fill="#06090C"/>
<path d="M149.523 9.75904C151.661 13.4532 151.848 18.6249 148.684 21.8311C146.301 24.2706 142.661 24.0476 139.941 25.7901C139.503 26.055 139.159 26.5428 139.344 27.0586C139.513 27.5605 139.946 27.9229 140.364 28.2435C139.929 27.9508 139.474 27.6163 139.263 27.0865C138.81 25.3998 141.639 24.8004 142.787 24.3125C144.813 23.6712 146.977 23.1415 148.437 21.5802C151.594 18.4994 151.369 13.495 149.523 9.75904Z" fill="#06090C"/>
<path d="M139.411 26.8913C140.405 27.0446 141.32 27.407 142.133 28.0065C141.139 27.8531 140.226 27.4767 139.411 26.8913Z" fill="#06090C"/>
<path d="M150.533 18.8762C151.19 18.9598 151.498 19.6847 151.597 20.2702C151.786 23.6716 147.792 25.0377 145.331 26.4317C144.21 26.9614 142.955 27.1427 141.992 27.9373C142.877 27.0451 144.156 26.7523 145.216 26.1947C147.53 24.731 151.407 23.5043 151.429 20.2842C151.383 19.7266 151.168 19.0156 150.533 18.8762Z" fill="#06090C"/>
<path d="M147.247 23.6146C146.786 23.991 146.267 24.2418 145.746 24.4788L145.81 24.214C146.102 24.6182 146.386 25.0225 146.589 25.4825C146.123 25.134 145.765 24.688 145.4 24.2558C145.997 23.991 146.585 23.7261 147.247 23.6146Z" fill="#06090C"/>
<path d="M146.743 23.3494C147.365 23.3912 147.986 23.433 148.603 23.5166L148.48 23.5585C149.332 22.4433 149.963 21.1608 150.359 19.8225C150.455 19.4043 150.543 18.8606 150.142 18.554C150.602 18.777 150.659 19.4044 150.577 19.8644C150.322 21.3281 149.615 22.6942 148.631 23.7815C147.997 23.656 147.37 23.5167 146.743 23.3494Z" fill="#06090C"/>
<path d="M138.576 29.6094C139.544 28.5778 141.002 28.0063 142.414 28.0899C141.058 28.4802 139.833 28.9681 138.576 29.6094Z" fill="#06090C"/>
<path d="M139.256 27.7967C136.168 30.3757 133.264 33.4006 131.628 37.025L131.929 36.8299L131.65 37.0669C132.581 33.3449 135.973 29.9714 139.256 27.7967Z" fill="#06090C"/>
<path d="M131.728 36.984C131.988 37.3604 132.477 37.3326 132.888 37.4301C135.85 38.0296 138.714 39.2981 141.077 41.194C138.466 39.6745 135.741 38.4338 132.847 37.5974C132.467 37.444 131.94 37.4022 131.728 36.984Z" fill="#06090C"/>
<path d="M141.086 41.3044C141.677 41.2905 141.971 40.705 142.313 40.3147C144.65 37.2618 144.903 32.7871 148.132 30.3894C145.227 33.1077 145.022 37.4709 142.446 40.4262C142.063 40.7887 141.69 41.3602 141.086 41.3044Z" fill="#06090C"/>
<path d="M150.172 28.0609C148.628 27.6148 146.523 28.5488 148.097 30.1659C148.473 30.5004 148.961 30.7653 149.5 30.8071C148.959 30.8908 148.381 30.7235 147.926 30.375C145.987 28.6325 148.34 27.0433 150.172 28.0609Z" fill="#06090C"/>
<path d="M147.666 29.7201C148.256 29.5667 148.829 29.6504 149.352 29.9571C148.761 30.1104 148.189 30.0268 147.666 29.7201Z" fill="#06090C"/>
<path d="M151.758 28.4791C149.801 27.6706 148.643 30.0683 150.598 31.0162C154.88 32.7169 159.688 33.5533 163.383 36.4807C159.481 33.8739 154.788 33.1072 150.492 31.2671C150.132 31.072 149.842 30.7932 149.619 30.4586C148.671 29.1204 150.487 27.6567 151.758 28.4791Z" fill="#06090C"/>
<path d="M151.327 28.3401C156.062 29.9711 160.808 31.4766 165.617 32.8706C160.7 31.9366 155.885 30.4032 151.327 28.3401Z" fill="#06090C"/>
<path d="M163.782 36.885C164.937 36.3274 166.468 34.0552 165.338 32.9957C163.733 32.6612 163.029 35.3795 163.652 36.5784C163.198 35.8535 163.12 34.9056 163.425 34.0831C163.724 33.2885 164.504 32.2988 165.501 32.6891C166.977 33.9298 165.227 36.4529 163.782 36.885Z" fill="#06090C"/>
<path d="M141.349 4.7113C140.544 3.58216 139.859 1.83963 140.975 0.654725C141.84 1.21233 142.578 1.97902 143.07 2.87119C142.425 2.1463 141.706 1.51901 140.913 1.00323L141.131 0.975388C140.301 2.09059 140.888 3.54034 141.349 4.7113Z" fill="#06090C"/>
<path d="M147.188 4.28048C146.269 3.0677 146.636 1.10218 147.947 0.210019L148.053 0.321512C149.114 1.42278 149.787 2.91437 149.776 4.43384C149.489 2.95619 148.835 1.59009 147.805 0.558521L148.032 0.572407C146.952 1.36699 146.571 2.998 147.188 4.28048Z" fill="#06090C"/>
<path d="M147.382 4.43347C147.97 3.29038 149.251 2.50975 150.542 2.49581C149.356 2.98372 148.355 3.59707 147.382 4.43347Z" fill="#06090C"/>
<path d="M139.269 27.4766C137.412 27.3511 135.449 27.1978 133.807 26.1523C132.455 25.3298 130.5 23.4758 129.008 24.8419C127.781 26.5845 129.941 28.1736 131.638 28.327C133.485 28.6336 135.346 28.9403 137.193 29.2888C135.322 29.0797 133.46 28.8567 131.595 28.564C130.675 28.3967 129.685 28.1318 128.99 27.393C127.856 26.2499 128.231 23.9638 130.142 24.0474C131.647 24.0613 132.769 25.2183 133.931 25.9572C135.498 26.9748 137.421 27.2257 139.269 27.4766Z" fill="#06090C"/>
<path d="M113.735 112.72C111.806 114.951 113.055 118.073 114.724 120.067C116.381 122.227 118.872 123.496 120.84 125.434C122.802 127.427 123.863 130.006 125.309 132.292C126.775 134.564 128.506 136.697 130.689 138.342C128.422 136.809 126.602 134.69 125.113 132.418C123.623 130.131 122.521 127.58 120.593 125.685C118.714 123.775 116.202 122.437 114.541 120.206C112.855 118.171 111.661 114.909 113.735 112.72Z" fill="#06090C"/>
<path d="M124.882 98.6119C128.629 95.9633 131.677 100.968 134.618 102.529C137.76 104.327 142.267 104.871 143.939 108.537C141.993 105.024 137.699 104.592 134.448 102.822C131.447 101.163 128.749 96.27 124.882 98.6119Z" fill="#06090C"/>
<path d="M132.626 139.026C148.335 139.946 148.286 118.729 143.616 108.413C148.831 118.576 148.515 140.489 132.626 139.026Z" fill="#06090C"/>
<path d="M130.624 138.341C131.422 138.523 132.086 138.718 132.848 139.011C132.061 139.192 131.18 138.927 130.624 138.341Z" fill="#06090C"/>
<path d="M125.643 113.264C125.743 112.79 125.865 112.539 126.161 112.149C126.353 112.595 126.105 113.125 125.643 113.264Z" fill="#06090C"/>
<path d="M142.214 21.6075L143.166 21.5238C143.483 21.5656 143.546 21.245 143.602 20.9523C143.69 20.1437 143.302 18.6382 144.486 18.3036C145.68 18.1085 145.986 19.8231 145.659 20.6317C145.752 20.0044 145.585 19.3631 145.231 18.8892C144.86 18.3594 144.203 18.6243 144.037 19.154C143.773 19.8092 144.131 20.785 143.666 21.482C143.454 21.8862 142.562 21.5935 142.214 21.6075Z" fill="#06090C"/>
<path d="M145.751 20.7016C145.695 20.9804 145.688 20.8829 145.603 20.7016C145.796 20.5622 145.913 20.5064 146.218 20.4507C146.211 20.9943 145.643 20.9526 145.269 20.841C145.397 20.7853 145.603 20.6738 145.751 20.7016Z" fill="#06090C"/>
<path d="M143.273 18.7221C143.274 18.5966 143.492 18.7918 143.252 18.8197C143.023 18.7779 142.845 18.6524 142.623 18.6384C142.152 18.513 141.578 18.8893 141.899 19.3912C142.029 19.6142 142.273 19.8652 142.282 20.1858C142.146 19.907 141.886 19.7955 141.679 19.5445C141.075 18.8754 141.974 18.039 142.694 18.3736C142.942 18.4293 143.185 18.736 143.323 18.736C143.333 18.7221 143.266 18.6803 143.273 18.7221Z" fill="#06090C"/>
<path d="M122.719 52.4022C124.672 48.3178 127.149 44.4703 129.962 40.9295C130.896 39.7725 131.869 38.4761 133.326 37.9463C131.931 38.5876 131.079 39.8979 130.175 41.0828C127.461 44.7073 125.017 48.499 122.719 52.4022Z" fill="#06090C"/>
<path d="M116.803 64.1397C113.57 73.8699 109.489 83.3352 104.629 92.3684C109.101 83.1401 113.16 73.7305 116.803 64.1397Z" fill="#06090C"/>
<path d="M102.413 96.8423C102.077 97.7205 101.673 98.4733 101.125 99.24C101.226 98.306 101.695 97.4417 102.413 96.8423Z" fill="#06090C"/>
<path d="M98.9245 102.558C99.0755 103.241 98.7371 103.979 98.1191 104.314C98.3652 103.659 98.5945 103.171 98.9245 102.558Z" fill="#06090C"/>
<path d="M91.7107 117.794C89.6555 122.575 87.5122 127.329 84.8027 131.775C86.8244 127.635 89.5283 121.78 91.7107 117.794Z" fill="#06090C"/>
<path d="M97.1201 106.643C96.7049 108.037 96.0771 109.333 95.2383 110.532C95.6507 109.138 96.2826 107.842 97.1201 106.643Z" fill="#06090C"/>
<path d="M140.575 41.7927C135.836 43.6189 133.166 48.2469 130.665 52.3732C128.185 56.6389 126.106 61.1137 124.186 65.6582C120.332 74.7471 116.759 83.9475 112.919 93.0504C116.501 83.85 120.101 74.6495 123.866 65.5188C125.823 60.9882 127.944 56.5134 130.465 52.2617C132.983 48.1355 135.773 43.4934 140.575 41.7927Z" fill="#06090C"/>
<path d="M105.608 109.417C105.653 108.734 105.917 108.148 106.393 107.661C106.349 108.33 106.082 108.929 105.608 109.417Z" fill="#06090C"/>
<path d="M137.714 39.4235C129.238 45.5571 126.518 56.3468 121.92 65.2266C117.537 74.4549 113.245 83.7251 108.782 92.9116C112.972 83.5996 117.333 74.3574 121.604 65.0872C126.282 56.2492 129.052 45.348 137.714 39.4235Z" fill="#06090C"/>
<path d="M103.449 112.637C101.986 116.693 100.412 120.694 98.8783 124.723C97.346 128.417 95.9102 133.686 99.7437 136.446L100.183 136.739L99.6654 136.642L96.2261 135.986C95.3272 135.763 93.286 135.652 93.6034 134.3C93.3475 134.913 94.0479 135.345 94.5415 135.512C95.6585 135.819 98.5218 136.181 99.7032 136.418L99.6249 136.614C95.6431 133.854 96.921 128.333 98.6001 124.611C100.205 120.624 101.771 116.61 103.449 112.637Z" fill="#06090C"/>
<path d="M102.481 112.163C99.1494 119.356 95.3256 127.818 93.3711 134.83L93.4102 134.105V134.83L93.3711 134.816C95.1481 126.842 98.7412 119.398 102.481 112.163Z" fill="#06090C"/>
<path d="M102.05 112.219C102.996 112.108 103.922 112.219 104.807 112.581C103.86 112.693 102.935 112.568 102.05 112.219Z" fill="#06090C"/>
<path d="M99.2473 136.489C99.7143 138.761 95.5578 137.576 94.5596 136.893C95.6697 137.06 99.3102 138.398 99.2473 136.489Z" fill="#06090C"/>
<path d="M94.5888 136.656C93.6521 136.279 93.1697 135.011 93.6241 134.105C93.6954 135.08 93.9932 135.875 94.5888 136.656Z" fill="#06090C"/>
<path d="M121.77 61.5608C117.836 70.9285 112.62 84.2274 107.303 92.7727C112.884 82.7358 116.891 71.9183 121.77 61.5608Z" fill="#06090C"/>
<path d="M122.95 58.8974C122.935 59.5108 122.705 60.0544 122.258 60.4866C122.268 59.8732 122.507 59.3296 122.95 58.8974Z" fill="#06090C"/>
<path d="M135.42 39.1575C131.461 44.3293 127.812 49.6962 124.634 55.3838C127.385 49.4871 131.1 44.0226 135.42 39.1575Z" fill="#06090C"/>
<path d="M105.341 97.0243C105.091 97.8746 104.637 98.5994 103.985 99.1989C104.234 98.3485 104.693 97.6237 105.341 97.0243Z" fill="#06090C"/>
<path d="M121.497 62.1736C122.03 59.3159 123.361 56.5697 125.283 54.3671C123.744 56.8485 122.493 59.4274 121.497 62.1736Z" fill="#06090C"/>
<path d="M116.683 64.9607C118.444 59.998 120.773 55.2165 123.607 50.7836C121.184 55.4535 118.882 60.1653 116.683 64.9607Z" fill="#06090C"/>
<path d="M162.712 91.4325C164.213 94.1926 162.372 97.5243 159.783 98.8765C157.588 100.131 153.1 100.647 153.918 104.09C154.547 106.028 156.651 106.739 158.443 107.268C160.332 107.84 162.146 108.69 163.787 109.792C164.385 110.196 165.007 110.67 165.558 111.144C166.003 111.423 166.443 112.134 165.895 112.594C165.274 113.151 164.339 113.095 163.635 112.844C161.702 112.245 160.088 111.046 158.432 110.029C156.802 108.997 154.972 108.049 153.026 108.286L153.142 108.119C153.789 110.642 156.042 112.705 158.642 113.123L158.518 113.221C158.655 112.607 158.393 111.966 157.982 111.492C154.583 108.481 149.563 107.603 145.121 107.77C148.285 107.268 159.307 108.969 158.71 113.36C155.974 112.97 153.584 110.851 152.879 108.175C152.84 108.007 152.791 108.035 152.995 108.007C157.658 107.45 160.671 112.635 165.089 112.635C166.538 112.203 165.497 111.478 164.787 110.921C162.884 109.401 160.694 108.244 158.361 107.533C155.575 106.948 151.814 104.327 154.441 101.358C156.602 99.3086 160.131 99.448 161.944 96.897C163.179 95.4193 163.635 93.189 162.712 91.4325Z" fill="#06090C"/>
<path d="M141.134 93.5671C144.83 97.9582 144.446 101.067 142.235 106.03C142.722 103.911 143.727 101.806 143.622 99.6032C143.512 97.3867 142.237 95.4351 141.134 93.5671Z" fill="#06090C"/>
<path d="M140.623 93.3302C140.485 97.4844 140.765 101.611 141.458 105.709C140.299 101.722 140.012 97.4425 140.623 93.3302Z" fill="#06090C"/>
<path d="M126.764 59.9426C138.843 65.1144 151.316 70.9692 159.851 81.2988C164.237 86.3869 167.198 92.5902 167.013 99.4069C167.424 108.106 171.423 116.93 168.453 125.572C166.282 131.915 161.222 136.683 156.356 141.06C161.161 136.627 166.11 131.818 168.262 125.503C171.174 116.888 167.135 108.106 166.693 99.4209C166.826 92.6878 163.965 86.5542 159.626 81.4939C151.16 71.1504 138.741 65.3095 126.764 59.9426Z" fill="#06090C"/>
<path d="M141.899 136.307C143.875 137.91 146.695 137.924 148.796 139.374C150.949 140.573 153.368 141.855 155.893 141.172C152.01 142.58 148.698 139.192 145.218 138.105C144.044 137.701 142.738 137.297 141.899 136.307Z" fill="#06090C"/>
<path d="M155.988 141.172C156.211 140.768 156.571 140.545 157.041 140.531C156.819 140.949 156.457 141.172 155.988 141.172Z" fill="#06090C"/>
<path d="M145.492 129.491C151.961 129.323 158.083 125.211 160.67 119.315L160.949 119.412C160.104 122.033 159.76 126.048 162.914 127.205C163.845 127.511 164.989 127.372 165.7 126.619C164.189 128.278 161.387 127.26 160.638 125.337C159.722 123.441 160.158 121.266 160.663 119.342L160.942 119.426C158.432 125.434 152 129.63 145.492 129.491Z" fill="#06090C"/>
<path d="M142.845 137.63C143.06 140.46 143.183 143.624 143.32 146.482C143.451 148.42 143.458 150.776 141.749 152.086C140.92 152.755 139.775 152.797 138.813 152.588C136.871 152.142 134.992 151.556 133.089 150.999L138.855 152.365C142.484 153.173 143.313 149.27 143.031 146.496C142.952 143.638 142.843 140.474 142.845 137.63Z" fill="#06090C"/>
<path d="M139.229 149.871C134.907 149.648 131.124 152.06 127.012 152.98C124.935 153.468 122.799 153.551 120.686 153.607C118.937 153.733 116.099 153.482 114.481 154.011C114.095 154.234 114.163 154.806 114.49 155.127C115.731 155.949 117.564 155.294 119.004 155.364C124.685 155.127 133.39 154.276 136.106 160.549C132.717 153.537 122.21 155.712 115.849 155.837C115.322 155.837 114.699 155.796 114.248 155.35C113.799 154.931 113.697 154.067 114.29 153.719C115.358 153.259 116.398 153.454 117.508 153.356L120.682 153.314C122.789 153.286 124.907 153.217 126.961 152.757C131.04 151.851 134.927 149.509 139.229 149.871Z" fill="#06090C"/>
<path d="M134.657 158.137C136.45 158.221 138.187 158.11 139.924 157.719L139.669 157.914C139.474 158.068 139.211 158.096 139.014 157.998C139.228 158.04 139.447 157.956 139.559 157.803L139.637 157.942C138.066 158.542 136.266 158.653 134.657 158.137Z" fill="#06090C"/>
<path d="M138.684 152.882C139.527 154.36 139.731 156.2 139.223 157.817C139.248 156.13 139.076 154.527 138.684 152.882Z" fill="#06090C"/>
<path d="M139.431 157.97C140.686 158.709 141.743 159.755 142.662 160.87C143.945 162.598 145.586 164.285 145.988 166.474C146.277 168.676 145.272 170.921 143.758 172.468C145.1 170.823 145.96 168.648 145.675 166.53C145.237 164.425 143.653 162.78 142.452 161.037C141.578 159.894 140.613 158.821 139.431 157.97Z" fill="#06090C"/>
<path d="M140.399 168.006C139.972 164.312 135.387 164.228 132.599 165.176L132.667 164.995C133.332 165.971 134.621 166.138 135.762 166.278C146.004 167.351 147.558 179.897 138.547 184.33C147.176 179.618 145.732 167.839 135.727 166.543C134.543 166.389 133.085 166.18 132.38 164.995C135.256 164.047 140.071 164.103 140.399 168.006Z" fill="#06090C"/>
<path d="M132.155 190.924C133.338 191.329 134.415 191.928 135.368 192.723C134.184 192.332 133.109 191.733 132.155 190.924Z" fill="#06090C"/>
<path d="M138.116 177.903C137.295 181.862 140.275 185.473 139.495 189.432C139.318 191.119 137.385 192.331 135.841 191.425C135.134 191.035 134.631 190.408 134.146 189.808C134.671 190.38 135.225 190.951 135.918 191.272C137.374 192.025 139.009 190.923 139.183 189.362C139.869 185.501 136.964 181.779 138.116 177.903Z" fill="#06090C"/>
<path d="M135.277 192.122C135.674 191.773 136.146 191.648 136.661 191.759C136.266 192.108 135.793 192.233 135.277 192.122Z" fill="#06090C"/>
<path d="M134.995 192.695C135.403 195.581 133.4 199.819 129.997 199.47C129.543 199.372 129.15 199.094 128.851 198.773C132.206 201.031 135.101 195.567 134.995 192.695Z" fill="#06090C"/>
<path d="M110.706 164.856C110.992 163.142 113.707 159.099 115.684 160.298C116.192 160.772 116.17 161.566 115.857 162.124C114.696 163.602 112.666 164.006 111.298 165.288C103.329 171.533 100.826 181.793 96.162 190.339C93.974 194.716 89.9909 198.271 89.1562 203.247C89.8553 198.243 93.7951 194.604 95.9579 190.227C100.994 180.664 103.877 168.439 114.315 163.142C115.345 162.723 116.499 161.455 115.572 160.423C115.128 160.019 114.434 160.228 113.937 160.535C112.362 161.483 111.189 163.072 110.706 164.856Z" fill="#06090C"/>
<path d="M62.3645 150.678C58.1954 148.503 52.8282 146.928 50.0404 151.919C49.182 153.229 48.4466 154.651 47.3896 155.836C48.3445 154.567 48.982 153.132 49.8139 151.779C52.6115 146.552 58.2262 148.057 62.3645 150.678Z" fill="#06090C"/>
<path d="M52.5332 154.764C48.7444 155.321 45.2003 156.799 41.7358 158.36C38.3287 159.949 34.702 161.469 32.0499 164.187C29.1614 166.794 29.2677 171.171 26.5876 174.085C24.1884 177.04 20.8694 179.256 19.3203 182.811C20.0263 181.041 21.2231 179.493 22.5177 178.099C24.4541 176.036 26.6728 174.14 27.9339 171.561C29.0915 168.969 29.6452 165.999 31.7982 163.95C34.5287 161.204 38.1763 159.726 41.6422 158.151C45.1122 156.604 48.7248 155.182 52.5332 154.764Z" fill="#06090C"/>
<path d="M19.5408 181.751C17.6296 191.62 21.0605 201.364 21.589 211.206C22.2405 221.215 17.61 230.597 17.4814 240.536C17.3248 230.597 21.9875 221.201 21.2409 211.22C20.8159 201.42 17.3486 191.565 19.5408 181.751Z" fill="#06090C"/>
<path d="M49.022 181.709C47.4883 179.855 45.654 178.265 43.6128 177.025C42.5908 176.398 41.5115 175.882 40.3958 175.45C39.859 175.227 39.234 175.031 38.8677 175.422C38.5084 175.784 38.4763 176.453 38.7447 176.899C39.3277 177.847 40.5734 178.293 41.5898 178.865C44.8026 180.496 48.2419 181.639 51.7707 182.378C48.1929 181.862 44.7117 180.705 41.4598 179.13C40.3902 178.53 39.139 178.154 38.4399 177.067C37.8947 176.216 38.4469 174.697 39.6059 174.906C43.3626 176.049 46.6914 178.586 49.022 181.709Z" fill="#06090C"/>
<path d="M72.1338 134.605C73.2886 132.166 74.6629 129.824 76.226 127.621C75.0614 130.075 73.7052 132.389 72.1338 134.605Z" fill="#06090C"/>
<path d="M76.1719 127.636C79.3959 127.873 81.9976 130.048 85.0553 130.856C81.8592 130.494 79.2784 128.319 76.1719 127.636Z" fill="#06090C"/>
<path d="M91.3076 135.582C95.9674 137.715 100.527 140.057 104.971 142.608C100.307 140.475 95.7549 138.133 91.3076 135.582Z" fill="#06090C"/>
<path d="M76.4395 128.166C79.3698 129.364 82.2024 130.758 84.9244 132.375C81.9898 131.177 79.1629 129.783 76.4395 128.166Z" fill="#06090C"/>
<path d="M99.2285 136.543C104.332 138.968 109.327 141.589 114.21 144.419C109.106 142.007 104.112 139.387 99.2285 136.543Z" fill="#06090C"/>
<path d="M104.636 142.441C107.892 142.817 111.106 143.737 114.385 144.225C111.053 144.225 107.801 143.249 104.636 142.441Z" fill="#06090C"/>
<path d="M104.206 142.523C99.5265 162.471 94.0754 182.238 87.8623 201.755C93.6574 182.099 99.1057 162.36 104.206 142.523Z" fill="#06090C"/>
<path d="M114.67 144.699C114.641 144.866 114.367 144.741 114.426 144.587C114.473 144.448 114.624 144.392 114.744 144.35C114.113 151.139 112.751 159.155 111.151 165.372L111.1 164.675L111.193 165.372H111.153C112.431 158.374 113.625 151.39 114.728 144.378C114.827 144.42 114.477 144.448 114.448 144.601C114.382 144.713 114.633 144.852 114.67 144.699Z" fill="#06090C"/>
<path d="M70.2093 137.714C64.4758 147.179 58.1984 157.774 52.5613 167.379L49.6826 172.355L48.23 174.85C47.9979 175.255 47.7295 175.673 47.5254 176.091C47.4737 176.314 47.6149 176.565 47.4736 176.802C47.4233 176.9 47.2695 176.997 47.1661 176.9C47.1018 176.802 47.2653 176.565 47.3296 176.718C47.2639 176.579 47.113 176.816 47.1759 176.886C47.2681 176.969 47.4094 176.886 47.4555 176.788C47.5855 176.565 47.4373 176.328 47.4834 176.077C47.6848 175.631 47.9336 175.227 48.1559 174.809L49.5344 172.272C55.9391 160.841 63.0903 148.671 70.2093 137.714Z" fill="#06090C"/>
<path d="M47.7832 180.399C60.4205 189.265 74.1469 196.514 88.6073 201.951C74.0057 196.932 60.1563 189.614 47.7832 180.399Z" fill="#06090C"/>
<path d="M47.4531 176.26C46.9861 177.11 46.6422 178.016 46.4283 178.95L46.0983 178.839L47.3706 176.218L46.4227 178.978L46.0928 178.853C46.4269 177.933 46.8869 177.054 47.4531 176.26Z" fill="#06090C"/>
<path d="M92.0862 147.653C92.3547 147.096 93.3935 147.138 93.6353 147.835C93.0607 148.448 92.4567 149.019 91.7451 149.493C92.1981 148.81 92.7462 148.239 93.3278 147.695L93.2928 147.876C93.1432 147.514 92.5043 147.291 92.0862 147.653Z" fill="#06090C"/>
<path d="M92.123 147.711C91.5582 148.394 91.7372 149.328 92.0154 150.08C93.0374 152.353 93.9699 155.001 92.8333 157.455C92.0643 158.988 90.6872 160.034 89.9826 161.595C89.2444 163.073 88.8627 164.759 89.1409 166.432C88.7327 164.787 89.0207 163.017 89.7407 161.483C90.3712 159.908 91.8001 158.793 92.5159 157.301C93.6274 154.987 92.7382 152.394 91.8533 150.122C91.6184 149.342 91.5065 148.352 92.123 147.711Z" fill="#06090C"/>
<path d="M91.409 149.591C91.4859 150.72 91.9641 151.766 92.2101 152.867C92.7764 155.195 91.342 157.342 90.2081 159.224C89.1022 161.134 88.1823 163.308 88.364 165.539C88.5136 166.988 89.3958 169.191 91.1896 168.801C91.7111 168.675 92.0857 168.159 91.9613 167.63C91.9515 167.156 91.1728 166.57 90.9057 167.156L90.4612 168.787L90.8261 167.128C91.1197 166.403 92.0829 167.016 92.129 167.602C92.431 169.024 90.4304 169.484 89.5538 168.633C88.6338 167.867 88.2298 166.696 88.0746 165.566C87.8243 163.252 88.7708 161.008 89.9592 159.084C91.1112 157.216 92.5443 155.195 92.0423 152.909C91.8592 151.808 91.4286 150.72 91.409 149.591Z" fill="#06090C"/>
<path d="M88.9721 164.661C89.3426 166.153 89.7495 167.547 90.236 168.997C89.3244 167.77 88.8659 166.195 88.9721 164.661Z" fill="#06090C"/>
<path d="M75.9805 144.21C75.6435 143.834 75.2492 143.401 75.3037 142.83C75.3555 142.244 76.13 141.826 76.5369 142.356C77.3282 143.206 77.0807 144.503 76.5369 145.367C75.3877 147.263 72.9885 147.723 71.9386 149.507C70.5349 152.184 69.4192 155.515 66.5335 157.021C65.5703 157.453 64.2015 157.272 63.6465 156.268C63.6143 155.669 64.3665 155.362 64.8698 155.515C65.3815 155.669 65.7311 156.073 66.054 156.449C65.4025 155.613 64.1596 155.069 63.7766 156.198C64.3092 157.077 65.5591 157.244 66.4469 156.826C69.2738 155.278 70.198 151.975 71.6673 149.326C72.8613 147.444 75.2688 147.026 76.3495 145.255C76.8878 144.433 77.1059 143.248 76.425 142.467C76.0741 141.993 75.4603 142.356 75.3792 142.844C75.2982 143.36 75.6589 143.82 75.9805 144.21Z" fill="#06090C"/>
<path d="M76.1816 144.072C76.3522 145.8 74.255 146.26 73.0527 146.832C71.7413 147.473 70.5249 148.435 69.9657 149.773C69.3743 151.097 69.3785 152.659 68.6976 154.053C68.0223 155.419 66.7739 156.478 65.3408 156.91C71.6783 153.899 66.0874 148.393 75.017 145.772C75.6503 145.465 76.2347 144.838 76.1816 144.072Z" fill="#06090C"/>
<path d="M74.7449 150.276C74.0557 150.22 73.4475 149.955 72.9512 149.467C73.6418 149.523 74.2472 149.802 74.7449 150.276Z" fill="#06090C"/>
<path d="M79.0636 152.24C78.7211 152.338 78.4442 152.212 78.2988 151.892C78.6497 151.794 78.9112 151.92 79.0636 152.24Z" fill="#06090C"/>
<path d="M82.3701 154.875C83.3376 155.029 84.403 155.447 85.2838 155.628C85.246 155.057 84.6686 154.694 84.1345 154.415C83.6256 154.15 83.072 153.955 82.5477 153.677C83.662 154.011 85.116 154.123 85.6025 155.405C85.7661 155.991 85.2082 156.046 84.8168 155.865C84.0241 155.544 83.1447 155.238 82.3701 154.875Z" fill="#06090C"/>
<path d="M77.9111 153.314C78.3068 153.216 78.6339 153.328 78.8604 153.676C78.469 153.774 78.1362 153.648 77.9111 153.314Z" fill="#06090C"/>
<path d="M73.6696 150.123C73.2082 150.276 73.0348 150.666 73.2599 150.959C73.4333 151.266 73.8877 151.433 74.2414 151.726C73.7856 151.684 73.3074 151.586 72.9607 151.14C72.6238 150.638 73.0852 149.955 73.6696 150.123Z" fill="#06090C"/>
<path d="M134.038 38.2947C128.982 44.0799 124.771 50.5899 121.7 57.6297C120.19 61.1565 118.978 64.8088 117.503 68.3496C113.859 76.5185 109.963 84.6455 106.061 92.689C109.729 84.548 113.644 76.4348 117.205 68.2241C121.059 57.3787 125.978 46.7145 134.038 38.2947Z" fill="#06090C"/>
<path d="M103.646 96.8706C103.468 97.8185 103.074 98.6828 102.469 99.4216C102.645 98.4737 103.042 97.6234 103.646 96.8706Z" fill="#06090C"/>
<path d="M100.102 102.948C100.16 103.575 99.7178 104.175 99.1055 104.314C99.427 103.784 99.6955 103.422 100.102 102.948Z" fill="#06090C"/>
<path d="M73.153 165.19C73.3404 165.497 73.2943 165.803 73.0174 166.054C72.8287 165.734 72.8776 165.427 73.153 165.19Z" fill="#06090C"/>
<path d="M75.9959 166.542C74.5936 165.971 73.2738 165.385 71.9121 164.744C73.4053 164.939 74.8425 165.566 75.9959 166.542Z" fill="#06090C"/>
<path d="M71.8022 164.647C71.675 165.052 71.9518 165.4 72.2454 165.637C73.1849 166.362 74.3201 166.71 75.4176 167.198C76.3278 167.63 77.0772 168.286 78.0544 168.453C78.2362 168.481 78.4277 168.397 78.4011 168.341C78.19 168.063 77.8294 167.812 77.5316 167.575C77.7832 167.784 79.0303 168.216 78.3802 168.606C77.2366 168.857 76.2201 167.895 75.2694 167.505C74.2041 167.017 73.0018 166.599 72.1293 165.749C71.8511 165.47 71.6107 165.024 71.8022 164.647Z" fill="#06090C"/>
<path d="M71.0056 164.661C70.6784 168.689 70.3317 172.704 69.8284 176.733C68.8176 180.636 66.9316 184.288 65.4062 188.038C66.6617 184.219 68.5729 180.58 69.4858 176.663C70.0856 172.69 70.4044 168.648 71.0056 164.661Z" fill="#06090C"/>
<path d="M65.5098 188.177C66.6129 189.139 68.0194 189.502 69.4524 189.209C68.1829 190.031 66.2172 189.516 65.5098 188.177Z" fill="#06090C"/>
<path d="M71.1546 164.856C70.9854 164.312 71.9488 163.991 72.1403 164.535C71.6859 164.535 71.5223 164.591 71.1546 164.856Z" fill="#06090C"/>
<path d="M77.9232 167.589L78.8921 169.109L78.9172 169.15C75.8162 171.409 74.3986 175.173 72.8733 178.56C71.3801 182.017 70.3721 185.669 69.6367 189.364C70.0981 185.614 71.1663 181.947 72.5657 178.435C74.1106 175.047 75.6164 171.241 78.8222 169.095L78.8067 169.164L77.9232 167.589Z" fill="#06090C"/>
<path d="M119.405 159.629C124.677 158.318 130.38 158.625 135.499 160.451C135.662 160.507 135.868 160.577 135.942 160.772C136.045 160.981 135.645 161.148 135.617 160.925C135.665 161.148 136.012 160.939 135.901 160.786C135.829 160.633 135.64 160.577 135.472 160.535C130.253 159.071 124.764 158.778 119.405 159.629Z" fill="#06090C"/>
<path d="M140.831 196.207C142.279 219.208 145.178 242.112 149.503 264.75C144.75 242.195 141.846 219.236 140.831 196.207Z" fill="#06090C"/>
<path d="M143.582 194.172C145.563 218.108 148.864 242.126 153.008 265.671L148.856 265.476L153.011 265.601C151.743 259.97 150.795 253.738 149.787 247.898C146.872 230.096 144.782 212.169 143.582 194.172Z" fill="#06090C"/>
<path d="M132.216 197.936C134.333 195.511 138.053 196.793 140.642 195.427C144.334 193.615 142.121 190.395 139.394 188.945C142.506 190.269 144.705 193.712 140.794 195.734C138.07 197.142 134.56 195.72 132.216 197.936Z" fill="#06090C"/>
<path d="M143.272 195.677C144.04 177.137 146.049 158.499 149.175 140.182C149.223 139.917 149.358 139.123 149.404 138.858C149.365 138.663 149.705 138.649 149.687 138.83C149.698 138.663 149.372 138.663 149.416 138.858C149.377 139.123 149.259 139.917 149.219 140.196C146.462 158.569 144.473 177.151 143.272 195.677Z" fill="#06090C"/>
<path d="M145.273 138.746C144.702 146.078 143.917 153.383 142.912 160.673C143.483 153.341 144.271 146.036 145.273 138.746Z" fill="#06090C"/>
<path d="M140.785 183.117C140.52 185.613 140.028 188.052 139.303 190.45C139.564 187.969 140.061 185.515 140.785 183.117Z" fill="#06090C"/>
<path d="M84.7734 132.125C87.2229 133.115 89.5814 134.314 91.817 135.708C89.3577 134.718 87.0174 133.533 84.7734 132.125Z" fill="#06090C"/>
<path d="M91.5566 118.088C92.8275 115.16 94.1487 112.275 95.5482 109.403C94.5905 112.456 93.2427 115.383 91.5566 118.088Z" fill="#06090C"/>
<path d="M107.138 97.4413C106.945 98.208 106.548 98.8632 105.952 99.3929C106.142 98.6262 106.544 97.9711 107.138 97.4413Z" fill="#06090C"/>
<path d="M102.413 108.008C102.274 108.594 101.939 109.068 101.42 109.375C101.556 108.789 101.895 108.329 102.413 108.008Z" fill="#06090C"/>
<path d="M100.595 111.618C94.5345 126.004 87.9257 140.181 80.7871 154.066C87.5357 139.986 94.1375 125.837 100.595 111.618Z" fill="#06090C"/>
<path d="M98.8064 107.785C91.781 122.631 83.6329 137.979 74.8809 151.905C83.2554 137.784 91.3993 122.422 98.8064 107.785Z" fill="#06090C"/>
<path d="M72.7363 151.04C75.4766 152.128 81.0158 154.247 83.7798 155.264C79.9365 154.344 76.2064 152.922 72.7363 151.04Z" fill="#06090C"/>
<path d="M73.3418 149.829C76.665 150.958 79.8736 152.282 83.0152 153.843C79.7101 152.728 76.4651 151.376 73.3418 149.829Z" fill="#06090C"/>
<path d="M81.0119 154.08C79.3817 158.652 77.8369 163.211 76.3535 167.825C77.3783 163.085 78.9483 158.457 81.0119 154.08Z" fill="#06090C"/>
<path d="M74.8824 151.919C74.2114 156.63 73.641 161.314 73.1572 166.04C73.167 161.3 73.75 156.533 74.8824 151.919Z" fill="#06090C"/>
<path d="M74.9375 166.041C76.1636 166.153 77.3506 166.808 78.1042 167.784C77.0276 167.171 76.0336 166.613 74.9375 166.041Z" fill="#06090C"/>
<path d="M79.3613 142.788C81.6318 144.224 83.8422 145.702 86.0484 147.235C83.6073 146.106 81.3424 144.6 79.3613 142.788Z" fill="#06090C"/>
<path d="M78.793 143.696C81.1529 145.299 83.4612 146.902 85.775 148.575C83.2179 147.306 80.8537 145.661 78.793 143.696Z" fill="#06090C"/>
<path d="M80.0723 141.548C82.3595 142.956 84.9963 144.238 86.4237 146.608C84.6244 144.545 82.1065 143.346 80.0723 141.548Z" fill="#06090C"/>
<path d="M80.793 140.391C82.1715 141.116 83.4885 141.966 84.8083 142.817C86.075 143.681 87.5737 144.545 88.1301 146.051C86.3084 143.514 83.0942 142.468 80.793 140.391Z" fill="#06090C"/>
</svg>
