<svg width="152" height="198" viewBox="0 0 152 198" fill="none" xmlns="http://www.w3.org/2000/svg">
<path d="M17.5201 96.822C16.4329 96.7594 15.3458 96.6967 14.2587 96.6341C13.4015 95.0054 11.8751 94.212 10.6834 94.546C10.2235 94.6922 9.45 95.0889 9.30365 95.778C9.07367 96.8429 10.6 97.5319 10.5372 98.9936C10.4954 99.6617 10.14 100.142 10.0146 100.33C7.29665 104.443 6.87851 119.143 6.87851 119.143C6.29311 139.94 5.18504 143.761 4.57873 145.64C3.15705 149.921 1.33805 153.22 0 155.37C2.84336 157.333 4.41147 159.359 5.31048 160.883C6.50218 162.846 7.35925 165.226 8.32098 165.101C9.01091 165.017 9.07359 163.764 10.1608 163.347C10.997 163.013 11.938 163.388 12.6906 163.806C10.3072 182.076 9.51276 196.296 9.24097 206.151C9.0319 213.251 8.86468 226.614 5.93769 244.487C5.49864 247.118 5.10124 249.269 4.82945 250.71C8.78089 251.085 12.2098 251.315 15.0323 251.419C18.5447 251.566 20.6562 251.566 21.9943 250.104C22.8515 249.144 23.0604 247.933 23.1231 247.035C27.5973 247.744 32.866 248.266 38.7618 248.308C44.9294 248.35 50.407 247.828 55.0693 247.139C55.0066 247.786 54.8811 248.872 54.6093 250.208C53.9403 253.695 53.2086 254.51 53.1877 256.89C53.1459 258.706 53.5639 258.686 53.3757 260.21C53.1248 262.298 52.2887 262.82 52.3514 264.386C52.435 266.286 53.773 267.622 54.0029 267.852C55.571 269.397 58.059 269.836 60.4006 269.084C60.3797 271.36 61.0695 272.487 61.6967 273.093C62.8048 274.137 63.9757 273.866 66.0664 274.805C67.9271 275.619 68.7424 276.643 69.6832 277.374C73.5092 280.464 81.5586 281.153 84.1302 277.666C85.8654 275.306 84.6945 271.632 84.5273 271.172C83.8582 269.147 82.583 267.873 81.9349 267.309C82.7085 267.184 83.8165 266.934 85.0291 266.307C86.4717 265.576 88.4159 264.115 88.1441 263.217C88.0605 262.904 87.7679 262.966 87.1198 262.277C86.6181 261.693 86.5971 261.4 86.179 260.92C85.6563 260.314 85.0708 260.022 84.6318 259.834C83.4401 259.27 82.9174 259.542 81.3912 259.124C80.7849 258.957 80.3458 258.748 79.4677 258.352C78.3178 257.83 76.7289 257.016 74.8055 255.783C74.7637 255.073 74.6801 254.259 74.5337 253.403C74.2619 252.025 73.8856 250.835 73.4884 249.874C73.5929 249.039 73.6975 248.183 73.7812 247.348C74.1784 247.535 74.7428 247.828 75.4745 248.1C79.7396 249.728 83.7329 248.851 85.28 248.517C93.7474 246.7 101.42 245.051 107.588 244.779C110.327 244.654 114.341 244.717 119.317 245.782C119.463 246.763 119.63 247.744 119.777 248.725C120.488 249.123 123.707 250.897 127.826 249.937C131.589 249.081 133.638 246.513 134.161 245.782C133.993 244.237 133.722 241.982 133.283 239.267C132.133 232.252 130.753 227.157 130.481 226.176C129.017 220.642 122.892 191.869 107.232 115.468C108.717 116.22 114.905 119.185 122.62 117.18C130.816 115.03 134.809 108.807 135.603 107.513C135.959 111.835 136.21 115.343 136.377 117.681C136.795 124.05 136.837 126.159 137.297 130.314C137.987 136.432 138.3 135.576 138.53 138.958C139.032 146.392 137.359 148.605 137.589 155.704C137.673 157.96 137.966 161.447 139.074 165.727C139.241 169.444 139.785 173.808 141.06 178.527C141.499 180.197 142.001 181.763 142.544 183.225C143.611 183.35 145.158 183.601 146.914 184.164C149.277 184.937 150.594 185.772 151.346 185.187C152.078 184.645 151.827 183.183 151.765 182.744C150.949 177.524 152.496 172.158 151.827 166.917C150.155 153.491 150.385 139.877 149.569 126.368C149.151 119.122 148.628 108.494 148.482 95.3813C148.9 93.2723 148.189 91.1008 146.579 89.7436C144.781 88.1984 142.189 87.9061 140.036 88.9919C138.468 88.6578 136.126 88.3446 133.429 88.9084C131.464 89.326 130.314 89.9733 128.641 90.6832C126.634 91.5393 123.623 92.5624 119.505 93.0635C114.508 92.5415 109.511 92.0195 104.515 91.4975C100.814 84.7532 97.1134 78.0297 93.3919 71.2854C92.8693 70.0952 92.3047 68.3621 92.5138 66.3159C92.6393 65.063 92.9738 64.6245 92.932 63.9355C92.8274 62.5783 91.4058 60.7826 85.4891 58.8825C96.1726 48.4214 99.6431 34.3481 94.6045 24.43C93.0156 21.3397 88.4578 14.4074 79.865 12.5908C73.4675 11.2127 68.1779 13.4261 66.2336 14.3657C66.1918 13.2172 66.2546 12.2776 66.3173 11.6303C66.38 10.7951 66.4844 10.2731 66.2963 9.58405C66.1081 8.89499 65.711 8.41476 65.4183 8.10156C65.5647 7.97629 66.4217 7.30807 66.5472 6.09705C66.6726 4.63541 65.6274 3.71667 65.5229 3.63315C65.5856 3.34082 65.7527 2.44299 65.2928 1.46161C64.8955 0.60553 64.2474 0.167023 63.9965 0C63.5574 0.250549 63.244 0.521973 63.014 0.7099C62.5331 1.16928 61.9059 1.73306 61.7596 2.61002C61.6969 2.98587 61.7385 3.2991 61.8012 3.5079C60.9859 3.86285 60.4215 4.59363 60.3588 5.40796C60.296 6.15967 60.6723 6.72345 60.7977 6.8905C60.5469 6.974 60.1916 7.14105 59.8779 7.45425C59.3553 7.99713 59.3134 8.76974 59.2089 10.294C59.1253 11.5259 59.0834 12.4446 59.0625 12.8622C57.9335 12.7161 55.7591 12.5908 53.3339 13.5096C51.8495 14.0733 50.7415 14.8459 50.0098 15.4514C48.0445 14.5953 44.1975 13.259 39.5352 13.9689C31.3396 15.2217 24.9212 22.1331 23.3114 29.5456C21.8897 36.0812 24.5659 41.4056 26.6357 45.5817C31.2143 54.7482 38.5317 59.7385 42.4414 61.9727C41.5633 62.0145 40.6642 62.0772 39.7861 62.1189C32.0505 58.3187 25.4857 57.6923 23.4159 60.3858C23.0187 60.9287 22.6423 61.7848 22.705 63.2047C22.4959 68.4456 21.9943 74.313 20.9908 80.6815C20.0709 86.6115 18.8372 92.0195 17.5201 96.822Z" fill="white"/>
<path d="M65.4805 43.9303C66.4422 41.8841 69.0556 42.1138 70.8118 42.8028L70.6235 43.0742C69.4527 44.8282 67.2574 44.2227 65.564 44.0347C67.1111 43.8259 69.2437 44.3062 70.1846 42.8237L70.331 43.1995C68.6584 42.5731 66.714 42.3852 65.4805 43.9303Z" fill="#06090C"/>
<path d="M65.9199 43.7845C66.7562 42.5108 68.8678 42.3856 69.9968 43.3252C68.5542 43.1164 67.2371 43.1373 65.9199 43.7845Z" fill="#06090C"/>
<path d="M68.3036 43.0762C68.68 43.3894 68.199 43.8906 67.9063 44.0994C67.8645 43.8279 67.8017 43.5356 67.7599 43.2642L68.1781 43.3894C67.8854 43.807 67.3629 43.995 66.882 44.0785L66.9865 43.6609C67.0702 43.3686 67.2791 43.1389 67.5509 43.0345L67.7183 43.473C67.4674 43.5774 67.1954 43.6191 66.9237 43.7026L66.882 43.4103C68.3455 43.5773 66.652 43.7235 66.1084 43.807L66.8191 43.4312C67.07 43.285 67.3 43.1389 67.5509 43.0345L67.7391 43.473C67.6137 43.5356 67.5091 43.6609 67.4882 43.7862L67.1746 43.473C67.5927 43.4103 67.9272 42.9718 68.1781 42.6586C68.199 42.9927 68.22 43.4521 68.1991 43.7862L67.9274 43.64C68.0946 43.5356 68.45 43.3477 68.3036 43.0762Z" fill="#06090C"/>
<path d="M66.6738 43.7217C66.9874 43.3458 67.4474 43.5129 67.6146 43.9305C67.1965 44.181 66.9874 44.0557 66.6738 43.7217Z" fill="#06090C"/>
<path d="M64.4788 41.3847C63.8935 44.0573 65.4196 46.8344 64.3325 49.3818C64.7088 46.73 63.1826 43.9738 64.4788 41.3847Z" fill="#06090C"/>
<path d="M64.4775 41.3837C65.1466 40.5694 66.7144 40.7155 67.6553 40.3606C68.7424 39.9012 70.3523 39.943 70.8332 41.3419L71.1259 42.1145L70.4569 41.6342C68.8679 40.6738 66.9235 41.8848 65.1883 41.8013C66.0873 41.6134 66.9653 41.2793 67.8643 41.0496C68.7842 40.7573 69.8925 40.632 70.7497 41.2375L70.3523 41.5298C69.8924 40.4232 68.8051 40.4232 67.7598 40.7782C66.7981 41.0496 65.0838 40.799 64.4775 41.3837Z" fill="#06090C"/>
<path d="M54.6919 40.9435C56.5945 39.8369 58.9781 41.1732 60.9224 41.5491C61.1524 41.5908 61.2987 41.4029 61.2569 41.3611L61.3822 41.5282C59.8978 40.7556 57.9117 40.1501 56.1973 40.3589C55.6119 40.505 55.0475 40.7765 54.5039 41.0479C55.0057 40.693 55.5283 40.3589 56.1346 40.1292C57.3472 39.7325 58.6645 40.1083 59.8771 40.3798C60.5252 40.5468 61.1733 40.7765 61.7587 41.1523C61.9051 41.7787 61.2778 42.1337 60.8806 42.0502C58.9571 41.6952 56.6154 40.1501 54.6919 40.9435Z" fill="#06090C"/>
<path d="M64.6025 35.2444C66.3796 36.9984 69.1184 36.9149 70.8328 38.7314C68.7839 37.5621 65.857 37.4995 64.6025 35.2444Z" fill="#06090C"/>
<path d="M54.5684 38.8784C57.7253 37.6465 60.7569 36.3728 63.8512 34.9529C61.1333 36.9783 57.8926 38.3355 54.5684 38.8784Z" fill="#06090C"/>
<path d="M70.7084 38.8143C71.7537 43.9718 72.7363 49.9018 69.0566 54.2449C72.0882 49.4842 71.022 44.097 70.7084 38.8143Z" fill="#06090C"/>
<path d="M62.8682 58.3791C65.377 57.7109 67.5096 56.2284 69.0776 54.1822C68.1786 56.6252 65.4815 58.4835 62.8682 58.3791Z" fill="#06090C"/>
<path d="M54.5039 42.9495C56.2601 41.5505 59.668 41.9472 60.567 44.1605C60.5251 44.1188 60.3788 43.9935 60.316 43.9517L60.5043 44.0352L60.4624 44.077C58.9153 42.4692 56.511 42.323 54.5039 42.9495Z" fill="#06090C"/>
<path d="M54.3779 43.1593C56.2805 44.1198 58.3504 43.7022 60.3993 44.0781C58.4132 44.433 55.9251 44.7462 54.3779 43.1593Z" fill="#06090C"/>
<path d="M58.7696 43.4506C58.895 43.6594 58.8951 43.9308 58.8114 44.1605L58.7696 44.0352C58.1842 42.5318 56.3027 43.4715 55.1319 43.7011L55.09 43.2418C56.0517 43.2418 57.0554 43.0121 58.1007 43.0539L58.1424 43.555C57.7033 43.6176 57.2643 43.7847 56.7834 43.8682L56.7626 43.4088C57.2852 43.4923 57.6824 43.4715 58.1842 43.3462L58.2052 43.722C57.7662 43.5967 57.348 43.8264 56.8044 43.8473L56.8253 43.5967C57.3897 43.8055 57.9751 43.9726 58.5605 43.8055C58.0169 44.0561 57.348 43.9726 56.7626 43.8473L56.0727 43.6803L56.7834 43.5967C57.5988 43.3671 58.1633 43.2627 59.0205 43.3879L58.2887 43.7011C57.4734 44.1187 56.3236 43.7847 55.4873 43.6176C56.3027 43.5132 57.2434 43.2835 58.0378 43.0539L58.0797 43.555C56.5953 43.6594 54.6301 43.7429 53.083 43.6594L55.0273 43.2418C56.1981 42.9912 58.5188 42.3022 58.8325 44.0143C58.6652 44.0561 58.9159 43.722 58.7696 43.4506Z" fill="#06090C"/>
<path d="M56.9297 43.8889C57.3687 43.5131 57.8705 43.4922 58.3305 43.8472C57.8915 44.2021 57.3896 44.223 56.9297 43.8889Z" fill="#06090C"/>
<path d="M57.4951 43.0532C58.415 42.6774 59.6486 42.9697 60.1504 43.8884C59.1886 43.5543 58.4568 43.4082 57.4951 43.0532Z" fill="#06090C"/>
<path d="M59.0215 52.0735C59.9623 52.2406 60.7986 51.3636 61.7813 51.5933C62.6594 51.8438 63.5792 51.9483 64.4573 51.8021C65.1473 51.8438 65.6699 52.2197 66.2971 52.0735C65.7117 52.4076 65.001 52.1571 64.4784 52.2197C63.9139 52.3241 63.1193 52.4703 62.5757 52.3032C61.9276 52.1362 61.4467 51.9274 60.8613 52.0526C60.2968 52.1153 59.6069 52.4285 59.0215 52.0735Z" fill="#06090C"/>
<path d="M59.083 52.1357C62.1773 55.0381 63.7035 55.1843 66.505 51.906C64.5398 55.8315 61.3828 55.7063 59.083 52.1357Z" fill="#06090C"/>
<path d="M59.3965 52.4922C60.4209 51.9076 61.6964 52.3043 62.7626 52.4087C63.8707 52.6384 64.9996 51.9494 66.0867 52.367C64.9369 52.367 63.9125 53.1395 62.7208 52.9307C61.5291 52.7846 60.5255 52.3252 59.3965 52.4922Z" fill="#06090C"/>
<path d="M59.5225 52.5127C61.9059 52.9512 63.3902 53.7237 65.8154 52.5753C63.9965 54.371 61.4668 53.6611 59.5225 52.5127Z" fill="#06090C"/>
<path d="M62.3036 54.7683L62.1364 55.2694L62.0526 55.1442C62.5126 55.0189 63.0145 54.9562 63.5372 55.0398C64.8334 55.2903 65.3141 56.6684 64.3524 57.5663C64.0597 57.9839 63.5789 58.2553 63.1398 58.4015C63.6834 57.9212 64.5825 56.9399 64.3316 56.2299C63.9344 55.3112 62.7843 55.3738 61.9062 55.2903C61.9481 55.2068 62.2408 54.8518 62.3036 54.7683Z" fill="#06090C"/>
<path d="M54.3174 37.144C55.76 35.2439 58.2688 34.1373 60.6522 34.367C58.3315 34.8681 56.2617 35.7868 54.3174 37.144Z" fill="#06090C"/>
<path d="M65.9824 34.8051C67.5714 34.5754 69.4323 35.2644 70.2267 36.7678C68.8887 35.7864 67.5295 35.3271 65.9824 34.8051Z" fill="#06090C"/>
<path d="M62.8685 58.3787C59.816 58.6084 55.9272 56.8127 54.3174 54.14C56.6172 56.3742 59.7742 57.8358 62.8685 58.3787Z" fill="#06090C"/>
<path d="M54.0879 33.9716C54.7352 35.5585 54.5891 37.3333 54.6517 38.9828C54.6935 43.9106 54.6726 49.3186 54.3385 54.1837C54.0671 49.3186 54.1296 43.8897 54.2549 38.9828C54.2549 37.3124 54.5473 35.6002 54.0879 33.9716Z" fill="#06090C"/>
<path d="M53.9418 33.8033C53.5655 34.7846 53.1683 35.7034 52.7293 36.6221C52.6038 36.5386 51.7884 35.9957 51.642 35.8913C51.5375 35.7869 51.2449 35.6407 51.3703 35.6825C51.4539 36.2463 51.3284 37.3112 51.3284 38.0211L50.973 37.8541C51.9138 37.2485 53.0219 36.9145 54.109 36.8936C54.0881 36.9145 53.9419 37.0397 53.921 37.0606L54.0464 36.8936L54.0672 36.9353C52.8755 37.2276 51.8093 37.7705 50.8684 38.4805C50.8684 37.6244 50.8477 36.7474 50.8895 35.8913C50.9313 35.7451 50.8058 35.4111 51.2658 35.2023C51.7675 35.2232 51.7256 35.432 51.9138 35.4946L52.7711 36.1419L52.4365 36.2463C52.9173 35.4111 53.4192 34.5758 53.9418 33.8033Z" fill="#06090C"/>
<path d="M51.3078 38.0431C51.036 38.0431 51.1196 38.419 51.0987 38.6278C51.0778 39.3377 51.1196 40.0685 51.2659 40.7785L51.0987 40.5905C51.9141 40.6114 53.0221 39.1498 54.1511 39.1289C54.2556 39.0872 54.3393 39.296 54.2348 39.296C54.3393 39.0036 53.6492 39.5257 53.5447 39.5883C52.7084 40.0477 51.8932 41.4884 50.7851 41.0081C50.6597 40.1938 50.6597 39.3795 50.8896 38.586C50.9524 38.3981 50.9942 37.9805 51.3078 38.0431Z" fill="#06090C"/>
<path d="M51.3072 41.0907C51.8508 49.6308 51.9135 61.971 52.0389 70.6572C51.2445 60.9896 51.1608 50.7792 51.3072 41.0907Z" fill="#06090C"/>
<path d="M54.3804 54.0587C54.8195 59.5711 54.0459 65.1879 55.3212 70.5541C56.7638 75.8577 57.8928 81.4328 57.3074 86.9661C57.4537 81.391 56.4084 75.983 54.7986 70.6585C53.7114 65.1461 54.3804 59.5711 54.3804 54.0587Z" fill="#06090C"/>
<path d="M69.4736 33.323C70.6026 34.9517 71.1254 36.9979 70.9163 38.9607C70.4145 37.0397 69.9545 35.244 69.4736 33.323Z" fill="#06090C"/>
<path d="M70.2274 36.77C70.6867 36.8535 70.8536 37.1459 70.7284 37.5844C70.269 37.5008 70.0812 37.2085 70.2274 36.77Z" fill="#06090C"/>
<path d="M69.8301 32.9897C70.5618 33.1985 71.0218 33.9084 71.3354 34.5348C72.4017 36.6229 73.2588 38.8779 73.0707 41.2792L72.7571 40.966C72.1089 40.3187 71.3982 39.734 70.8546 38.9823C71.44 39.5252 72.4016 40.1516 73.0288 40.6736L72.6944 40.8198C72.6526 39.4 72.2554 38.0427 71.7954 36.6855C71.2727 35.6206 70.98 33.5952 69.8301 32.9897Z" fill="#06090C"/>
<path d="M70.583 35.4327C71.1266 35.6624 71.5031 36.0174 71.7958 36.4767L71.4193 36.5394C71.7329 35.6833 71.9629 35.8086 71.8374 36.7064L71.7958 37.0614C71.2522 36.6229 70.7921 36.1427 70.583 35.4327Z" fill="#06090C"/>
<path d="M51.4527 35.3486C51.1182 34.3255 51.5992 33.1144 52.5609 32.6133L51.4527 35.3486Z" fill="#06090C"/>
<path d="M54.3998 34.5348C54.0658 34.1589 54.2119 33.6578 54.6713 33.4699C54.8592 33.9501 54.7757 34.2007 54.3998 34.5348Z" fill="#06090C"/>
<path d="M71.7744 46.8336C72.6316 59.0904 78.3183 70.1152 80.869 81.9961C77.712 70.3031 71.9835 59.153 71.7744 46.8336Z" fill="#06090C"/>
<path d="M72.7568 40.0251C74.4085 54.7248 77.8791 69.0278 81.6842 83.2682L78.6316 72.6401C75.2656 62.1164 73.7813 51.0081 72.7568 40.0251Z" fill="#06090C"/>
<path d="M71.5434 45.5186C71.9818 46.1241 72.0654 46.8549 71.794 47.5648C71.3555 46.9175 71.2719 46.2494 71.5434 45.5186Z" fill="#06090C"/>
<path d="M76.3955 68.3831C77.7963 71.1393 77.5244 74.3549 77.9217 77.3408C78.2144 80.3684 78.7579 83.3543 79.0924 86.382C77.0644 80.0761 77.7963 74.167 76.3955 68.3831Z" fill="#06090C"/>
<path d="M76.3314 68.9246C76.9377 75.3767 77.7741 81.8078 78.9658 88.1763C79.0077 88.4477 79.1957 89.0741 79.5093 88.9071C79.4048 88.6148 79.3212 87.3828 79.0285 86.7982C79.3212 87.4872 79.6766 88.3224 79.6557 89.0533C79.0912 89.45 78.7358 88.6356 78.6731 88.2389C77.1678 81.9122 76.3105 75.4184 76.3314 68.9246Z" fill="#06090C"/>
<path d="M78.6943 85.399C79.2581 86.4848 79.4668 87.6332 79.3415 88.8442C78.7777 87.7585 78.569 86.61 78.6943 85.399Z" fill="#06090C"/>
<path d="M78.9028 85.5646C79.4456 86.3581 79.6543 87.2559 79.5082 88.1956C78.9653 87.4021 78.7566 86.5043 78.9028 85.5646Z" fill="#06090C"/>
<path d="M53.376 67.276C54.1704 71.3059 55.9266 75.0017 56.8256 79.0107C55.2576 75.2523 53.4805 71.4103 53.376 67.276Z" fill="#06090C"/>
<path d="M53.1055 67.9029C54.7989 73.9164 55.7816 80.1387 56.0325 86.382C55.3216 81.7674 53.8581 72.5174 53.1055 67.9029Z" fill="#06090C"/>
<path d="M52.1221 69.821C52.9793 75.6048 54.6519 81.7228 52.8748 87.4648C53.962 81.5975 52.2684 75.7301 52.1221 69.821Z" fill="#06090C"/>
<path d="M54.2742 77.6107C54.776 81.1395 55.0688 85.0024 53.9816 88.4059C53.7935 88.6355 53.5007 88.7817 53.208 88.6982C52.9362 88.6355 52.748 88.3223 52.8526 88.0718C52.748 88.6564 53.5844 88.7399 53.7726 88.2597C54.4207 84.8353 54.1279 81.1395 54.2742 77.6107Z" fill="#06090C"/>
<path d="M52.8535 87.0484C53.3553 87.0275 53.5435 87.1111 53.8362 87.5495C53.3971 87.821 52.8953 87.5704 52.8535 87.0484Z" fill="#06090C"/>
<path d="M53.3342 86.5679C53.0624 86.3173 53.5853 85.9832 53.8153 86.1712C53.8362 86.192 53.8779 86.2964 53.9825 86.2129C54.1288 86.2964 54.0243 86.5053 53.9198 86.547C53.5435 86.7976 53.4597 86.4217 53.3342 86.5679Z" fill="#06090C"/>
<path d="M52.8119 87.7584C52.5819 87.2991 53.0419 86.7979 53.5436 87.0067C53.3555 87.487 53.2928 87.5496 52.8119 87.7584Z" fill="#06090C"/>
<path d="M53.668 84.7505C53.9185 84.4164 54.3152 84.5626 54.2526 85.0011C53.8559 85.1472 53.8559 85.1263 53.668 84.7505Z" fill="#06090C"/>
<path d="M53.5859 83.1857C53.9827 82.9978 54.0663 82.9978 54.3378 83.3528C54.1081 83.7286 53.6486 83.6451 53.5859 83.1857Z" fill="#06090C"/>
<path d="M53.6074 80.9717C53.6492 80.5541 54.1711 80.6377 54.0876 81.0553C53.7327 81.2641 53.8789 81.2849 53.6074 80.9717Z" fill="#06090C"/>
<path d="M53.3555 79.5096C53.3555 79.0711 53.7939 78.9667 54.0027 79.3425C53.773 79.6975 53.7313 79.6975 53.3555 79.5096Z" fill="#06090C"/>
<path d="M53.6895 81.9331C53.9191 81.6408 54.107 81.6825 54.1697 82.0584C53.9191 82.3716 53.7521 82.3089 53.6895 81.9331Z" fill="#06090C"/>
<path d="M54.7559 77.944C55.8221 81.3475 55.4665 85.0642 55.5293 88.5303C55.6129 89.282 55.8011 88.4677 55.822 87.9039L56.073 86.1291V87.9248C56.0521 88.3215 56.1984 89.3655 55.3831 89.115C55.1531 88.9062 55.1949 88.76 55.1321 88.6138C54.8604 85.0224 55.2576 81.5563 54.7559 77.944Z" fill="#06090C"/>
<path d="M56.0939 88.5517C56.3448 88.9484 56.5957 88.5517 56.6793 88.2385C56.8465 87.8418 57.014 87.445 57.3694 87.111C57.4112 87.5912 57.2857 88.0088 57.1603 88.4264C57.0558 88.6143 56.9511 88.9067 56.6166 89.0111C56.2821 89.1363 55.9476 88.7814 56.0939 88.5517Z" fill="#06090C"/>
<path d="M57.2858 87.4463C56.9308 86.8408 56.9308 86.1935 57.2858 85.5671C57.6407 86.1935 57.6407 86.8408 57.2858 87.4463Z" fill="#06090C"/>
<path d="M56.7209 83.999C57.0341 85.565 56.9923 87.1519 56.6165 88.6761C56.3033 87.1101 56.3242 85.565 56.7209 83.999Z" fill="#06090C"/>
<path d="M56.8466 88.6973C56.8048 88.0082 56.93 87.5489 57.285 86.9642C57.64 87.5489 57.4312 88.3423 56.8466 88.6973Z" fill="#06090C"/>
<path d="M55.4658 76.8162C56.6993 79.5306 57.2221 82.6001 56.9503 85.5651C56.5113 82.6001 56.0303 79.7395 55.4658 76.8162Z" fill="#06090C"/>
<path d="M51.4952 64.9145C51.8715 68.84 50.7843 72.7446 49.4672 76.3987L47.3138 81.8485C46.6029 83.5815 45.8502 85.6695 47.0628 87.3608C45.6621 85.7739 46.2685 83.4562 46.9375 81.7023L48.9655 76.2317C50.3245 72.5985 51.4534 68.84 51.4952 64.9145Z" fill="#06090C"/>
<path d="M52.0382 70.1554C51.7246 73.2039 50.7001 76.1898 49.2784 78.9042C47.8149 81.6396 47.9404 84.7299 48.2749 87.7158L48.3376 88.3213L47.8984 87.9037C45.745 85.7321 46.874 82.5166 48.0866 80.2197C47.1249 82.4957 46.1631 85.6486 48.212 87.5905L47.8357 87.7784C47.4176 84.7507 47.2922 81.4308 48.8602 78.6954C50.3028 75.981 51.4737 73.1831 52.0382 70.1554Z" fill="#06090C"/>
<path d="M47.2925 86.8804C46.8749 85.8572 46.9375 84.7297 47.4387 83.7692C47.6266 84.8341 47.5848 85.8155 47.2925 86.8804Z" fill="#06090C"/>
<path d="M46.5604 86.7157C46.9367 87.1124 46.9158 87.0916 47.2921 87.5092C46.8322 87.9894 46.0377 87.1333 46.5604 86.7157Z" fill="#06090C"/>
<path d="M71.817 48.7135C72.1724 54.5182 72.5696 60.4273 75.0576 65.7518C75.8102 67.5058 77.1483 69.0927 77.4619 71.0763C76.9601 69.1553 75.5384 67.7146 74.7021 65.9397C72.0051 60.657 71.5661 54.5182 71.817 48.7135Z" fill="#06090C"/>
<path d="M77.6494 76.5865C79.6147 80.9505 80.848 85.7112 81.2453 90.4928C80.1372 85.8156 78.9666 81.2011 77.6494 76.5865Z" fill="#06090C"/>
<path d="M81.5792 90.5786C81.8301 89.8896 81.6418 89.2214 81.4537 88.5741C80.7428 86.6114 80.1785 84.4816 80.2621 82.3727C80.7848 84.4398 81.3074 86.4234 81.851 88.4697C81.9973 89.1588 81.9974 89.9731 81.5792 90.5786Z" fill="#06090C"/>
<path d="M77.7324 75.9833C80.5967 80.3473 82.5202 85.4003 83.3147 90.5786C81.8302 85.5465 79.9904 80.7022 77.7324 75.9833Z" fill="#06090C"/>
<path d="M83.2522 89.8267C83.4194 90.2652 84.0674 89.9937 84.0047 89.5761C83.503 86.6738 81.1406 84.3352 80.7852 81.3493C81.7887 84.1473 84.172 86.5276 84.2556 89.6179C84.2347 90.1608 83.3358 90.3696 83.2522 89.8267Z" fill="#06090C"/>
<path d="M80.4297 83.4362C81.4541 85.733 81.454 88.3848 82.813 90.3893L82.3948 90.452C82.7921 89.2618 82.2694 87.8211 82.2276 86.5474C82.4158 87.1947 82.6249 87.8419 82.7921 88.5101C83.0012 89.2618 83.0848 90.2014 82.6876 91.0157L82.4159 90.6608C80.8687 88.5519 80.9942 85.8792 80.4297 83.4362Z" fill="#06090C"/>
<path d="M81.7061 87.9659C82.4169 88.1956 82.7724 88.2373 83.525 88.2582C83.1278 88.989 81.8315 88.7802 81.7061 87.9659Z" fill="#06090C"/>
<path d="M81.6426 87.6962C82.0398 87.3621 82.1235 87.3412 82.6253 87.3621C82.6462 87.9049 81.9562 88.1346 81.6426 87.6962Z" fill="#06090C"/>
<path d="M81.3291 86.5461C81.7263 86.2329 81.7681 86.212 82.2907 86.212C82.3535 86.7548 81.6009 87.0054 81.3291 86.5461Z" fill="#06090C"/>
<path d="M79.4258 81.138C79.4467 80.7413 79.9268 80.8457 79.7598 81.2215C79.4257 81.4512 79.6346 81.493 79.4258 81.138Z" fill="#06090C"/>
<path d="M78.8604 78.5308C80.1148 80.5979 80.8883 82.9783 81.0764 85.4004C80.1983 83.1244 79.4667 80.8902 78.8604 78.5308Z" fill="#06090C"/>
<path d="M63.7871 62.3257C63.139 60.1541 64.8744 57.9199 66.6725 56.8759C65.3553 58.5254 63.9335 60.1333 63.7871 62.3257Z" fill="#06090C"/>
<path d="M65.46 65.1674C64.2474 59.9473 67.7807 54.6645 72.1503 52.0754C68.2406 55.3327 65.0419 59.8638 65.46 65.1674Z" fill="#06090C"/>
<path d="M73.8857 27.8525C78.778 27.4975 82.8966 32.467 81.7886 37.2277C81.2868 39.5663 80.0114 41.55 78.8824 43.5545C77.7116 45.5172 76.29 47.48 74.3247 48.7119C76.1854 47.3129 77.4189 45.3293 78.5269 43.3457C79.5932 41.3203 80.8477 39.3367 81.2867 37.1233C82.353 32.5714 78.5689 27.9151 73.8857 27.8525Z" fill="#06090C"/>
<path d="M74.1778 48.7953C74.1361 48.4195 74.2406 48.3568 74.512 48.6283C74.5538 48.9832 74.4493 49.0459 74.1778 48.7953Z" fill="#06090C"/>
<path d="M74.0117 49.0256C74.137 48.608 74.1578 48.5871 74.5963 48.6289C74.7425 49.0465 74.3458 49.3179 74.0117 49.0256Z" fill="#06090C"/>
<path d="M75.3914 21.0234C75.475 25.3665 73.7607 31.5262 69.1611 33.0087C73.3844 30.7954 74.6806 25.3873 75.3914 21.0234Z" fill="#06090C"/>
<path d="M59.7536 32.7793C58.6246 32.7375 58.6247 30.2945 59.7328 30.1275C60.0673 30.0648 60.4435 30.211 60.339 29.8561C60.3181 29.7517 60.0045 29.7934 60.0254 30.0231C59.9208 29.8352 60.1718 29.4802 60.4854 29.6473C60.7363 29.8143 60.7363 30.2319 60.4645 30.4198C60.0673 30.6913 59.7537 30.4198 59.5656 30.8374C59.3565 31.3803 59.0846 32.3617 59.7536 32.7793Z" fill="#06090C"/>
<path d="M60.3379 29.522C59.7525 29.5011 59.8153 28.5197 60.3798 28.4571C60.5261 28.4153 60.7143 28.478 60.7979 28.6033C60.6725 28.6659 60.5888 28.7494 60.547 28.8121C60.3797 29.0626 60.317 29.0835 60.3379 29.522Z" fill="#06090C"/>
<path d="M60.7774 28.5C60.6311 28.0824 60.861 27.5604 61.3001 27.3307C61.8018 26.8922 63.1399 27.5813 62.4918 28.3329C62.22 28.6253 61.6136 28.4791 61.6345 28.0406C61.76 27.4351 62.3662 27.1428 62.8471 26.9131C62.5753 27.2054 62.1782 27.7901 62.0737 27.9989C62.1573 27.978 62.1781 27.978 62.1572 27.9153C61.8854 27.3307 60.7983 27.8318 60.7774 28.5Z" fill="#06090C"/>
<path d="M62.9941 26.9349C63.8513 27.0393 63.6006 25.6194 64.6877 25.8282C65.4404 26.2667 65.5031 27.7283 64.4787 27.8954L64.2696 27.9163C63.9769 27.2272 64.4367 25.9117 65.3566 26.2458C65.5657 26.392 65.6285 26.7261 65.4403 26.8514C65.5867 26.6843 65.3985 26.4546 65.2731 26.4129C64.7295 26.392 64.5623 27.1854 64.6877 27.6031C64.1651 27.269 64.7085 27.5822 64.7294 26.914C64.583 25.0974 63.7886 27.4778 62.9941 26.9349Z" fill="#06090C"/>
<path d="M65.6484 26.8491C66.422 26.6403 67.4673 27.7261 67.0701 28.5404C66.7983 28.8327 66.2547 28.7074 66.2965 28.2272C66.5892 27.6634 67.2791 27.6008 67.8018 27.8513C68.4499 28.2063 68.45 29.1668 67.8437 29.5635C67.6137 29.7097 67.2375 29.8141 67.0911 29.3965C67.1747 28.8327 67.6345 29.0415 67.76 29.1041C68.3245 29.3965 68.3037 30.1064 68.1991 30.6075C68.1573 30.1273 68.0737 29.5844 67.6346 29.3965C67.4883 29.2921 67.4046 29.5009 67.4882 29.3339C67.3628 29.1877 67.53 29.2921 67.5928 29.1877C68.2409 28.4986 67.342 27.9766 66.7356 28.3316C66.7356 28.2063 66.6938 28.2272 66.7356 28.2481C66.882 27.8931 66.3593 26.8282 65.6484 26.8491Z" fill="#06090C"/>
<path d="M68.1781 30.861C68.2408 31.2786 67.6345 31.5709 67.2373 31.216C67.6764 30.3599 68.9518 31.0072 68.5128 31.905C67.781 32.4897 68.2199 33.5337 67.4464 33.9722C67.8645 33.4084 67.3629 32.8029 67.781 32.0303C67.8855 31.7797 68.1572 31.6753 68.0736 31.4039C68.0318 31.2577 67.7809 31.1742 67.5928 31.2995L67.5719 31.0489C67.6765 31.1742 68.0736 31.1742 68.1781 30.861Z" fill="#06090C"/>
<path d="M60.6726 32.8436C60.589 33.0733 60.8189 33.3239 60.9444 33.1359C61.1325 32.9898 60.8607 32.8019 60.6307 32.8854C60.9444 32.1963 61.8433 32.948 61.3206 33.4909C60.8189 34.0338 60.0036 33.1986 60.6726 32.8436Z" fill="#06090C"/>
<path d="M62.114 33.8024C62.2185 34.0112 62.365 33.9485 62.3441 33.8859C62.3232 33.9903 62.4068 33.7189 62.1977 33.5518C62.4277 33.3639 62.8458 33.5727 62.8249 33.9486C62.7622 34.6585 61.6331 34.3035 62.114 33.8024Z" fill="#06090C"/>
<path d="M63.5372 33.9719C63.6209 34.2225 63.8926 34.1181 63.7671 34.1181C63.7253 34.1181 63.7462 34.1598 63.7671 34.0972C63.7462 34.0554 63.8089 33.9719 63.7253 33.9719C63.788 33.951 63.6625 33.8675 63.6207 33.9719C63.4744 33.5961 64.1434 33.617 64.2061 33.9719C64.2688 34.139 64.2689 34.4313 64.018 34.5357C63.4954 34.7445 63.2445 34.1181 63.5372 33.9719Z" fill="#06090C"/>
<path d="M65.8154 33.5101C66.2963 33.1969 66.5473 34.0739 66.0455 34.2409C65.5228 34.4497 65.1465 33.6354 65.7319 33.531C65.6692 33.7189 65.8364 33.8651 65.8573 33.7398C65.9409 33.8233 65.9827 33.6145 65.8154 33.5101Z" fill="#06090C"/>
<path d="M63.2021 28.3333C61.2995 29.1059 61.5296 32.0083 63.2858 32.6764C63.8294 32.8435 64.4774 32.6347 65.0419 32.4676C66.3172 32.2379 66.4009 30.6719 65.8573 29.6279C65.3555 28.5839 63.8711 27.6234 62.8258 28.5212C63.8084 27.4146 65.6065 28.3124 66.2128 29.4191C66.9863 30.5884 66.7355 32.6138 65.2093 32.9687C64.5403 33.1358 63.8293 33.3655 63.1394 33.1149C61.0487 32.3632 60.9859 28.8971 63.2021 28.3333Z" fill="#06090C"/>
<path d="M59.607 33.0092C59.6487 33.3433 59.8367 33.2389 60.0038 33.7191C59.4818 34.1159 58.897 33.0927 59.607 33.0092Z" fill="#06090C"/>
<path d="M60.3164 34.4305C62.8043 34.6184 65.2505 35.1613 67.6339 34.1173C65.6059 35.8295 62.5744 35.3283 60.3164 34.4305Z" fill="#06090C"/>
<path d="M67.6982 33.7214C68.1164 33.1785 68.6599 32.9488 69.329 33.0532C68.9317 33.5961 68.3882 33.8258 67.6982 33.7214Z" fill="#06090C"/>
<path d="M50.7832 30.8814C53.6893 32.4683 56.7835 33.4288 60.0869 33.7629C56.7835 34.1805 53.2711 33.0738 50.7832 30.8814Z" fill="#06090C"/>
<path d="M50.7617 31.8188C53.5633 33.0925 56.4484 33.8442 59.5008 34.1782C56.4484 34.575 53.2078 33.698 50.7617 31.8188Z" fill="#06090C"/>
<path d="M50.8887 31.6946C50.2832 31.9661 50.2832 30.7133 50.8887 31.0056C50.847 31.1726 50.9094 31.2353 50.9303 31.3397C50.9094 31.4649 50.847 31.5067 50.8887 31.6946Z" fill="#06090C"/>
<path d="M50.8885 30.8584C49.1741 27.5384 48.2959 23.7591 48.3586 20.0424C49.0067 23.7173 49.8222 27.267 50.8885 30.8584Z" fill="#06090C"/>
<path d="M49.7803 40.8389C48.6304 37.9156 49.0067 34.366 50.7211 31.7351C49.6758 34.7001 49.3622 37.7277 49.7803 40.8389Z" fill="#06090C"/>
<path d="M51.076 42.0101C49.487 39.8803 48.2954 41.6551 48.8599 43.597C49.1317 45.2883 49.947 46.8335 51.1178 48.1489C49.6543 47.1467 48.6717 45.4554 48.3372 43.6805C48.2536 42.8453 48.0236 41.7595 48.8599 41.0078C49.7589 40.2353 50.7415 41.1749 51.076 42.0101Z" fill="#06090C"/>
<path d="M50.8894 43.2224C50.3459 42.5542 49.4258 41.6981 49.5721 43.2642C49.5721 44.162 50.0321 45.0181 50.7639 45.6654C50.283 45.5192 49.844 45.206 49.5513 44.7675C48.2551 43.0554 49.6977 40.2783 50.8894 43.2224Z" fill="#06090C"/>
<path d="M51.036 48.1271C51.496 49.5887 51.2871 51.2591 50.4717 52.5537C50.5971 51.0294 50.7851 49.6514 51.036 48.1271Z" fill="#06090C"/>
<path d="M74.4512 48.7761C76.061 49.6531 77.5665 50.4883 79.1136 51.5323C79.3854 51.7202 79.4061 52.1796 79.3643 52.3466C79.3016 52.9313 79.678 53.4533 80.1798 53.7665C80.8906 54.205 81.8941 54.0797 82.7513 53.85C83.504 54.8523 84.4029 55.7293 85.4274 56.481C84.3193 55.9381 83.3158 55.1655 82.5004 54.2259L82.7305 54.2885C81.8524 54.56 80.8279 54.6852 79.9289 54.205C79.4898 53.9544 79.1134 53.5577 78.9462 53.0775C78.7371 52.5554 79.0091 51.929 78.8 51.8873C77.5038 50.9894 75.6847 49.7366 74.4512 48.7761Z" fill="#06090C"/>
<path d="M77.002 46.4565C78.34 46.9158 79.6154 47.7302 80.9535 48.106C81.8525 48.0225 82.8561 48.0434 83.6087 48.5863C84.4032 49.0874 84.8003 50.0479 84.884 50.9666C85.4275 52.2403 86.8493 52.9502 87.7901 54.0151C86.6611 53.0964 85.0513 52.5118 84.445 51.0919C84.3405 50.2567 84.0686 49.4841 83.3159 49.0247C82.6469 48.5027 81.7061 48.5027 80.9116 48.5445C79.469 48.1478 78.2982 47.1664 77.002 46.4565Z" fill="#06090C"/>
<path d="M82.7295 50.4033C81.4751 49.5472 80.0743 51.4264 81.0778 52.3869C81.8932 53.1595 82.8758 52.3869 82.9594 51.4055C83.0222 51.0715 83.1477 50.6956 82.8759 50.4242C83.4613 50.9044 83.2104 51.9276 82.9386 52.5331C82.4996 53.3265 81.3286 53.3683 80.7223 52.7628C79.3425 51.3847 81.3288 49.0043 82.7295 50.4033Z" fill="#06090C"/>
<path d="M85.2583 53.2213C84.0875 53.7016 85.5929 55.9776 85.9065 54.2863C85.9065 53.9313 85.6974 53.5346 85.4884 53.1587C85.8229 53.4302 86.1991 53.7225 86.3036 54.2445C86.4081 54.7247 86.0738 55.4347 85.3838 55.3929C84.2339 55.2258 84.1084 53.2631 85.2583 53.2213Z" fill="#06090C"/>
<path d="M77.8584 48.1054C76.7713 48.4186 77.7956 49.9846 78.5065 49.7132C79.3846 49.4209 78.9246 47.8131 77.9419 48.0219C78.4019 47.7087 79.1338 48.0428 79.3219 48.6274C79.8864 50.2352 77.7746 50.8825 77.1683 49.3582C76.8756 48.8571 77.2103 48.001 77.8584 48.1054Z" fill="#06090C"/>
<path d="M81.8105 33.7002C82.835 33.0111 84.2357 32.8441 85.4274 32.865C85.741 32.8441 85.8665 32.4683 86.201 32.1133C86.8282 31.4451 87.7273 31.0484 88.6472 31.1319C89.5671 31.2155 90.4244 31.7166 90.9262 32.4474L90.6961 32.3639C92.0132 32.0924 93.3514 31.9671 94.6894 32.0298C93.3096 32.1968 91.9713 32.4683 90.6542 32.8441C90.2151 32.1551 89.4207 31.6748 88.6053 31.6331C87.8736 31.5913 87.0793 31.8836 86.5357 32.4265C86.2848 32.6353 86.0966 33.2199 85.4903 33.2826C84.1941 33.1991 83.0232 33.1782 81.8105 33.7002Z" fill="#06090C"/>
<path d="M81.6426 37.7708C83.3988 37.4159 85.0504 36.9565 86.8693 36.8939C87.9565 37.2906 89.0019 37.5411 89.9009 36.7268C90.1099 36.5389 90.1935 36.3301 90.4862 36.0587C91.7407 35.5158 93.5386 36.0378 94.9394 35.996C93.6013 36.2257 92.0125 36.0378 90.779 36.3927C90.3191 37.1027 89.441 37.8126 88.5211 37.7917C87.8312 37.8335 87.3083 37.5203 86.7856 37.3741C85.1131 37.4159 83.357 37.7082 81.6426 37.7708Z" fill="#06090C"/>
<path d="M88.2915 32.9901C87.5598 33.0736 87.3717 33.8671 87.2672 34.4726C87.1208 35.7254 89.546 35.4122 89.5251 34.1176C89.5878 33.533 89.0861 32.8857 88.3752 32.8857C89.0652 32.656 89.9222 33.2824 89.9222 34.1176C89.985 35.4122 88.3542 36.2265 87.3088 35.5166C86.2217 34.932 87.2044 32.823 88.2915 32.9901Z" fill="#06090C"/>
<path d="M83.6918 34.1179C83.1064 34.285 83.0019 34.9531 82.9392 35.4543C82.9601 36.4356 84.8626 36.1224 84.8208 35.0993C84.8836 34.6399 84.4654 34.097 83.88 34.0762C84.4445 33.8882 85.2179 34.3685 85.2179 35.0993C85.3852 36.8115 82.3746 37.1247 82.5419 35.3916C82.6673 34.8279 83.0227 34.0762 83.6918 34.1179Z" fill="#06090C"/>
<path d="M93.016 33.427C92.4516 33.3226 92.1796 33.9281 92.3259 34.3039C92.5768 35.2436 93.9777 35.0556 93.9777 34.0951C93.9986 33.6984 93.4549 33.427 92.9532 33.3226C93.5176 33.2391 94.2705 33.3643 94.375 34.0534C94.5632 35.6612 92.1588 35.9535 91.9288 34.3666C91.8034 33.7611 92.4516 33.072 93.016 33.427Z" fill="#06090C"/>
<path d="M77.252 28.4789C77.4401 26.5788 77.6702 24.6578 77.9629 22.7368C78.8619 22.7994 79.7607 22.173 79.9907 21.317C80.2416 20.4609 79.7608 19.4586 78.9664 19.0619C79.6354 17.3914 80.0535 15.6375 80.1789 13.8209C80.3044 15.5749 80.0534 17.3706 79.468 19.041L79.3635 18.7695C80.2625 19.2915 80.7434 20.4191 80.4925 21.4422C80.1999 22.4654 79.2173 23.1962 78.1719 23.1962L78.4018 23.0291C78.0673 24.8457 77.691 26.6623 77.252 28.4789Z" fill="#06090C"/>
<path d="M65.502 14.9485C69.307 15.4078 73.8439 17.2871 75.4747 21.0038C73.2167 17.7047 69.1816 16.1595 65.502 14.9485Z" fill="#06090C"/>
<path d="M74.8487 19.7925C74.6815 19.187 75.0786 18.5606 75.4968 18.1847C76.3331 16.7857 76.1241 14.8021 76.8349 13.2361C76.6886 14.8438 76.8766 17.1407 75.8104 18.4353C75.3086 18.8111 74.8905 19.1661 74.8487 19.7925Z" fill="#06090C"/>
<path d="M76.6236 19.2921C76.1846 19.8767 76.1637 20.6911 76.5191 21.2131C77.4808 22.445 79.1535 21.1505 78.2754 19.8559C77.9618 19.313 77.1672 19.0624 76.4772 19.3339C77.0626 18.8745 78.0871 18.9371 78.6098 19.6262C79.1325 20.2526 79.1324 21.3384 78.4216 21.923C76.5817 23.0714 75.0765 20.5031 76.6236 19.2921Z" fill="#06090C"/>
<path d="M75.0563 25.9939C75.4117 26.4533 76.1226 26.3071 76.3944 25.9939C76.9798 25.284 76.039 23.718 75.3072 24.7829C75.0145 25.1796 74.9308 25.7851 75.2235 26.2862C74.4709 25.6807 74.7008 24.1773 75.7462 23.9476C76.917 23.8224 77.4607 25.4928 76.6662 26.2654C76.1644 26.7456 75.2445 26.5786 75.0563 25.9939Z" fill="#06090C"/>
<path d="M77.7959 15.0543C77.0432 15.806 77.6287 17.4973 78.6532 16.7665C79.2177 16.4324 79.0295 15.2005 78.3814 15.0335C78.1723 15.0126 77.8587 15.1796 77.8169 15.4511C77.8169 14.5741 78.8832 14.6367 79.2177 15.3049C79.5731 15.8269 79.573 16.7039 78.9876 17.1841C77.4196 18.2073 76.3951 15.8895 77.7959 15.0543Z" fill="#06090C"/>
<path d="M77.043 13.0903C78.0674 12.6727 79.28 12.9024 80.0745 13.6749C78.9873 13.5496 78.1092 13.3826 77.043 13.0903Z" fill="#06090C"/>
<path d="M95.3155 32.0912C95.9845 34.2836 95.6709 36.664 95.1691 38.8773C93.7265 45.5172 90.6323 52.011 85.6982 56.7926C90.1724 51.6143 93.1412 45.3711 94.7928 38.7729C95.3364 36.6013 95.7964 34.3254 95.3155 32.0912Z" fill="#06090C"/>
<path d="M85.74 56.7305C83.4611 59.445 80.4924 61.5957 77.21 62.9529C80.1579 60.9693 82.9594 58.9439 85.74 56.7305Z" fill="#06090C"/>
<path d="M80.3252 13.8416C88.7298 15.2824 95.3992 23.885 95.1274 32.3207C94.5838 23.9686 88.479 16.0549 80.3252 13.8416Z" fill="#06090C"/>
<path d="M66.5889 15.0332C69.6204 13.321 73.3 12.6946 76.7288 13.321C73.2373 13.4254 69.8922 13.9683 66.5889 15.0332Z" fill="#06090C"/>
<path d="M48.4 19.9606C47.3964 14.824 55.9056 12.9865 59.6898 13.6547C57.2646 13.6965 54.8812 14.1141 52.6859 15.0537C50.6161 15.8889 48.0446 17.3505 48.4 19.9606Z" fill="#06090C"/>
<path d="M50.5119 29.7525C47.5013 28.8965 44.0727 29.3141 41.6475 31.235C33.6819 38.0838 43.7799 50.09 51.1392 52.9297C44.4489 50.7164 36.6298 42.3225 38.6159 34.8056C40.2049 30.024 46.0587 28.0195 50.5119 29.7525Z" fill="#06090C"/>
<path d="M58.7275 57.2935C64.2261 59.9244 66.2958 66.6061 67.8011 72.0768C65.564 66.7941 63.808 60.53 58.7275 57.2935Z" fill="#06090C"/>
<path d="M63.5374 4.36142C61.0704 3.50533 62.032 1.83491 63.5582 0.561216C64.4781 -0.357518 65.3563 2.04373 65.2727 2.8163C65.3354 3.71415 64.3318 4.75816 63.4537 4.21527C64.3109 4.50759 64.98 3.58887 64.8545 2.8163C64.8336 2.08549 64.3528 1.12496 63.9556 0.853519C64.1228 0.790879 63.7673 1.04147 63.6628 1.14587C62.3665 2.18989 61.6976 3.33829 63.5374 4.36142Z" fill="#06090C"/>
<path d="M62.5331 3.73571C59.8361 4.50828 61.1115 7.3898 63.3486 7.68212C65.3138 8.18325 66.3593 5.71933 65.4184 4.19507C65.3139 3.98627 65.1048 3.69398 64.8539 3.81926C65.1048 3.65222 65.3974 3.92367 65.5438 4.13247C66.0456 4.80064 66.2338 5.69849 66.0038 6.5337C65.3139 9.1855 61.3623 8.41289 60.6933 6.0743C60.3588 4.86324 61.425 3.69395 62.5331 3.73571Z" fill="#06090C"/>
<path d="M61.3622 7.03565C60.5886 7.11917 60.1077 7.84998 60.0032 8.53903C60.6513 13.8635 58.5189 18.9792 55.3828 23.2179C57.3481 19.2506 59.7106 15.2834 59.6688 10.7524C59.5851 9.4369 59.5432 7.14005 61.3622 7.03565Z" fill="#06090C"/>
<path d="M64.6875 7.76484C65.9419 8.72533 65.9627 10.521 65.7745 11.9409C65.0637 16.4093 66.9872 20.5436 68.6388 24.5944C66.4436 20.8359 64.4575 16.3675 65.3774 11.8782C65.6283 10.5001 65.7747 8.87149 64.6875 7.76484Z" fill="#06090C"/>
<path d="M61.006 10.1259C61.2778 12.4436 62.7624 14.7404 61.8634 17.1416C60.7553 19.689 63.0967 21.2759 63.5776 23.5728C63.034 21.8606 61.1942 20.7539 61.1106 18.8121C61.1315 17.0372 62.0724 15.4086 61.5079 13.6338C61.257 12.4853 60.9015 11.316 61.006 10.1259Z" fill="#06090C"/>
<path d="M63.6414 23.6981C63.3069 21.3804 65.0631 19.2089 64.3313 17.1208C64.0386 16.1186 63.2651 15.0954 63.3278 13.8426C63.3696 12.6107 63.9967 11.5875 64.6239 10.6479C64.1639 11.6919 63.704 12.7568 63.7249 13.8426C63.7458 14.9284 64.4357 15.8471 64.833 16.9747C65.5647 19.3968 63.7041 21.3804 63.6414 23.6981Z" fill="#06090C"/>
<path d="M64.8342 10.6266C64.7088 10.8563 64.9806 11.086 65.0433 11.3574C65.3151 12.13 65.5243 12.9234 65.4198 13.8004C64.9389 13.0696 64.7507 12.2762 64.6462 11.441C64.6462 11.2113 64.4997 10.7937 64.8342 10.6266Z" fill="#06090C"/>
<path d="M60.7359 10.145C60.7986 12.3165 60.924 14.4881 60.3386 16.597C59.6068 18.6851 58.2061 20.4181 56.7217 21.9424C57.8716 20.1467 59.2096 18.4345 59.8577 16.43C60.4431 14.4255 60.3805 12.233 60.7359 10.145Z" fill="#06090C"/>
<path d="M56.7828 21.7561C56.4904 21.3594 56.574 20.8374 56.9708 20.5242C57.2422 21.0253 57.2004 21.3594 56.7828 21.7561Z" fill="#06090C"/>
<path d="M59.2517 14.5519C55.3421 15.0113 45.4739 17.851 52.666 22.0688C57.1192 24.4492 62.4296 24.8042 67.4055 24.5745C69.3916 24.4492 71.5242 24.1569 72.9458 22.737C76.3328 19.3961 68.0326 16.6191 65.5865 16.1597C68.3671 16.5564 76.7926 19.1456 73.1966 22.9667C69.9769 25.7855 65.252 25.0965 61.3006 24.9712C49.6344 23.8645 43.6341 16.3685 59.2517 14.5519Z" fill="#06090C"/>
<path d="M55.4053 15.367C56.4924 14.7406 57.8305 14.6153 59.0013 15.0538C57.7887 15.3253 56.6597 15.4297 55.4053 15.367Z" fill="#06090C"/>
<path d="M48.4004 19.7312C48.9022 21.1511 50.1356 22.0698 51.3901 22.8006C55.2579 24.9513 59.5857 26.0997 64.018 26.392C59.5439 26.6843 54.9861 25.4942 51.181 23.1347C49.9266 22.3412 48.714 21.2137 48.4004 19.7312Z" fill="#06090C"/>
<path d="M65.5645 26.4322C68.9096 25.7641 73.6138 26.0773 75.2446 22.4859C74.3038 26.4949 68.9305 26.5366 65.5645 26.4322Z" fill="#06090C"/>
<path d="M49.4448 16.4118C43.6117 12.8831 35.5833 14.7623 30.5447 18.9384C25.3806 23.2815 23.0183 30.5896 24.5027 37.1251C27.5133 50.3841 38.5313 61.2001 51.6192 64.6871C38.3432 61.576 27.1787 50.5929 24.0008 37.2295C22.5373 30.5061 25.0043 23.0518 30.3356 18.6669C35.4578 14.4491 43.6326 12.6743 49.4448 16.4118Z" fill="#06090C"/>
<path d="M54.4844 66.8792C55.8642 68.0694 57.5578 68.9881 58.3732 70.7003C57.0143 69.4684 55.3416 68.5496 54.4844 66.8792Z" fill="#06090C"/>
<path d="M25.3613 40.3618C27.4938 39.631 29.8774 39.464 31.8636 38.4408C32.3444 38.1068 33.1596 38.0441 33.6823 38.3364C35.2921 39.3805 36.9229 37.8562 38.5955 38.6079C36.9229 38.1694 35.2295 39.8607 33.5151 38.7749C32.9924 38.5452 32.5952 38.587 32.0934 38.9002C29.9818 39.9442 27.6611 40.0069 25.3613 40.3618Z" fill="#06090C"/>
<path d="M26.4482 43.8671C28.0581 43.6166 29.668 43.1155 31.2987 43.1572C31.9468 43.4913 32.4696 44.0133 33.2222 43.9924C34.4766 44.1177 35.1455 43.199 35.9818 42.4055C37.0271 41.5703 38.3443 41.7373 39.4733 41.9044C38.3234 41.9044 37.0482 41.9462 36.2537 42.7187C35.5011 43.5748 34.4974 44.6397 33.2012 44.5144C32.5531 44.4727 31.905 44.2012 31.4659 43.8045C31.1105 43.4078 30.5461 43.6583 29.9398 43.6583C28.7899 43.7627 27.619 43.8254 26.4482 43.8671Z" fill="#06090C"/>
<path d="M33.0135 39.7974C32.219 39.9853 31.8636 40.9041 32.1772 41.5096C32.888 42.8668 35.2714 42.1569 34.477 40.5491C34.1634 39.9645 33.1806 39.7974 32.5743 40.3403C33.0343 39.6512 34.2469 39.526 34.8114 40.3194C36.0867 42.4701 32.7416 43.7647 31.8217 41.6558C31.4663 40.7997 32.1145 39.7974 33.0135 39.7974Z" fill="#06090C"/>
<path d="M37.6114 39.5025C36.6496 39.5025 36.5659 40.8806 37.4858 40.8597C38.3639 40.9224 38.4685 39.586 37.5277 39.419C38.9703 39.2311 38.9076 41.4444 37.465 41.3818C35.9597 41.34 36.1688 39.0849 37.6114 39.5025Z" fill="#06090C"/>
<path d="M28.5807 40.9657C28.2462 41.3833 28.1416 42.0305 28.5388 42.1349C28.957 42.2393 29.5841 42.3646 29.8141 42.0932C30.5667 41.258 29.2079 40.381 28.4761 41.2371C28.6643 40.7151 29.396 40.381 30.0023 40.7151C30.6086 41.0909 30.6714 41.9888 30.1487 42.4899C28.9988 43.2834 26.9917 42.0932 28.5807 40.9657Z" fill="#06090C"/>
<path d="M45.5159 50.0078C45.5368 51.4903 44.1778 52.6387 42.8607 53.0563C42.0662 53.6827 42.4008 54.5388 42.2126 55.5201C41.3763 56.773 40.3936 57.6708 39.3691 58.7566C40.08 57.6082 41.0209 56.4389 41.7526 55.3531C41.7944 54.5805 41.6481 53.2233 42.5889 52.6596C43.9479 52.1793 45.1605 51.532 45.5159 50.0078Z" fill="#06090C"/>
<path d="M42.7959 60.7383C43.4649 59.4437 44.0504 57.6898 45.6602 57.3139C46.4129 57.0634 47.1028 56.8963 47.3955 56.3325C47.7091 55.727 47.3954 54.9127 47.1445 54.2236L47.2282 54.1401C47.7927 53.639 48.2736 52.9917 48.5453 52.24C48.4199 53.0335 48.0644 53.806 47.479 54.3907L47.5208 54.2028C48.5453 56.0611 47.8553 57.3766 45.8482 57.7733C44.4893 57.9612 43.5695 59.7778 42.7959 60.7383Z" fill="#06090C"/>
<path d="M43.5079 54.2867C43.2152 54.934 43.7379 55.6439 44.3233 55.6857C44.8669 55.7483 45.6824 55.4769 45.5569 54.9549C45.4942 54.3493 45.306 53.5977 44.7415 53.5768C44.1561 53.535 43.6751 54.1823 43.5079 54.8505C43.3824 53.535 45.0133 52.4075 45.766 53.8273C45.9333 54.2032 46.0168 54.5373 46.0586 54.9131C46.1631 55.8736 44.9923 56.2912 44.2396 56.0824C43.4033 55.9154 42.9852 54.8296 43.5079 54.2867Z" fill="#06090C"/>
<path d="M41.4593 57.4607C40.8948 58.1707 41.7939 59.1938 42.3793 58.5465C43.0065 57.8366 41.9194 57.0849 41.2713 57.7113C42.003 56.4376 43.7172 57.7322 42.7764 58.8806C41.7729 59.9455 40.2676 58.2959 41.4593 57.4607Z" fill="#06090C"/>
<path d="M46.7083 51.3215C46.1647 51.76 46.1018 52.8249 46.8963 52.7413C47.3353 52.6787 47.2517 51.0291 46.5408 51.3423C46.9172 50.883 47.4817 51.5094 47.5235 51.9061C47.6699 52.2611 47.7117 52.9919 47.0427 53.2425C45.6837 53.4095 45.5584 51.6556 46.7083 51.3215Z" fill="#06090C"/>
<path d="M34.3086 16.4727C35.2912 17.9552 36.7129 19.5003 36.8174 21.3378C36.3784 22.34 36.253 23.3005 36.7966 24.261C37.2984 25.2842 38.1556 25.66 39.2428 25.9106C39.7027 26.1403 39.8072 26.6205 39.9327 26.9128C40.4135 28.27 40.8943 29.6273 41.3125 31.0054C40.4971 29.5437 40.0581 27.581 39.0545 26.3282C38.0092 26.1611 36.8175 25.5347 36.3366 24.5116C35.7512 23.5093 35.8768 22.1939 36.3577 21.2334C36.2113 19.5838 35.0612 17.976 34.3086 16.4727Z" fill="#06090C"/>
<path d="M37.9268 15.1374C38.6376 16.3484 39.3065 17.5595 39.9338 18.7914C40.2892 19.4178 40.4982 20.0025 41.1882 20.1695C41.8572 20.3992 42.5054 20.9003 42.9026 21.5059C43.927 22.9257 43.4253 24.2621 43.2162 25.6193C43.5507 26.9139 43.9897 28.2711 44.3242 29.6074C43.8016 28.3128 43.2579 27.0809 42.8189 25.7028C42.8607 24.0741 43.5298 23.3224 42.4845 21.7982C41.9827 20.8168 40.7492 20.7542 40.0801 19.919C39.223 18.3947 38.6376 16.7452 37.9268 15.1374Z" fill="#06090C"/>
<path d="M38.7206 22.215C38.2397 22.8623 38.5532 23.8019 39.1177 24.136C40.4558 24.9086 41.982 22.8414 40.5812 21.9436C40.0167 21.5469 39.1179 21.6721 38.5534 22.215C38.9715 21.5469 39.954 21.1292 40.7903 21.5886C42.8183 22.7579 40.7695 25.702 38.8878 24.4701C38.1352 23.9272 38.0725 22.737 38.7206 22.215Z" fill="#06090C"/>
<path d="M36.9859 17.7051C36.3587 20.5657 40.0174 18.415 37.1531 17.6633C37.0904 17.6842 37.0277 17.7886 37.0486 17.9139C36.7559 17.2457 38.2611 17.5589 38.5329 17.9557C38.972 18.3942 38.7003 19.2502 38.1985 19.459C36.8395 20.1272 36.1915 18.7282 36.9859 17.7051Z" fill="#06090C"/>
<path d="M41.4394 27.1646C41.1676 28.0415 41.8783 29.4405 42.6728 28.5844C43.3 27.791 42.3383 26.6634 41.3557 27.0602C41.7738 26.6843 42.5056 26.6843 42.9655 27.1437C43.6973 27.8119 43.3001 29.4196 42.1711 29.3152C41.0839 29.2108 40.9376 27.8327 41.4394 27.1646Z" fill="#06090C"/>
<path d="M57.4532 61.2611C56.6796 61.5116 56.6379 63.2447 57.4323 62.9315C57.8296 62.8062 58.2895 62.5139 58.2268 62.2425C58.1431 61.9084 57.7459 61.5116 57.2859 61.3655C58.1013 61.2402 59.2095 62.3051 58.3105 63.015C56.5752 64.6437 55.5506 61.6578 57.4532 61.2611Z" fill="#06090C"/>
<path d="M56.428 60.4891C56.2608 59.5912 57.6615 59.5077 57.6406 60.4473L57.4942 60.3847C58.1632 59.3406 60.5676 59.0483 59.4177 60.844L59.2921 60.5517C60.3166 60.4264 61.3202 61.6583 60.0031 62.2012L60.0239 61.8045C61.3619 62.3265 61.2575 64.1013 59.5849 63.8717L59.8148 63.4958C60.442 64.6651 58.9368 65.4377 58.226 64.6025C58.3096 64.5816 58.3306 64.6025 58.3097 64.6234C58.226 64.9575 58.0587 65.3124 57.7033 65.4795C57.2015 65.7927 56.3653 65.2706 56.6998 64.5816L57.1179 64.7904C56.8461 65.7509 55.1527 65.9388 55.0691 64.7278C55.09 64.3937 55.278 64.0596 55.6334 63.9552L55.5707 64.2893C55.2571 64.0805 54.9226 63.7881 54.839 63.3497C54.7762 62.9112 55.048 62.3892 55.5707 62.3892L55.4662 62.6188C54.9435 62.1804 55.0272 60.9693 55.9262 61.2616L55.8425 61.3451C55.5916 60.9275 55.9471 60.3638 56.3862 60.4055C55.8008 60.4473 55.6753 61.1572 56.0934 61.4704C55.7798 61.2407 55.4034 61.3034 55.3198 61.7419C55.278 62.0968 55.6334 62.4101 55.8843 62.6606C55.4453 62.598 55.0899 62.765 55.1526 63.287C55.2362 63.7046 55.7798 63.9761 56.1352 64.2058C55.2572 64.3519 55.4035 64.9366 55.7798 65.1036C56.1352 65.2498 56.5324 64.9992 56.6788 64.6025L57.0969 64.8322C57.0133 64.8948 57.3061 65.208 57.4734 65.0619C57.6615 64.9575 57.7659 64.7278 57.8286 64.4981C57.8705 64.3519 57.9333 64.1014 58.2678 64.1014C58.686 64.2266 58.7069 64.4146 58.8323 64.4146C59.2296 64.5816 59.6058 64.1222 59.3758 63.7673L59.0831 63.3079L59.6057 63.3706C60.7765 63.5585 60.6929 62.5771 59.8148 62.2012L59.355 61.9716L59.8358 61.7836C60.6721 61.4704 59.8567 60.8858 59.2713 60.9067L58.9158 60.8858C59.104 60.6561 59.4176 60.3011 59.3967 60.0297C59.2085 59.4242 57.6615 60.2594 57.4315 60.6979L57.4734 60.4264C57.5152 59.633 56.3235 59.6956 56.428 60.4891Z" fill="#06090C"/>
<path d="M69.9762 60.99C69.3281 61.9088 70.4153 63.2242 71.2725 62.4934C72.1297 61.5538 70.6869 60.7812 69.7461 61.1571C70.2061 60.8439 70.917 60.6559 71.5024 61.0318C72.1296 61.3867 72.1504 62.389 71.6278 62.8693C70.2897 63.9759 68.7427 62.0132 69.9762 60.99Z" fill="#06090C"/>
<path d="M68.5959 60.6344C68.0942 59.8201 68.596 58.9431 69.5159 59.5486L69.286 59.653C69.5369 59.1937 69.9549 58.8596 70.4776 58.7134C71.2302 58.5046 71.2094 59.5486 71.2303 60.0289L70.8749 59.8201C71.1258 59.6322 71.2721 59.4233 71.6693 59.2772C72.0456 59.0684 72.673 59.5278 72.3176 59.9454L72.2547 59.7992C72.4846 59.8201 72.673 59.9662 72.7357 60.1542C72.5893 59.9662 72.3383 59.9245 72.1501 59.9871C72.2756 59.7366 72.1085 59.4233 71.7949 59.5904C71.6067 59.7157 71.3767 60.008 71.1258 60.2168L70.833 60.4674C70.7912 60.2168 70.7285 59.653 70.6866 59.4025C70.6866 59.2772 70.645 59.2563 70.645 59.2146C70.3314 59.1937 69.8714 59.5486 69.6623 59.8618C69.5787 59.9871 69.6414 60.0289 69.4532 59.9662C69.1605 59.9036 69.0769 59.7157 68.9932 59.6739C68.5542 59.5904 68.4914 60.2377 68.5959 60.6344Z" fill="#06090C"/>
<path d="M68.5537 60.7811C68.2192 60.5306 67.132 60.9273 67.822 61.2405C67.9892 61.3449 68.3865 61.5955 68.5537 61.6999C68.1356 61.7834 67.4455 62.1592 67.6964 62.556C67.9682 63.1197 69.2018 62.9736 69.7663 63.078L68.7628 63.4329C68.2192 63.9758 69.0763 64.5187 69.6826 64.289C69.7453 64.289 69.9961 64.2264 70.1634 64.289C70.7697 64.9572 71.1461 64.6649 71.7106 64.0593L72.4423 63.3077L72.0661 64.2473C71.9824 64.4561 72.275 64.7902 72.5677 64.7484C72.9649 64.7275 73.195 64.2055 73.1322 63.8088L73.2786 63.9967C73.5086 64.289 73.9894 63.9758 73.8221 63.6209C74.0521 64.0176 73.4878 64.4352 73.1533 64.1011L73.2995 64.0385C73.3622 64.4561 73.0904 64.9572 72.6096 65.0616C72.1287 65.1242 71.5851 64.7275 71.6687 64.1429L72.0242 64.3308C71.7733 64.644 71.4387 65.0407 70.8951 65.1242C70.6443 65.166 70.3308 65.1034 70.1217 64.9154C69.8499 64.6022 70.0381 64.7693 69.8081 64.7693C69.3691 64.8946 68.8044 64.8945 68.3863 64.4978C68.01 64.0802 67.9683 63.3285 68.5537 63.0153L68.6372 63.4538C67.341 63.4747 66.5466 61.9713 68.1564 61.512L68.1145 61.7834C67.9473 61.6372 67.5918 61.4075 67.4455 61.2405C67.1737 60.6558 68.2401 60.4888 68.5537 60.7811Z" fill="#06090C"/>
<path d="M39.7441 92.0391C40.2877 94.8579 40.6015 97.6977 41.0196 100.517C41.2287 101.895 41.7096 103.314 42.9431 103.962C44.1348 104.609 45.7027 104.567 46.9989 105.235C45.64 104.755 44.1556 104.964 42.7548 104.317C41.2913 103.649 40.7478 101.999 40.4969 100.621C40.1415 97.7603 39.8696 94.8997 39.7441 92.0391Z" fill="#06090C"/>
<path d="M40.0789 92.1843C39.8907 91.537 40.476 90.9315 41.0405 90.7018C45.0129 88.8435 48.7344 86.6093 51.4314 83.1014C49.2361 87.0478 45.3056 89.4072 41.1451 90.9315C40.5597 91.0985 40.0162 91.5162 40.0789 92.1843Z" fill="#06090C"/>
<path d="M45.5166 80.5965C45.3075 83.8329 44.2411 87.0485 42.5059 89.8047C43.6139 86.7353 44.5966 83.7285 45.5166 80.5965Z" fill="#06090C"/>
<path d="M43.6963 95.7137C47.7941 93.584 51.8709 91.1201 54.2125 87.0067C52.5399 91.4542 48.045 94.273 43.6963 95.7137Z" fill="#06090C"/>
<path d="M43.529 95.903C44.3026 99.8703 44.0308 103.754 48.7558 105.028C43.759 104.61 43.4663 99.8703 43.529 95.903Z" fill="#06090C"/>
<path d="M49.3625 104.63C48.8816 104.505 48.6935 103.983 48.4217 103.628C47.2927 102.792 46.3938 101.623 46.1011 100.203C45.892 99.3263 45.4739 98.3449 45.9965 97.3218C46.6028 96.4239 47.6901 96.4865 48.5472 96.0272C51.9133 94.6073 54.6729 91.8511 56.1991 88.4685C54.9238 92.4775 51.4741 95.7557 47.4182 96.9668C45.7665 97.2591 46.1848 98.8043 46.4984 100.099C46.7075 101.54 47.5227 102.584 48.5262 103.565C48.7771 103.962 48.9025 104.463 49.3625 104.63Z" fill="#06090C"/>
<path d="M57.118 88.3214C57.4316 88.9895 58.0379 89.3445 58.6442 89.4071L58.3725 89.6368C58.3306 88.6972 57.8706 87.7994 57.0762 87.0894C58.1424 87.3609 58.8951 88.5093 58.8533 89.6368V89.9083C57.9543 89.9291 57.0971 89.1775 57.118 88.3214Z" fill="#06090C"/>
<path d="M56.0938 72.3916C56.3864 71.6399 57.4318 71.4102 58.0172 71.9531C57.2855 72.1619 56.8673 72.2454 56.0938 72.3916Z" fill="#06090C"/>
<path d="M54.5264 69.5719C55.2581 68.9872 56.2616 68.8828 57.0979 69.2795C56.2198 69.5927 55.4672 69.6763 54.5264 69.5719Z" fill="#06090C"/>
<path d="M49.2782 76.0235C41.7307 81.9952 33.6814 87.3823 25.3185 92.1639C22.7052 93.8552 19.2555 94.8993 17.792 97.8643C19.0882 94.7949 22.5379 93.5838 25.1513 91.8716C33.3887 86.9021 41.4171 81.5776 49.2782 76.0235Z" fill="#06090C"/>
<path d="M21.4502 93.4995C30.942 85.2309 44.2809 81.0757 50.783 69.6333C44.8454 81.4516 31.2974 85.7947 21.4502 93.4995Z" fill="#06090C"/>
<path d="M39.0342 63.0995C40.874 62.1181 43.1946 62.0346 45.1181 62.8907C43.0273 62.7445 41.0831 62.8072 39.0342 63.0995Z" fill="#06090C"/>
<path d="M39.0338 63.078C40.1209 64.7275 42.1279 66.043 41.8352 68.2981C41.3334 72.2862 39.6401 76.0447 37.8212 79.5943C36.8595 81.3691 35.7722 83.0396 34.5596 84.6265C37.5911 79.5525 40.3509 74.0819 41.4381 68.2772C41.7935 66.1265 39.9119 64.7902 39.0338 63.078Z" fill="#06090C"/>
<path d="M45.077 63.0344C45.5369 64.7883 46.1434 66.4588 46.3524 68.2962C46.5615 70.1755 45.7461 71.9712 44.8471 73.5163C42.9445 76.5857 40.8328 79.509 38.3867 82.1608C40.4983 79.2584 42.5683 76.3143 44.4081 73.2449C45.328 71.7415 46.0597 70.0919 45.9551 68.3171C45.8297 66.584 45.3488 64.8092 45.077 63.0344Z" fill="#06090C"/>
<path d="M47.459 63.5367C49.1316 65.3324 50.1141 67.8171 50.0932 70.2601C49.4033 67.9007 48.5671 65.75 47.459 63.5367Z" fill="#06090C"/>
<path d="M49.1738 64.1852C50.1146 64.749 50.8046 65.5633 51.2019 66.5864C50.261 66.0227 49.5711 65.2083 49.1738 64.1852Z" fill="#06090C"/>
<path d="M50.9932 100.39C53.2093 100.683 54.8608 103.314 54.1709 105.443C54.0454 103.293 52.8748 101.434 50.9932 100.39Z" fill="#06090C"/>
<path d="M84.6738 83.5832C89.8379 87.9471 86.7645 95.2761 86.4718 100.914C86.0118 95.1509 89.2107 88.3856 84.6738 83.5832Z" fill="#06090C"/>
<path d="M80.1992 104.422C82.269 103.169 84.2972 102 86.4297 100.851C84.7362 102.564 82.5408 103.816 80.1992 104.422Z" fill="#06090C"/>
<path d="M49.0068 104.986C50.5121 104.527 52.0591 105.174 53.4808 105.592C57.8504 106.636 62.4292 104.757 66.7778 104.047C62.5337 105.32 57.7669 107.262 53.3555 105.968C51.9338 105.487 50.5331 104.715 49.0068 104.986Z" fill="#06090C"/>
<path d="M46.4346 104.795C47.5217 106.236 49.4243 106.32 51.076 106.487C54.0866 106.716 58.3517 107.531 61.2578 106.466C62.9094 106.027 64.6029 105.484 66.3381 105.443C64.6238 105.672 63.014 106.34 61.3623 106.862C58.4771 108.094 54.0657 107.217 51.0341 106.883C49.4034 106.654 47.3754 106.361 46.4346 104.795Z" fill="#06090C"/>
<path d="M80.2422 104.986C81.3084 105.132 81.9985 104.547 81.9985 103.462C83.002 104.547 81.1412 106.114 80.2422 104.986Z" fill="#06090C"/>
<path d="M57.2848 106.571L57.1386 106.091H57.3266C57.3266 107.552 57.3892 109.473 56.721 110.643C56.9925 110.413 56.9508 110.413 56.8046 110.705L56.742 110.872C56.5959 109.244 56.7419 107.615 57.1386 106.049C57.431 106.049 57.3057 106.049 57.2848 106.571Z" fill="#06090C"/>
<path d="M46.5388 104.88C46.33 104.984 46.1422 104.525 46.4554 104.441C46.5807 104.4 46.5389 104.441 46.5598 104.546C46.8522 105.82 47.04 107.135 46.852 108.43C46.8103 108.534 46.6851 108.68 46.518 108.597C46.4136 108.492 46.4972 108.263 46.6016 108.367C46.4972 108.304 46.5597 108.534 46.5806 108.492C46.6015 107.448 46.1631 106.007 46.351 104.567L46.4762 104.65C46.4345 104.546 46.3509 104.901 46.5388 104.88Z" fill="#06090C"/>
<path d="M81.9359 103.44C82.4161 106.175 82.5831 108.973 82.3743 111.729C81.8732 108.994 81.7271 106.237 81.9359 103.44Z" fill="#06090C"/>
<path d="M79.9912 112.837C80.9529 112.482 81.6639 112.19 82.5838 111.751C82.2074 112.733 80.9529 113.255 79.9912 112.837Z" fill="#06090C"/>
<path d="M57.0557 68.9236C60.9235 75.5218 60.5471 83.5189 62.4915 90.7017C64.2268 97.9472 67.4882 105.067 67.2791 112.668C67.0491 105.067 63.8713 98.0934 61.9897 90.827C60.1916 83.5398 60.5471 75.7306 57.0557 68.9236Z" fill="#06090C"/>
<path d="M67.5723 71.4713C73.9071 84.8347 77.8167 99.4091 78.9874 114.13C77.1476 99.4509 73.3217 85.1061 67.5723 71.4713Z" fill="#06090C"/>
<path d="M79.1553 87.9667C79.887 96.6738 80.2844 105.381 80.3262 114.13C79.5735 105.423 79.1971 96.6947 79.1553 87.9667Z" fill="#06090C"/>
<path d="M63.0133 71.8061C61.4034 72.5161 62.0515 75.2514 63.8496 74.6041C64.5813 74.4162 65.083 73.6854 64.8112 72.9755C64.6021 72.2864 63.8496 71.6391 63.0133 71.7644C63.8286 71.4303 64.8321 71.9732 65.1875 72.8293C66.1074 75.0426 62.2606 76.2536 61.7588 73.8942C61.5707 72.9754 62.1352 71.9523 63.0133 71.8061Z" fill="#06090C"/>
<path d="M60.9659 74.1239C60.6523 74.6459 60.4642 75.2932 60.6941 75.857C60.945 76.4625 61.8231 76.7131 62.2203 76.1702C62.2203 76.7548 62.6386 77.3604 63.224 77.3812C63.7049 77.423 64.1648 76.8801 64.0184 76.4625L64.311 76.379C65.1473 78.0494 67.2172 76.5878 66.3809 75.0218L66.7153 74.8338C66.9453 75.2097 67.7607 74.8965 67.7607 74.3953C67.8025 73.8525 67.4471 73.3305 67.0289 72.8711C66.6317 72.4117 66.1508 71.7644 66.0881 71.0963C66.0254 70.8248 65.9 70.5116 65.7745 70.4907C65.5863 70.3863 65.3355 70.5116 65.3982 70.5325L64.8966 70.5951C64.8966 69.9061 64.1856 69.2379 63.4747 69.3005L63.663 69.1753C63.433 69.5511 63.2658 69.9896 63.1822 70.4281L62.764 70.3446C63.1612 69.3005 61.7604 68.1939 61.175 69.2797C61.0704 69.572 61.175 69.9478 61.4259 70.0731L61.196 70.2193C60.966 69.4676 60.0252 70.4072 59.9416 70.8875C59.6907 71.5765 60.2133 72.3908 60.9451 72.3908L60.8613 72.5996C60.3387 72.1194 59.4397 72.7667 59.7115 73.4766C59.8996 74.1865 60.8405 74.4162 61.4677 74.0404C61.175 74.2283 60.7778 74.3118 60.4224 74.2283C59.6279 74.103 59.1889 72.9546 59.8789 72.4326C60.2761 72.0985 60.9033 72.2029 61.2378 72.6205C59.5026 72.9128 59.0634 70.616 60.3805 69.7808C60.8823 69.3841 61.6768 69.7182 61.5304 70.5116L61.2795 70.3863C60.8195 70.1567 60.6943 69.6138 60.8197 69.1753C61.1542 68.173 62.6176 68.3192 63.0358 69.1753C63.2448 69.5511 63.2867 70.0105 63.1822 70.449L62.764 70.3446C62.8476 69.8226 63.0568 69.3006 63.3285 68.8412C64.353 68.7159 65.3355 69.5302 65.3982 70.5743L64.8966 70.616C64.8339 70.0105 65.5445 69.8017 65.9836 70.0105C66.4435 70.261 66.4855 70.6787 66.5691 70.9919C66.6528 71.6392 66.9664 72.0568 67.4054 72.5579C67.8027 73.0381 68.2625 73.6645 68.1788 74.4371C68.1161 75.2306 66.9663 75.8152 66.3809 75.0426L66.7153 74.8338C67.1335 75.6273 66.9663 76.6713 66.2137 77.1933C65.461 77.6944 64.2902 77.3604 64.0184 76.4416L64.311 76.3581C64.5201 78.1329 62.095 77.9868 62.0323 76.379L62.1995 76.4625C60.7569 77.2142 60.0042 75.3141 60.9659 74.1239Z" fill="#06090C"/>
<path d="M69.4538 72.8496C69.2447 71.8264 70.4363 70.8033 71.5234 71.2209C73.3214 71.7429 73.3006 74.4574 71.4608 74.9585C69.5164 75.4387 68.743 72.6199 70.4364 71.8264C69.642 72.432 69.5373 73.6221 70.2063 74.2068C70.8335 74.875 71.879 74.4782 72.2135 73.6848C73.1753 71.6594 69.7674 70.3857 69.4538 72.8496Z" fill="#06090C"/>
<path d="M69.6417 71.3664C69.788 70.5103 69.1817 69.4454 70.0598 68.7772C70.478 68.3805 71.2308 68.7146 71.2726 69.2784C71.3353 69.7586 71.2307 70.218 71.3979 70.5312L71.1052 70.4686C71.8578 69.6751 73.5932 68.819 74.3668 70.1345C74.6177 70.4685 74.7013 71.095 74.3041 71.4917L74.2412 71.0741C75.0148 71.4499 75.5794 72.2225 75.6631 73.0786C75.7467 73.9556 75.3493 74.8117 74.6594 75.3337L74.7012 75.0205C75.203 75.7722 75.224 76.7953 74.7223 77.547C74.1159 78.5284 72.9033 78.758 71.8579 78.4657L72.4225 78.2778C72.7361 78.1943 72.9242 78.591 72.6524 78.7789C71.4189 78.9668 70.29 77.8393 70.3318 76.7118C70.3945 78.0481 71.8162 78.6328 72.527 78.5492L72.4852 78.2778C73.2378 78.3613 74.0114 77.9646 74.3668 77.3382C74.7849 76.6282 74.7012 75.7095 74.1785 75.0831L74.3668 74.9578C75.7048 73.9765 75.224 71.8258 73.6769 71.3664C74.5759 70.8444 73.8231 69.9257 73.2377 69.9048C72.5687 69.863 71.9207 70.3015 71.3353 70.7609C71.1053 70.9488 71.168 70.9906 71.0635 70.6982C70.729 70.051 71.377 68.4849 70.2062 68.9652C69.3699 69.4872 69.8507 70.5938 69.6417 71.3664Z" fill="#06090C"/>
<path d="M69.6417 70.8249C69.4326 70.7205 68.4083 69.9062 68.8683 70.1568C68.701 70.1568 68.5127 70.4491 68.5336 70.6997C68.5754 70.9711 68.7846 71.3052 68.9728 71.6393C68.3874 71.4514 67.7811 70.7206 68.1992 70.0524C68.3246 69.8018 68.68 69.6348 68.9936 69.6974C69.2654 70.0315 69.4744 70.4073 69.6417 70.8249Z" fill="#06090C"/>
<path d="M71.67 75.6064C71.3355 77.2142 73.1127 78.4044 74.4716 77.4856C74.2626 77.8406 73.8861 78.112 73.4471 78.1956C72.0254 78.5714 70.771 76.7548 71.67 75.6064Z" fill="#06090C"/>
<path d="M61.9062 89.1999C65.8577 88.6779 69.6838 87.9054 73.5307 86.8613C69.9347 88.5735 65.8786 89.3878 61.9062 89.1999Z" fill="#06090C"/>
<path d="M64.1215 95.525L63.4316 95.4833C67.174 94.8986 71.3135 94.314 75.014 92.7688C71.6689 94.7107 67.1113 96.0262 63.4316 95.3789L64.1215 95.525Z" fill="#06090C"/>
<path d="M63.3711 94.1467C67.448 93.9379 71.2322 92.5598 75.1628 91.5575C71.504 93.228 67.448 94.6478 63.3711 94.1467Z" fill="#06090C"/>
<path d="M62.5957 90.2427C66.3172 89.6581 70.0385 89.4075 73.7181 88.5097C70.2684 90.0966 66.3381 90.368 62.5957 90.2427Z" fill="#06090C"/>
<path d="M63.0352 90.3489C66.2967 89.7225 70.8544 88.762 74.0741 88.1564C70.5826 89.5554 66.7984 90.3071 63.0352 90.3489Z" fill="#06090C"/>
<path d="M63.7461 93.8961C67.4466 93.2697 70.9799 92.3092 74.4714 90.9728C71.3144 92.9564 67.4885 94.0005 63.7461 93.8961Z" fill="#06090C"/>
<path d="M66.9033 91.5797C66.5479 90.7444 65.377 91.3708 65.7743 92.1434C66.6106 93.5215 68.6804 92.0181 69.3077 91.0785C69.7049 90.5148 69.5376 89.4499 68.7013 89.262C69.6212 89.2202 70.1231 90.473 69.6631 91.2665C68.9314 92.6446 66.4015 94.2523 65.398 92.2687C65.0008 91.162 66.5688 90.4104 66.9033 91.5797Z" fill="#06090C"/>
<path d="M63.3271 92.5183C64.6861 92.56 65.5433 91.5578 65.3133 90.2214C66.505 91.4325 64.6861 93.5414 63.3271 92.5183Z" fill="#06090C"/>
<path d="M63.412 92.3309C62.8475 92.2265 62.8057 91.3913 63.3075 91.099C63.8092 90.8067 64.52 91.3078 64.311 91.8298C63.8928 91.1407 63.0357 91.621 63.412 92.3309Z" fill="#06090C"/>
<path d="M70.7504 91.2885C70.6668 90.6204 69.5377 90.9544 69.9349 91.5391C70.604 92.5831 72.172 91.3512 72.5483 90.5368C72.7783 90.0357 72.7366 89.3258 72.2139 88.9082C73.7192 89.6181 72.7574 91.6853 71.5448 92.2073C70.9176 92.5622 69.8304 92.5205 69.5795 91.7061C69.3913 91.3512 69.5796 90.7874 70.0186 90.7248C70.3741 90.6621 70.834 90.9127 70.7504 91.2885Z" fill="#06090C"/>
<path d="M73.5089 90.2225C73.0907 90.1389 73.0073 90.5983 73.0491 90.4939C73.0909 90.5565 73.1326 90.5774 73.279 90.5357C73.8017 90.3477 73.4672 89.784 73.3208 89.2828C73.9899 89.5543 74.408 90.828 73.3835 91.0368C73.1326 91.0994 72.61 90.9324 72.6518 90.5148C72.7563 90.0345 73.2998 89.951 73.5089 90.2225Z" fill="#06090C"/>
<path d="M74.0742 87.8432C75.6213 87.6761 77.1476 87.8223 78.6529 88.1981V88.386L78.1303 88.3234L78.6319 88.1981V88.386C77.0848 88.4696 75.5586 88.3025 74.0742 87.8432Z" fill="#06090C"/>
<path d="M73.7188 86.7774C75.3704 86.4225 77.1058 86.5477 78.7156 87.1324C77.0012 87.2368 75.3913 87.1324 73.7188 86.7774Z" fill="#06090C"/>
<path d="M74.2627 88.322C75.8098 88.0297 77.5032 87.9253 78.9876 88.3011C79.0085 88.5099 78.7996 88.5935 78.695 88.5099C78.8205 88.5517 78.9039 88.3847 78.8412 88.3429C77.7122 88.7605 75.6844 88.6144 74.2627 88.322Z" fill="#06090C"/>
<path d="M74.4512 91.5182C75.9356 91.2885 77.4409 91.3929 78.8835 91.8732C77.3782 92.1029 75.8938 91.9776 74.4512 91.5182Z" fill="#06090C"/>
<path d="M75.1826 92.1008C76.3534 91.5997 77.7124 91.5997 78.8832 92.1008C77.6288 92.3096 76.4579 92.3096 75.1826 92.1008Z" fill="#06090C"/>
<path d="M74.6377 92.936C76.2684 92.8943 77.7947 92.9569 79.4463 93.1866C77.8783 93.6668 76.143 93.5833 74.6377 92.936Z" fill="#06090C"/>
<path d="M75.9354 89.994C75.9563 89.9732 75.0992 89.6599 75.4128 89.7226C75.0364 90.0149 75.2246 90.704 75.58 90.8501C76.4372 91.2468 77.5453 90.2655 77.5453 89.3676C77.5453 88.9083 77.2317 88.3654 76.6672 88.2401C78.1725 88.1983 78.277 90.2863 77.1899 91.0171C76.709 91.4139 75.9773 91.6018 75.3501 91.2468C74.7229 90.8501 74.6809 89.8061 75.3917 89.5346L75.4336 89.5764L75.9354 89.994Z" fill="#06090C"/>
<path d="M78.3596 90.2835C78.0669 89.9494 77.5861 90.4088 77.7324 90.555C77.7951 90.7638 78.2134 90.8891 78.3807 90.722C78.987 90.3044 78.6314 89.4065 78.4223 88.7801C78.715 89.0516 78.987 89.3857 79.1124 89.8242C79.5096 90.9934 77.8162 92.0375 77.3353 90.6385C77.2935 89.9286 78.2551 89.8033 78.3596 90.2835Z" fill="#06090C"/>
<path d="M39.4526 63.3688C34.9994 60.5082 29.6473 59.4224 24.4414 60.2994C29.48 58.6707 35.4385 59.9026 39.4526 63.3688Z" fill="#06090C"/>
<path d="M24.2738 60.2588C23.1866 72.9123 22.225 85.8372 17.8555 97.8643C21.5769 85.6284 22.5385 72.8705 24.2738 60.2588Z" fill="#06090C"/>
<path d="M58.6849 116.678C55.5698 125.573 53.5627 134.781 52.6846 144.157C52.8518 134.74 54.9217 125.323 58.6849 116.678Z" fill="#06090C"/>
<path d="M48.3178 115.175C44.5963 121.71 42.3174 128.935 41.6275 136.431C41.5857 128.914 43.99 121.313 48.3178 115.175Z" fill="#06090C"/>
<path d="M67.1124 115.802C67.6769 125.762 67.2169 135.784 65.9207 145.682C65.7325 146.433 66.6315 146.83 67.2169 147.415L69.0986 149.064L72.841 152.342L72.5274 152.322L76.667 149.336C77.9841 148.271 79.8238 147.561 79.6775 145.744C80.2211 135.534 80.0539 125.282 79.3849 115.092C80.3884 125.282 80.5766 135.534 80.1166 145.765C80.2421 147.707 78.2976 148.709 76.9596 149.712L72.82 152.739L72.6528 152.865L72.5064 152.718L68.785 149.419L66.9033 147.749C66.3598 147.227 65.2307 146.538 65.5025 145.619C66.8824 135.743 67.3424 125.783 67.1124 115.802Z" fill="#06090C"/>
<path d="M66.5068 141.588C66.8832 142.048 67.4896 142.089 68.0332 142.131C72.0056 142.57 75.957 142.235 79.8457 141.379C76.1452 142.883 71.9218 143.175 68.0122 142.382C67.4686 142.256 66.8204 142.11 66.5068 141.588Z" fill="#06090C"/>
<path d="M66.4854 140.065C70.7922 141.088 76.4581 141.965 80.5768 140.127C79.6987 141.067 78.3397 141.129 77.1898 141.401C73.6147 141.986 69.7887 141.568 66.4854 140.065Z" fill="#06090C"/>
<path d="M67.3844 142.381C66.8827 144.281 67.1335 146.014 69.1197 146.87L73.8448 149.647L73.5102 149.731C74.5137 148.311 75.7891 147.079 77.2526 146.16C78.1725 145.764 78.1516 145.012 78.1516 144.135L78.3188 141.588C78.2979 142.527 78.5279 144.553 78.3607 145.45C78.277 145.972 77.7753 146.265 77.4617 146.474C76.1027 147.455 74.8691 148.645 73.9283 150.023C73.7611 150.232 73.8657 150.274 73.5939 150.107L68.8898 147.204C68.158 146.745 67.2382 146.119 67.05 145.116C66.8618 144.156 67.1336 143.237 67.3844 142.381Z" fill="#06090C"/>
<path d="M67.3848 136.242C67.3012 136.451 66.9039 136.347 66.9666 136.075C67.9911 136.305 69.162 136.702 70.291 136.743C73.1552 136.931 77.483 136.326 80.3263 136.221L79.8037 136.033L80.3472 136.138L80.4727 136.18C79.3647 136.597 78.1728 136.743 77.002 136.869C73.7614 137.203 69.9774 137.808 66.9877 136.117L67.0293 136.096C66.9457 136.242 67.2803 136.43 67.3848 136.242Z" fill="#06090C"/>
<path d="M67.6134 134.406C67.4461 134.448 67.237 134.448 67.0488 134.364C71.1884 135.596 75.9552 134.803 80.3248 134.26C76.1434 135.387 71.0421 136.431 67.0488 134.364C67.0697 134.197 67.3416 134.469 67.6134 134.406Z" fill="#06090C"/>
<path d="M68.1562 138.894C68.4698 138.685 68.2816 138.205 67.9471 138.184C66.8599 138.121 67.0064 139.875 67.9263 140.001C69.787 140.439 70.4978 138.205 71.9613 137.537C73.2575 137.015 74.3028 138.748 73.6128 139.771C73.3201 140.397 72.5675 141.045 71.7731 140.71C70.8531 140.293 71.4385 138.957 72.2539 139.52C71.543 139.103 71.0831 140.23 71.8776 140.481C72.4421 140.69 73.0485 140.147 73.2576 139.604C73.8221 138.247 72.3793 137.286 71.4176 138.539C70.5186 139.499 69.3269 140.898 67.8007 140.376C67.0272 140.147 66.6508 139.165 67.0271 138.497C67.508 137.578 68.9088 138.226 68.1562 138.894Z" fill="#06090C"/>
<path d="M74.9941 139.584C75.015 139.605 74.4295 138.853 74.5968 138.999C73.196 139.25 73.9069 141.212 75.0986 140.481C76.5412 139.792 76.792 137.851 78.2136 137.329C80.3044 137.099 79.9908 141.338 77.9 140.294C77.1892 139.834 77.9837 138.728 78.5273 139.166C77.9209 138.853 77.482 139.918 78.0256 140.085C78.5065 140.314 79.0919 140.022 79.1755 139.5C79.4473 138.602 78.6529 137.057 77.7539 138.226C77.1266 139.124 76.4158 140.273 75.3077 140.878C74.7223 141.254 73.7814 140.962 73.5933 140.252C73.3006 139.563 74.0114 138.769 74.6386 138.915L74.9941 139.584Z" fill="#06090C"/>
<path d="M71.3571 132.358C70.4162 132.88 71.2525 134.049 72.1515 133.819C72.8623 133.777 73.866 133.068 73.5315 132.316L73.7824 132.211C73.9915 132.963 74.9532 133.443 75.6222 132.921C76.333 132.504 76.0404 131.355 75.2459 131.314H74.2214C75.1204 131.063 76.6258 130.499 76.2912 129.351C76.1658 128.62 75.0786 128.599 74.995 129.267L74.5558 129.163C75.2039 128.14 75.204 126.073 73.6987 126.261C73.3433 126.365 73.0715 126.762 73.176 127.054L72.6952 127.075C72.8415 126.595 72.716 126.052 72.4024 125.655C71.2525 124.173 68.8692 125.801 70.1237 127.325L70.7717 127.994L69.9354 127.618C69.3709 127.388 68.5973 127.847 68.5346 128.453C68.4719 129.079 69.1409 129.706 69.7472 129.581L70.6253 129.413L69.8517 129.831C67.2383 131.105 69.5382 133.903 71.7544 132.692C69.371 134.112 66.904 131.021 69.7055 129.601L69.8101 129.852C67.5312 130.04 67.8446 126.699 70.0608 127.284L69.8727 127.576C68.8483 126.574 69.6218 124.736 71.0226 124.674C72.3816 124.465 73.5314 125.885 73.176 127.2L72.9669 128.035L72.716 127.221C72.3606 125.739 74.4304 125.217 75.0785 126.365C76.0193 127.66 75.0158 129.226 74.4513 130.437L74.535 129.246C74.5977 128.662 75.1413 128.328 75.6222 128.349C77.4411 128.641 76.7512 130.979 75.3086 131.314L75.2667 130.959C76.3957 131.021 76.751 132.629 75.8102 133.193C74.9739 133.798 73.7824 133.235 73.5315 132.295L73.7614 132.191C74.1586 133.193 73.0088 133.924 72.1725 133.965C71.1899 134.132 70.3326 132.88 71.3571 132.358Z" fill="#06090C"/>
<path d="M72.2139 128.83C70.5623 129.853 71.963 132.296 73.531 131.147C74.0537 130.73 74.0119 129.707 73.4265 129.31C72.862 128.892 71.7956 129.185 71.5238 129.999C71.5865 129.122 72.7366 128.454 73.6356 128.955C74.5137 129.498 74.6391 130.813 73.8865 131.544C71.7749 133.047 69.8932 129.79 72.2139 128.83Z" fill="#06090C"/>
<path d="M78.1309 114.277C87.769 113.567 97.2399 110.936 105.791 106.447C114.488 102.25 121.618 95.213 130.67 91.6634C121.764 95.6098 114.718 102.563 106.021 106.906C97.3862 111.27 87.8108 113.984 78.1309 114.277Z" fill="#06090C"/>
<path d="M27.3672 101.956C43.5493 108.575 60.7557 112.208 78.1295 113.858C60.7139 112.855 43.2775 109.16 27.3672 101.956Z" fill="#06090C"/>
<path d="M19.5078 98.4902C22.0794 99.2419 24.5046 100.307 26.7834 101.706C24.2328 100.954 21.7867 99.8892 19.5078 98.4902Z" fill="#06090C"/>
<path d="M14.6562 97.0935C15.5971 96.843 16.6007 97.0517 17.3533 97.6782C16.3707 97.7199 15.5343 97.532 14.6562 97.0935Z" fill="#06090C"/>
<path d="M59.6895 114.799C66.2752 114.778 72.8401 114.611 79.4258 114.318C72.9028 115.321 66.2334 115.488 59.6895 114.799Z" fill="#06090C"/>
<path d="M76.4785 63.4956C79.1546 63.1824 81.8099 61.8461 84.2978 60.8438C85.155 60.5724 86.1167 60.0712 87.0366 60.4262C86.0958 60.28 85.3013 60.8647 84.4651 61.2197C82.0398 62.3472 79.2382 63.7879 76.4785 63.4956Z" fill="#06090C"/>
<path d="M86.9316 60.6568C88.4579 61.3041 89.9005 62.181 91.1549 63.2877C91.6776 63.6844 91.7402 64.4987 91.6984 64.979C91.6357 67.1714 91.824 69.343 92.0749 71.5354C91.385 69.4265 91.1548 67.1923 91.1757 64.979C91.1966 64.4152 91.2177 63.9767 90.8205 63.6218C89.6288 62.536 88.3115 61.5337 86.9316 60.6568Z" fill="#06090C"/>
<path d="M92.1807 71.2841C94.1668 74.7085 95.9856 78.2372 97.8045 81.766C99.4562 84.8354 101.296 89.4917 103.387 92.2271C100.962 89.7214 99.038 85.0442 97.3445 81.9957C95.5674 78.446 93.7905 74.9173 92.1807 71.2841Z" fill="#06090C"/>
<path d="M77.7539 63.3506C80.89 64.7287 81.6844 68.6333 81.5172 71.7236C81.2663 74.9391 81.308 78.092 81.078 81.3076C80.9108 78.1338 80.8063 74.8765 81.0153 71.7027C81.1826 68.6333 80.5973 65.0836 77.7539 63.3506Z" fill="#06090C"/>
<path d="M81.5166 81.6186C88.8341 85.6693 96.3396 89.2608 104.075 92.4137C96.1096 89.9289 88.4577 86.2749 81.5166 81.6186Z" fill="#06090C"/>
<path d="M79.8652 63.1418C83.3985 68.0487 82.7503 74.2293 82.7085 79.8669C82.0186 74.1666 82.7504 68.3828 79.8652 63.1418Z" fill="#06090C"/>
<path d="M82.7715 79.824C85.2594 82.5594 88.8345 83.7078 92.0751 85.2947C95.3575 86.8816 98.6398 88.4476 101.839 90.1807C98.4516 88.8234 95.1483 87.2992 91.845 85.7749C88.6462 84.1671 84.9458 82.8308 82.7715 79.824Z" fill="#06090C"/>
<path d="M80.7227 62.8485C88.2283 66.4608 84.3607 76.0866 85.9078 82.476C85.3015 80.8055 85.1132 78.9889 85.0923 77.1932C85.0923 72.2028 85.7822 65.7091 80.7227 62.8485Z" fill="#06090C"/>
<path d="M14.8649 97.26C7.46384 96.4665 8.25847 120.207 7.92396 125.428C7.58945 135.638 6.98298 146.517 1.37988 155.391C3.97236 150.922 5.43594 145.89 6.27222 140.837C8.48837 133.487 5.16406 96.3203 14.8649 97.26Z" fill="#06090C"/>
<path d="M1.35938 155.432C3.8055 156.518 5.93806 158.439 7.25521 160.777C5.35267 158.877 3.45008 157.144 1.35938 155.432Z" fill="#06090C"/>
<path d="M15.3241 98.9295C7.08676 99.013 12.3554 124.633 12.0209 130.417C12.1881 136.055 12.1045 141.713 11.7491 147.33C11.3101 152.905 11.2473 158.752 8.78027 163.909C9.90926 161.32 10.4737 158.522 10.7664 155.745C11.6027 147.351 11.8536 138.874 11.4982 130.438C11.8745 124.612 6.85678 98.8669 15.3241 98.9295Z" fill="#06090C"/>
<path d="M7.1709 160.547C8.11172 161.55 8.67633 162.865 8.75996 164.264C8.0073 163.095 7.4845 161.884 7.1709 160.547Z" fill="#06090C"/>
<path d="M9.07422 161.799C11.9176 162.635 14.9281 162.175 17.416 160.546C15.4089 162.802 11.6458 163.365 9.07422 161.799Z" fill="#06090C"/>
<path d="M13.7796 102.979C12.3579 112.73 15.4729 122.273 16.3301 131.919C17.2709 141.629 17.1874 151.359 17.0201 161.089C16.7693 151.38 16.8945 141.65 15.8074 131.982C15.0965 122.335 11.9188 112.668 13.7796 102.979Z" fill="#06090C"/>
<path d="M14.9906 99.9111C14.5725 100.141 14.5307 100.6 14.4052 101.018C14.2589 101.435 14.1961 101.916 13.9034 102.354C13.6943 101.54 13.8407 99.7859 14.9906 99.9111Z" fill="#06090C"/>
<path d="M28.0781 105.758C38.239 110.017 48.8389 113.17 59.7315 114.882C48.7553 113.817 37.9672 110.623 28.0781 105.758Z" fill="#06090C"/>
<path d="M140.914 92.0188C126.175 104.484 107.526 112.106 88.4375 114.653C107.421 111.438 125.757 103.962 140.914 92.0188Z" fill="#06090C"/>
<path d="M62.3027 115.34C71.2928 116.029 80.1992 115.09 89.1683 114.526C80.3037 115.8 71.2091 116.718 62.3027 115.34Z" fill="#06090C"/>
<path d="M60.6094 114.922C61.1948 114.755 61.7174 114.902 62.0937 115.382C61.5083 115.57 60.9857 115.403 60.6094 114.922Z" fill="#06090C"/>
<path d="M13.5889 103.25C13.5053 102.269 13.7561 101.35 14.3415 100.557C14.446 101.538 14.1743 102.457 13.5889 103.25Z" fill="#06090C"/>
<path d="M17.3953 99.3044C16.2036 100.14 16.0573 101.727 16.2455 103.042L16.6844 107.197C17.8343 115.528 16.2871 123.881 16.538 132.191C15.7436 123.86 17.2699 115.549 16.35 107.218L15.9945 103.063C15.8691 101.706 16.1409 100.056 17.3953 99.3044Z" fill="#06090C"/>
<path d="M16.4538 131.085C16.8505 132.233 16.8923 133.402 16.6 134.592C16.2033 133.444 16.1615 132.254 16.4538 131.085Z" fill="#06090C"/>
<path d="M16.5377 132.797C16.8927 134.154 16.8927 135.511 16.5377 136.868C16.1827 135.511 16.1827 134.154 16.5377 132.797Z" fill="#06090C"/>
<path d="M14.7188 99.8052C15.3041 99.3249 16.1194 99.2832 16.7466 99.7008C16.0566 99.9931 15.4505 100.014 14.7188 99.8052Z" fill="#06090C"/>
<path d="M15.1582 98.8467C15.7854 98.5962 16.4754 98.805 16.8099 99.3896C16.1409 99.4523 15.6809 99.2852 15.1582 98.8467Z" fill="#06090C"/>
<path d="M17.4775 99.2636C21.3244 96.4657 19.2966 102.563 18.0631 103.774C17.9377 104.045 17.603 103.92 17.6239 103.711C17.6867 103.481 17.9795 103.565 17.9586 103.711C17.9377 103.565 17.6867 103.628 17.7076 103.711C17.7076 103.795 17.9168 103.753 17.854 103.732C18.4603 102.208 19.4846 100.496 19.1501 98.9296C18.6274 98.846 18.0002 98.9296 17.4775 99.2636Z" fill="#06090C"/>
<path d="M19.7568 99.6609C21.0113 98.8883 22.1193 100.621 21.8475 101.77C21.5967 102.939 21.0532 104.108 20.3632 104.902L20.4259 104.735L20.4049 104.902L20.3632 104.881C20.6768 103.315 21.9103 101.77 21.095 100.225C20.8441 99.8071 20.3213 99.4939 19.7568 99.6609Z" fill="#06090C"/>
<path d="M20.6985 104.526C21.493 103.398 22.0785 102.375 23.082 101.269C25.7372 100.726 23.6465 105.632 22.6639 106.468C22.0994 107.115 21.1585 106.927 20.594 106.76C19.2978 106.447 18.0224 105.987 16.8516 105.382C18.106 105.8 19.3815 106.134 20.6777 106.363C21.3258 106.489 21.9529 106.593 22.3293 106.134C23.1028 105.173 23.6465 103.92 23.8765 102.688C24.0019 102.208 23.8346 101.436 23.2701 101.623C22.8728 101.895 22.4547 102.584 22.0157 103.043L20.6985 104.526Z" fill="#06090C"/>
<path d="M16.6841 105.214C16.4544 105.506 16.371 105.443 16.4545 105.109C16.6842 104.817 16.7676 104.88 16.6841 105.214Z" fill="#06090C"/>
<path d="M16.7051 106.508C18.6912 107.093 20.8237 107.657 22.6217 106.362C21.2628 108.325 18.3567 107.803 16.7051 106.508Z" fill="#06090C"/>
<path d="M23.0814 105.529C23.5622 107.241 23.2486 109.225 22.3705 110.791C20.907 111.772 18.9417 112.252 17.1855 111.877C18.0636 111.918 18.9209 111.71 19.7363 111.438C20.9698 110.958 22.2659 110.833 22.475 109.35C22.8095 108.139 23.2486 106.803 23.0814 105.529Z" fill="#06090C"/>
<path d="M17.082 112.963L17.4375 116.199L17.5837 117.807C17.6255 118.788 17.73 120.083 19.0472 119.582C20.5943 119.164 21.7442 117.974 22.6014 116.658C25.0475 113.171 26.6784 108.494 23.6678 104.819C26.0094 107.241 26.2602 111.167 24.6294 114.069C23.3332 116.638 21.5771 120.02 18.2738 120.104C17.2284 119.916 17.2911 118.6 17.2492 117.849C17.1865 116.805 17.1238 114.027 17.082 112.963Z" fill="#06090C"/>
<path d="M34.643 108.679C33.7231 111.916 29.918 112.876 27.5346 114.776C24.294 117.345 22.9768 117.971 19.4854 119.871C22.4123 117.741 23.6876 117.282 27.2418 114.359C29.6879 112.459 33.3467 111.707 34.643 108.679Z" fill="#06090C"/>
<path d="M26.8447 101.579C27.1371 101.308 27.4919 101.517 27.3875 101.914C26.9908 102.018 26.9282 101.976 26.8447 101.579Z" fill="#06090C"/>
<path d="M23.918 103.732C25.7369 103.544 27.2631 104.839 28.5175 105.966C26.8241 105.423 25.6114 104.275 23.918 103.732Z" fill="#06090C"/>
<path d="M11.2263 99.0142C11.1426 97.991 10.2855 97.3646 10.1182 96.3415C9.99278 94.9634 11.8952 94.7128 12.6479 95.4645C13.2124 95.8821 13.547 96.5294 13.5679 97.1767C13.3588 96.5712 12.9198 96.0909 12.418 95.7986C11.9371 95.5063 11.289 95.381 10.9127 95.7151C9.97183 96.425 11.6444 97.9493 11.2263 99.0142Z" fill="#06090C"/>
<path d="M16.7051 97.6553C18.0222 97.6344 19.2975 98.0937 20.2801 98.9498C18.9839 98.7201 17.8341 98.3025 16.7051 97.6553Z" fill="#06090C"/>
<path d="M16.8516 97.551C18.3569 97.739 19.7576 98.2401 21.033 99.0753C19.5277 98.9083 18.1269 98.3863 16.8516 97.551Z" fill="#06090C"/>
<path d="M19.7363 98.5324C21.4089 97.6346 23.1441 96.7367 25.0885 96.5071C27.0746 96.2147 28.9981 97.0291 30.6707 97.8434L31.7995 98.4072L30.5451 98.3445C27.0327 98.1357 23.4995 98.2819 19.9662 98.5951C23.4368 97.8852 27.0119 97.6764 30.5662 97.8225L30.4406 98.3236C27.0536 96.1521 23.186 96.862 19.7363 98.5324Z" fill="#06090C"/>
<path d="M32.3223 98.3671C33.7649 99.9958 35.8556 101.833 35.3538 104.339C35.312 104.422 35.1657 104.297 35.2284 104.234C35.2075 104.297 35.2912 104.339 35.3121 104.318V104.339C35.1031 101.896 33.2631 100.476 32.3223 98.3671Z" fill="#06090C"/>
<path d="M32.3438 98.4695C33.3473 98.2189 35.0408 97.8222 35.6262 98.9706C36.128 100.015 36.2952 101.205 36.107 102.353C35.3753 104.671 35.2079 104.692 35.7097 102.291C35.7933 101.226 35.6053 100.161 35.2081 99.1794C34.7272 98.3025 33.2428 98.5113 32.3438 98.4695Z" fill="#06090C"/>
<path d="M39.8706 95.1276C39.3898 94.9188 39.348 95.8375 39.2434 96.109C38.3235 99.1158 37.6753 102.665 35.501 105.046C37.1108 102.331 37.7381 98.9279 38.9925 96.0464C39.1598 95.754 39.3898 94.8144 39.8706 95.1276Z" fill="#06090C"/>
<path d="M52.4768 41.3413C52.8944 45.9141 52.9779 50.5078 52.6856 55.1014C52.268 50.5078 52.1844 45.935 52.4768 41.3413Z" fill="#06090C"/>
<path d="M53.2295 39.3777C54.0867 46.4562 54.3168 53.6181 53.9196 60.7383C53.606 53.6181 53.3758 46.5188 53.2295 39.3777Z" fill="#06090C"/>
<path d="M53.647 50.1945C53.6679 56.1036 53.3334 61.9919 52.6435 67.8801C52.6226 61.971 52.9571 56.0619 53.647 50.1945Z" fill="#06090C"/>
<path d="M72.0039 39.6284C73.3001 46.3727 74.2409 53.1588 74.8472 60.0076C73.5509 53.2632 72.6102 46.4563 72.0039 39.6284Z" fill="#06090C"/>
<path d="M52.7078 115.131C44.0523 134.112 45.7877 155.222 45.2023 175.538C44.6587 195.98 44.575 216.505 42.1289 236.842C44.1151 216.464 44.3242 195.98 44.6796 175.517C45.4114 155.242 43.655 133.945 52.7078 115.131Z" fill="#06090C"/>
<path d="M53.0838 114.569C52.8747 113.754 53.9827 112.46 54.3172 111.792C53.8363 113.17 53.4182 114.924 52.4355 116.072C52.5401 115.133 52.8747 114.318 53.2929 113.504C53.9619 113.838 53.4392 113.692 53.0838 114.569Z" fill="#06090C"/>
<path d="M50.6153 114.193C41.9598 133.549 40.6636 155.118 40.81 176.04C41.04 197.088 41.2908 218.198 39.0537 239.161C40.8726 218.156 40.6636 197.108 40.2873 176.04C40.2873 155.118 41.5625 133.403 50.6153 114.193Z" fill="#06090C"/>
<path d="M82.8759 112.355C82.6041 112 82.4159 111.394 82.2695 110.977C83.0013 111.666 83.733 112.271 84.3184 113.148C83.5448 112.981 82.9595 112.438 82.5831 111.812L82.9176 111.645C82.9385 111.874 82.9177 112.104 82.8759 112.355Z" fill="#06090C"/>
<path d="M85.1328 115.279C92.0949 130.856 92.3875 155.829 94.6664 172.679C96.5689 192.035 98.6178 211.391 100.374 230.768C98.1578 211.433 96.2345 192.077 94.1647 172.721C91.9695 155.808 91.7394 131.064 85.1328 115.279Z" fill="#06090C"/>
<path d="M46.7902 112.188C38.9709 119.162 35.124 129.372 34.4131 139.666C33.5559 149.939 32.8869 160.254 32.1134 170.548C30.4826 191.115 28.9773 211.724 27.2002 232.291C28.5382 211.682 30.1272 191.094 31.5907 170.506C32.427 160.212 33.1589 149.918 34.0579 139.624C34.7896 129.31 38.8037 119.016 46.7902 112.188Z" fill="#06090C"/>
<path d="M32.0508 111.604C32.7825 125.844 33.2007 140.105 33.3052 154.366C32.5526 140.126 32.1344 125.886 32.0508 111.604Z" fill="#06090C"/>
<path d="M29.5424 113.337L29.6051 147.017C29.1033 158.23 28.4971 169.443 27.7653 180.634C25.9464 200.324 25.821 228.555 21.3887 247.618C25.4237 228.617 25.5701 200.22 27.2427 180.613C28.957 161.111 29.6261 133.153 29.5424 113.337Z" fill="#06090C"/>
<path d="M13.5696 161.718C12.8378 176.439 11.8134 191.138 10.9562 205.838C9.70174 220.454 9.84805 235.446 5.58301 249.603C9.45082 235.342 9.32541 220.433 10.4335 205.796C11.4788 191.097 12.3988 176.397 13.5696 161.718Z" fill="#06090C"/>
<path d="M98.6387 113.295C102.026 131.502 105.12 149.773 107.88 168.106C104.472 149.898 101.398 131.607 98.6387 113.295Z" fill="#06090C"/>
<path d="M107.882 168.147C112.042 191.345 115.91 214.627 119.443 237.929C115.262 214.71 111.415 191.471 107.882 168.147Z" fill="#06090C"/>
<path d="M105.288 113.378C110.369 135.073 115.135 156.851 119.589 178.692C114.508 156.976 109.741 135.219 105.288 113.378Z" fill="#06090C"/>
<path d="M119.483 178.17C122.933 193.433 126.048 208.718 128.85 224.106C125.4 208.864 122.285 193.538 119.483 178.17Z" fill="#06090C"/>
<path d="M57.7461 70.2201C62.4711 66.4825 69.6632 63.8307 75.2454 67.3595C75.4335 67.5265 75.998 67.7353 75.768 68.0485C75.6844 68.1112 75.4753 68.0068 75.5798 67.9233C75.4962 68.0068 75.7052 68.0694 75.747 68.0277C75.8724 67.7353 75.3706 67.6101 75.1825 67.4848C69.4121 64.5407 62.9101 67.088 57.7461 70.2201Z" fill="#06090C"/>
<path d="M69.036 112.563C67.9697 111.854 69.224 110.35 70.1648 111.248L70.792 111.895L70.0395 111.394C67.447 110.016 69.4122 106.717 71.3566 109.431L70.9803 109.598C70.6248 108.471 70.0395 106.947 71.1267 105.965C72.5483 104.859 73.7401 106.738 73.7819 107.97L73.28 107.928C73.4055 107.531 73.5309 107.051 73.8654 106.675C74.6181 105.694 76.1861 106.341 76.0606 107.573C76.0188 108.095 75.7263 108.534 75.3499 108.826L75.099 108.45C75.4962 108.283 75.9143 108.095 76.3743 108.074C78.465 108.199 77.8587 110.308 76.3116 110.851L76.2697 110.559C77.1478 110.684 77.8796 111.603 77.566 112.459C77.336 113.336 76.0816 113.607 75.5798 112.835C76.0816 113.524 77.2524 113.232 77.3988 112.417C77.6706 111.415 76.6462 110.768 75.7681 110.809L76.1862 110.58C77.2734 110.183 78.0678 108.596 76.3953 108.513C75.7053 108.554 74.4299 109.285 73.7609 109.557C74.2417 109.076 75.6007 108.325 75.5798 107.531C75.6425 106.78 74.7435 106.341 74.2417 107.009C73.8445 107.469 73.6774 108.575 73.4683 109.202C73.2801 108.387 73.2591 107.114 72.7155 106.508C71.8374 105.506 70.7504 106.738 70.9594 107.782C71.0849 108.596 71.4611 109.661 71.6075 110.538C71.2102 109.995 70.7295 109.076 70.1232 108.805C69.266 108.429 68.7851 109.661 69.245 110.287C69.4541 110.663 69.7886 110.977 70.144 111.248L70.0186 111.373C69.2451 110.559 68.116 111.874 69.036 112.563Z" fill="#06090C"/>
<path d="M72.4649 109.996C70.876 112.063 75.6429 113.107 74.4302 110.56C74.0748 110.079 73.364 109.892 72.695 110.017C73.3013 109.724 74.1585 109.704 74.7439 110.288C75.2874 110.873 75.2665 111.98 74.4302 112.418C72.904 113.149 70.8969 111.123 72.4649 109.996Z" fill="#06090C"/>
<path d="M86.3887 98.9486C89.7129 103.271 93.748 106.904 98.4102 109.744C93.4134 107.551 89.1066 103.668 86.3887 98.9486Z" fill="#06090C"/>
<path d="M102.487 111.812C108.007 113.524 113.589 116.51 119.443 116.343C121.366 116.009 123.06 114.881 124.691 113.816C123.164 115.048 121.555 116.301 119.527 116.719C113.505 117.115 107.86 114.088 102.487 111.812Z" fill="#06090C"/>
<path d="M98.3673 112.836C98.7431 112.961 98.7849 113.17 98.4717 113.42C98.0959 113.295 98.0541 113.086 98.3673 112.836Z" fill="#06090C"/>
<path d="M104.369 92.7703C102.048 93.1044 99.7689 93.6473 97.6991 94.6704C97.0092 96.2991 95.964 97.9904 94.2705 98.7421C95.9222 97.6145 96.5285 95.9232 97.4066 94.2737C99.5182 93.1253 101.985 92.645 104.369 92.7703Z" fill="#06090C"/>
<path d="M98.2227 98.0933C98.3272 95.6503 100.355 93.3325 102.78 92.8941C100.648 94.0425 99.0798 95.8382 98.2227 98.0933Z" fill="#06090C"/>
<path d="M98.0956 90.1186C94.9595 94.0232 90.5481 97.1761 89.001 102.125C89.8582 96.9256 94.4577 93.5012 98.0956 90.1186Z" fill="#06090C"/>
<path d="M86.9736 99.5767C88.4998 95.0456 91.8449 91.0784 96.089 88.8442C92.263 91.7048 89.1689 95.338 86.9736 99.5767Z" fill="#06090C"/>
<path d="M103.949 92.9987C107.712 93.1031 111.706 92.5394 115.364 93.479C116.556 93.2702 118.124 93.3746 119.128 94.2307C121.407 93.0614 126.403 92.08 129.707 91.5371C126.048 92.4141 122.473 93.4581 118.94 94.7109C117.873 93.8548 116.682 93.834 115.323 93.9801C111.58 92.9988 107.754 93.4372 103.949 92.9987Z" fill="#06090C"/>
<path d="M115.531 93.8977C115.113 96.1528 114.507 99.3266 114.131 101.623C113.859 98.9925 114.361 96.2781 115.531 93.8977Z" fill="#06090C"/>
<path d="M118.856 94.5854C119.086 95.7964 118.982 96.9448 118.522 98.0933C118.272 96.924 118.397 95.692 118.856 94.5854Z" fill="#06090C"/>
<path d="M115.449 107.492C117.77 109.601 121.554 113.067 119.108 116.366C120.781 112.879 117.205 110.123 115.449 107.492Z" fill="#06090C"/>
<path d="M119.84 105.486C121.45 108.827 122.871 112.293 125.757 114.757C122.411 112.878 120.76 109.036 119.84 105.486Z" fill="#06090C"/>
<path d="M125.945 114.235C126.133 114.506 126.489 114.444 126.761 114.318C130.419 111.604 133.514 108.159 136.357 104.567C134.099 108.555 130.796 112.189 126.802 114.444C126.51 114.527 126.092 114.548 125.945 114.235Z" fill="#06090C"/>
<path d="M131.233 99.703C132.99 101.457 134.683 103.441 137.025 104.192L136.69 104.443C136.606 102.292 136.251 100.183 135.749 98.0743C136.606 100.079 137.066 102.229 137.192 104.422L137.213 104.777C134.558 104.067 132.718 101.854 131.233 99.703Z" fill="#06090C"/>
<path d="M136.147 105.235C136.147 104.881 136.377 104.526 136.733 104.358L136.795 104.818C136.607 104.818 136.419 104.839 136.252 104.922L136.147 104.505C136.336 104.546 136.566 104.567 136.837 104.484C136.733 104.755 136.44 104.943 136.106 104.943H135.437L136.001 104.526C136.44 104.15 137.109 104.4 137.59 104.546C137.088 104.755 136.586 104.881 136.147 105.235Z" fill="#06090C"/>
<path d="M140.704 92.3534C141.185 91.7479 144.928 89.9939 144.51 91.7479C142.21 93.8776 138.969 96.9262 136.063 98.1373C134.516 98.7637 132.802 99.0351 131.171 98.8681C134.516 98.8472 137.485 97.2185 139.952 95.0678L143.778 91.9358C144.133 91.6852 144.384 91.4138 144.091 91.3302C142.942 91.2467 141.666 91.7061 140.704 92.3534Z" fill="#06090C"/>
<path d="M138.97 96.4663C140.6 94.9629 142.963 94.5871 144.824 93.4387L145.806 92.9167C146.078 92.7287 146.58 92.6661 146.601 92.2902C146.726 92.6452 146.12 92.9167 145.932 93.1255C143.841 94.9212 141.332 95.3179 138.97 96.4663Z" fill="#06090C"/>
<path d="M143.966 91.7876C144.384 91.6414 145.408 90.9315 145.429 91.8085C144.677 94.0009 142.084 94.8361 140.224 95.9219C141.227 94.9823 142.356 94.2306 143.464 93.458C144.029 93.0822 144.53 92.6646 144.907 92.1425C145.074 91.8502 145.262 91.5997 144.97 91.6205C144.656 91.6623 144.321 91.7249 143.966 91.7876Z" fill="#06090C"/>
<path d="M145.388 92.1447C145.827 91.748 148.357 91.226 147.563 92.437C146.371 93.2305 145.117 93.7525 143.716 93.9613C144.866 93.2931 146.099 92.7294 147.249 92.0821C147.27 91.9777 147.27 92.2073 147.312 92.1656C146.705 92.0194 146.016 92.0194 145.388 92.1447Z" fill="#06090C"/>
<path d="M140.956 95.402C142.754 94.5876 144.594 93.9613 146.496 93.4392C147.082 93.2513 147.709 93.0425 147.96 92.5205L148.085 92.7084C147.604 92.6249 147.103 92.6249 146.601 92.7919C147.103 92.4996 147.709 92.3535 148.294 92.4161L148.232 92.604C148.002 93.3557 147.249 93.6898 146.643 93.8986C144.761 94.525 142.88 95.047 140.956 95.402Z" fill="#06090C"/>
<path d="M130.753 91.6213C133.576 91.4961 136.44 91.5587 139.221 91.4752C139.66 91.4334 140.099 91.2872 140.308 90.9949C140.538 90.6817 140.475 90.3894 140.099 90.3059C138.343 90.1806 136.356 90.2432 134.517 90.2015C132.677 90.2641 130.67 90.4311 129.248 91.7466C130.544 90.2641 132.635 89.93 134.496 89.8048C135.708 90.0344 142.315 88.7607 140.705 91.3081C140.329 91.7675 139.764 91.9137 139.283 91.9554C136.419 91.9972 133.618 91.7884 130.753 91.6213Z" fill="#06090C"/>
<path d="M140.789 89.8459C143.131 89.6997 146.308 89.9503 147.207 92.5603C145.702 90.4305 143.089 90.4514 140.789 89.8459Z" fill="#06090C"/>
<path d="M138.008 96.4442C139.618 110.664 140.391 124.988 140.642 139.291C141.332 153.468 138.28 168.147 142.545 181.949C137.862 168.252 140.956 153.468 140.12 139.291C140.036 124.988 139.2 110.705 138.008 96.4442Z" fill="#06090C"/>
<path d="M147.458 93.6465C148.524 119.371 150.009 155.494 150.594 180.864C149.235 152.278 148.002 122.273 147.458 93.6465Z" fill="#06090C"/>
<path d="M147.646 108.763C149.088 121.479 147.081 134.258 147.374 146.995C147.311 156.203 147.395 166.434 147.541 175.684C147.583 177.25 147.541 178.921 147.646 180.424C147.729 180.716 148.168 180.737 148.566 180.842C149.82 181.217 150.74 182.428 150.761 183.723C147.98 183.452 145.221 182.909 142.565 182.073C145.2 182.825 147.917 183.305 150.656 183.514L150.552 183.619C150.468 182.47 149.59 181.426 148.503 181.113C148.189 180.988 147.604 181.05 147.374 180.507C147.249 178.837 147.269 177.292 147.207 175.684C147.039 166.413 146.747 156.224 146.893 146.995C146.726 134.237 148.712 121.5 147.646 108.763Z" fill="#06090C"/>
<path d="M150.51 183.598C150.134 181.865 150.113 180.027 150.426 178.273C150.823 180.048 150.844 181.802 150.51 183.598Z" fill="#06090C"/>
<path d="M138.823 108.431C142.837 120.5 143.59 133.341 143.966 145.953H143.485C144.029 128.977 143.256 112.001 141.186 95.1301C143.653 111.939 144.573 128.998 143.966 145.974H143.485C143.235 133.341 142.482 120.583 138.823 108.431Z" fill="#06090C"/>
<path d="M136.523 106.592C137.924 115.905 139.053 125.259 139.513 134.676C140.349 144.052 137.59 153.552 139.534 162.802C137.172 153.615 139.994 144.031 138.99 134.676C138.719 125.28 137.485 115.947 136.523 106.592Z" fill="#06090C"/>
<path d="M139.513 162.636C139.973 163.033 140.203 163.597 140.328 164.161L139.826 164.307C139.638 163.827 139.471 163.326 139.45 162.762C139.847 163.158 140.077 163.639 140.307 164.098L139.806 164.244C139.743 163.722 139.576 163.221 139.513 162.636Z" fill="#06090C"/>
<path d="M60.5893 49.5071C60.6938 49.862 61.0701 49.8829 61.321 49.7159C61.7183 49.5906 62.0319 49.695 62.3664 49.7576C62.9309 49.9247 63.558 50.2796 63.9971 49.9664C64.3525 49.5906 65.2725 49.3818 65.5862 49.0268C65.8998 48.6092 65.5652 47.8158 64.8544 47.8575C65.168 47.7531 65.5652 47.8367 65.816 48.129C66.4014 48.818 65.7534 49.7159 65.0635 49.8829C64.7708 49.9873 64.6452 50.1543 64.3107 50.384C63.9135 50.6764 63.4954 50.5511 63.1818 50.5302C62.4919 50.3423 62.0318 49.9038 61.3837 49.9456C61.0701 50.0917 60.5475 49.8829 60.5893 49.5071Z" fill="#06090C"/>
</svg>
